<mxfile host="app.diagrams.net" modified="2024-07-16T18:41:10.072Z" agent="Mozilla/5.0 (X11; Ubuntu; Linux x86_64; rv:128.0) Gecko/20100101 Firefox/128.0" etag="uagUt0B--FAD6L0KczCT" version="24.6.5" type="device" pages="2">
  <diagram name="layers" id="X-MzNRxjAZdX242fVViG">
    <mxGraphModel dx="1434" dy="846" grid="1" gridSize="10" guides="1" tooltips="1" connect="1" arrows="1" fold="1" page="1" pageScale="1" pageWidth="850" pageHeight="1100" math="0" shadow="0">
      <root>
        <mxCell id="f2ak9kAQmxtRjergjKL7-0" />
        <mxCell id="f2ak9kAQmxtRjergjKL7-1" parent="f2ak9kAQmxtRjergjKL7-0" />
        <mxCell id="WpbnCVw1M9HLXg5hYy3Y-0" value="&lt;b&gt;Peristence&lt;/b&gt;" style="rounded=1;whiteSpace=wrap;html=1;glass=0;shadow=0;verticalAlign=top;arcSize=6;fontSize=15;align=left;spacingLeft=6;" vertex="1" parent="f2ak9kAQmxtRjergjKL7-1">
          <mxGeometry y="460" width="470" height="140" as="geometry" />
        </mxCell>
        <mxCell id="f2ak9kAQmxtRjergjKL7-2" value="Web Frontend" style="rounded=1;whiteSpace=wrap;html=1;glass=0;shadow=0;verticalAlign=top;arcSize=6;fontSize=15;align=left;fontStyle=1;spacingLeft=6;" vertex="1" parent="f2ak9kAQmxtRjergjKL7-1">
          <mxGeometry width="470" height="140" as="geometry" />
        </mxCell>
        <mxCell id="f2ak9kAQmxtRjergjKL7-3" value="&lt;b&gt;API&lt;/b&gt;" style="rounded=1;whiteSpace=wrap;html=1;glass=0;shadow=0;verticalAlign=top;arcSize=2;fontSize=15;align=left;spacingLeft=6;" vertex="1" parent="f2ak9kAQmxtRjergjKL7-1">
          <mxGeometry y="160" width="470" height="280" as="geometry" />
        </mxCell>
        <mxCell id="f2ak9kAQmxtRjergjKL7-4" value="" style="edgeStyle=orthogonalEdgeStyle;rounded=0;orthogonalLoop=1;jettySize=auto;html=1;startArrow=classic;startFill=1;" edge="1" parent="f2ak9kAQmxtRjergjKL7-1" source="f2ak9kAQmxtRjergjKL7-37" target="f2ak9kAQmxtRjergjKL7-28">
          <mxGeometry relative="1" as="geometry">
            <mxPoint x="455" y="420" as="sourcePoint" />
            <mxPoint x="575.5" y="420" as="targetPoint" />
          </mxGeometry>
        </mxCell>
        <mxCell id="f2ak9kAQmxtRjergjKL7-5" style="edgeStyle=orthogonalEdgeStyle;rounded=0;orthogonalLoop=1;jettySize=auto;html=1;startArrow=classic;startFill=1;entryX=0.25;entryY=0;entryDx=0;entryDy=0;exitX=0.5;exitY=1;exitDx=0;exitDy=0;" edge="1" parent="f2ak9kAQmxtRjergjKL7-1" source="f2ak9kAQmxtRjergjKL7-44" target="f2ak9kAQmxtRjergjKL7-25">
          <mxGeometry relative="1" as="geometry">
            <mxPoint x="140" y="420" as="sourcePoint" />
            <mxPoint x="235" y="420" as="targetPoint" />
            <Array as="points">
              <mxPoint x="80" y="420" />
              <mxPoint x="223" y="420" />
            </Array>
          </mxGeometry>
        </mxCell>
        <mxCell id="f2ak9kAQmxtRjergjKL7-7" value="" style="edgeStyle=orthogonalEdgeStyle;rounded=0;orthogonalLoop=1;jettySize=auto;html=1;startArrow=classic;startFill=1;" edge="1" parent="f2ak9kAQmxtRjergjKL7-1" source="f2ak9kAQmxtRjergjKL7-13" target="f2ak9kAQmxtRjergjKL7-41">
          <mxGeometry relative="1" as="geometry">
            <mxPoint x="385" y="571.25" as="targetPoint" />
          </mxGeometry>
        </mxCell>
        <mxCell id="f2ak9kAQmxtRjergjKL7-8" value="&lt;b style=&quot;font-size: 15px;&quot;&gt;HPC Resources&lt;/b&gt;" style="rounded=1;whiteSpace=wrap;html=1;glass=0;shadow=0;verticalAlign=top;arcSize=6;fontSize=15;align=left;spacingLeft=6;" vertex="1" parent="f2ak9kAQmxtRjergjKL7-1">
          <mxGeometry x="490" y="160" width="160" height="440" as="geometry" />
        </mxCell>
        <mxCell id="f2ak9kAQmxtRjergjKL7-9" style="edgeStyle=orthogonalEdgeStyle;rounded=0;orthogonalLoop=1;jettySize=auto;html=1;startArrow=classic;startFill=1;" edge="1" parent="f2ak9kAQmxtRjergjKL7-1" source="f2ak9kAQmxtRjergjKL7-34" target="f2ak9kAQmxtRjergjKL7-40">
          <mxGeometry relative="1" as="geometry">
            <mxPoint x="420" y="830" as="sourcePoint" />
            <mxPoint x="415" y="630" as="targetPoint" />
          </mxGeometry>
        </mxCell>
        <mxCell id="f2ak9kAQmxtRjergjKL7-10" style="edgeStyle=orthogonalEdgeStyle;rounded=0;orthogonalLoop=1;jettySize=auto;html=1;startArrow=classic;startFill=1;exitX=0.5;exitY=1;exitDx=0;exitDy=0;" edge="1" parent="f2ak9kAQmxtRjergjKL7-1" source="f2ak9kAQmxtRjergjKL7-35" target="f2ak9kAQmxtRjergjKL7-19">
          <mxGeometry relative="1" as="geometry">
            <mxPoint x="845" y="535" as="sourcePoint" />
          </mxGeometry>
        </mxCell>
        <mxCell id="f2ak9kAQmxtRjergjKL7-11" value="" style="edgeStyle=orthogonalEdgeStyle;rounded=0;orthogonalLoop=1;jettySize=auto;html=1;startArrow=classic;startFill=1;" edge="1" parent="f2ak9kAQmxtRjergjKL7-1" source="f2ak9kAQmxtRjergjKL7-23" target="f2ak9kAQmxtRjergjKL7-43">
          <mxGeometry relative="1" as="geometry">
            <mxPoint x="105" y="518.75" as="sourcePoint" />
          </mxGeometry>
        </mxCell>
        <mxCell id="f2ak9kAQmxtRjergjKL7-12" value="" style="group" vertex="1" connectable="0" parent="f2ak9kAQmxtRjergjKL7-1">
          <mxGeometry x="320" y="482.5" width="120" height="95" as="geometry" />
        </mxCell>
        <mxCell id="f2ak9kAQmxtRjergjKL7-13" value="" style="shape=image;verticalLabelPosition=bottom;labelBackgroundColor=default;verticalAlign=top;aspect=fixed;imageAspect=0;image=data:image/svg+xml,PHN2ZyB4bWw6c3BhY2U9InByZXNlcnZlIiBzdHlsZT0iZW5hYmxlLWJhY2tncm91bmQ6bmV3IC05MDkgMjI2IDEwMCAxMDA7IiB2aWV3Qm94PSItOTA5IDIyNiAxMDAgMTAwIiBoZWlnaHQ9IjEwMHB4IiB3aWR0aD0iMTAwcHgiIHk9IjBweCIgeD0iMHB4IiB4bWxuczp4bGluaz0iaHR0cDovL3d3dy53My5vcmcvMTk5OS94bGluayIgeG1sbnM9Imh0dHA6Ly93d3cudzMub3JnLzIwMDAvc3ZnIiBpZD0iTGF5ZXJfMSIgdmVyc2lvbj0iMS4xIj4mI3hhOzxwYXRoIGQ9Ik0tODEzLjEsMjQ1LjF2LTAuM2wtMC40LTAuN2MtMi44LTkuMy0yMC43LTE1LjUtNDUtMTUuNWMtMjMuOCwwLTQyLjIsNi4zLTQ1LDE1LjVsLTAuNCwwLjRsMCw2My44bDAuMiwwLjcmI3hBOyYjOTtjMi40LDkuMiwyMS40LDE1LjksNDUuMiwxNS45YzIwLjUsMCw0Mi42LTUuNCw0NS4yLTE1LjhsMC4yLTAuOEwtODEzLjEsMjQ1LjFMLTgxMy4xLDI0NS4xeiBNLTg5OSwyNDYuM2wwLjItMC42JiN4QTsmIzk7YzEuMy01LDE0LjctMTIuMSw0MC4zLTEyLjFjMjUuNywwLDM5LDcuMSw0MC4zLDEyLjJsMC4xLDAuNGwwLjEsMC4xdjEuNWMtNCwzLTEzLjIsNS44LTI1LjYsNy4yYy0wLjYsMC4xLTEuMSwwLjEtMS43LDAuMiYjeEE7JiM5O2MtMC4xLDAtMC4yLDAtMC4zLDBjLTQuMSwwLjQtOC40LDAuNi0xMi44LDAuNmMtMTAuNiwwLTIwLjgtMS4yLTI5LTMuMmMtNS4zLTEuNC05LjItMy0xMS41LTQuN1YyNDYuM3ogTS04OTguOSwyNzQuMSYjeEE7JiM5O2M3LjksMy42LDIwLjIsNi4xLDMzLjYsNi42YzAuMywwLDAuNiwwLDEsMGMwLjMsMCwwLjYsMCwwLjksMGw5LjgsMGMxNC4yLTAuNCwyNy4yLTIuOSwzNS40LTYuN3YxMy41Yy0wLjMsMC4yLTAuNiwwLjMtMC45LDAuNSYjeEE7JiM5O2MtNiwyLjMtMjIuNSw4LjEtMzkuNCw4LjFjLTMuNywwLTcuMi0wLjEtMTAuNi0wLjRjMCwwLDAsMC0wLjEsMGMtMS0wLjEtMi0wLjItMy0wLjNjLTAuMywwLTAuNS0wLjEtMC44LTAuMSYjeEE7JiM5O2MtMC44LTAuMS0xLjYtMC4yLTIuMy0wLjNjLTAuMywwLTAuNS0wLjEtMC43LTAuMWMtMC44LTAuMS0xLjctMC4yLTIuNS0wLjNjMCwwLTAuMSwwLTAuMSwwYy05LjctMS41LTE2LjktNC0yMC40LTYuNVYyNzQuMXomI3hBOyYjOTsgTS04MTguMSwzMDcuNmwwLDAuMmMtMS41LDUuNy0xOC40LDEyLjEtNDAuNCwxMi4xYy0yNC40LDAtMzkuMS03LjEtNDAuNC0xMi4ybDAtMC4ydi0xMy4yYzQuNywyLjEsMTAuOSwzLjksMTgsNSYjeEE7JiM5O2MzLjIsMC41LDYuNywxLDEwLjUsMS4zYzAuMiwwLDAuMywwLDAuNSwwYzAuNSwwLDEuMSwwLjEsMS42LDAuMWMzLjIsMC4yLDYuNSwwLjMsOS44LDAuM2MxNi44LDAsMzEuOC0zLjgsNDAuNC04VjMwNy42eiYjeEE7JiM5OyBNLTgxOCwyNjcuOGMtMC4xLDAtMC4xLDAuMS0wLjIsMC4xYy0wLjQsMC4zLTAuOSwwLjYtMS40LDAuOWMtMS4xLDAuNi0yLjQsMS4yLTMuOSwxLjhjLTMuNCwxLjMtNy4yLDIuMy0xMS45LDMuMiYjeEE7JiM5O2MtNS45LDEuMS0xMS40LDEuNy0xNi41LDEuOGwtNSwwLjFjLTAuNywwLTEuNSwwLTIuMiwwLjFjLTEuNywwLTMuMywwLjEtNSwwLjFjLTAuMywwLTAuNiwwLTAuOSwwYy0wLjQsMC0wLjcsMC0xLjEtMC4xbC0xLjUtMC4xJiN4QTsmIzk7Yy0yLjMtMC4yLTQuOC0wLjQtNy4xLTAuNmMtNS4yLTAuNi05LjgtMS41LTE0LTIuN2MtMi42LTAuNy01LjktMS44LTguOS0zLjVjLTAuNS0wLjMtMC45LTAuNi0xLjMtMC44di0xMy45YzIuNywxLjIsNiwyLjQsOS42LDMuMyYjeEE7JiM5O2M3LjgsMi4xLDE4LjIsMy42LDMwLjcsMy42YzcuMSwwLDEzLjUtMC41LDE5LjEtMS4yYzguNi0xLjEsMTYtMy4xLDIxLjMtNS42VjI2Ny44eiIvPiYjeGE7PC9zdmc+;" vertex="1" parent="f2ak9kAQmxtRjergjKL7-12">
          <mxGeometry x="25" width="70" height="70" as="geometry" />
        </mxCell>
        <mxCell id="f2ak9kAQmxtRjergjKL7-14" value="File Storage" style="text;whiteSpace=wrap;html=1;verticalAlign=middle;align=center;" vertex="1" parent="f2ak9kAQmxtRjergjKL7-12">
          <mxGeometry y="75" width="120" height="20" as="geometry" />
        </mxCell>
        <mxCell id="f2ak9kAQmxtRjergjKL7-15" value="" style="edgeStyle=orthogonalEdgeStyle;rounded=0;orthogonalLoop=1;jettySize=auto;html=1;entryX=1;entryY=0.5;entryDx=0;entryDy=0;exitX=0.5;exitY=0;exitDx=0;exitDy=0;" edge="1" parent="f2ak9kAQmxtRjergjKL7-1" source="f2ak9kAQmxtRjergjKL7-46" target="f2ak9kAQmxtRjergjKL7-22">
          <mxGeometry relative="1" as="geometry">
            <mxPoint x="235" y="553.75" as="sourcePoint" />
            <mxPoint x="140" y="553.75" as="targetPoint" />
          </mxGeometry>
        </mxCell>
        <mxCell id="f2ak9kAQmxtRjergjKL7-17" value="" style="edgeStyle=orthogonalEdgeStyle;rounded=0;orthogonalLoop=1;jettySize=auto;html=1;" edge="1" parent="f2ak9kAQmxtRjergjKL7-1" source="f2ak9kAQmxtRjergjKL7-31" target="f2ak9kAQmxtRjergjKL7-29">
          <mxGeometry relative="1" as="geometry">
            <mxPoint x="610.5" y="518.75" as="sourcePoint" />
          </mxGeometry>
        </mxCell>
        <mxCell id="f2ak9kAQmxtRjergjKL7-18" value="" style="group" vertex="1" connectable="0" parent="f2ak9kAQmxtRjergjKL7-1">
          <mxGeometry x="510" y="482.5" width="120" height="90" as="geometry" />
        </mxCell>
        <mxCell id="f2ak9kAQmxtRjergjKL7-19" value="" style="shape=image;verticalLabelPosition=bottom;labelBackgroundColor=default;verticalAlign=top;aspect=fixed;imageAspect=0;image=data:image/svg+xml,PHN2ZyB4bWxuczp4bGluaz0iaHR0cDovL3d3dy53My5vcmcvMTk5OS94bGluayIgeG1sbnM9Imh0dHA6Ly93d3cudzMub3JnLzIwMDAvc3ZnIiBwcmVzZXJ2ZUFzcGVjdFJhdGlvPSJ4TWlkWU1pZCBtZWV0IiB2aWV3Qm94PSIwIDAgMzYgMzYiIGhlaWdodD0iMzYiIHdpZHRoPSIzNiIgdmVyc2lvbj0iMS4xIj4mI3hhOyAgICA8dGl0bGU+Y2x1c3Rlci1zb2xpZDwvdGl0bGU+JiN4YTsgICAgPHBhdGggY2xhc3M9ImNsci1pLXNvbGlkIGNsci1pLXNvbGlkLXBhdGgtMSIgZD0iTTMxLjM2LDhIMjcuNVYzMkgzM1Y5LjY3QTEuNjUsMS42NSwwLDAsMCwzMS4zNiw4WiIvPjxwYXRoIGNsYXNzPSJjbHItaS1zb2xpZCBjbHItaS1zb2xpZC1wYXRoLTIiIGQ9Ik0zLDkuNjdWMzJIOC41VjhINC42NEExLjY1LDEuNjUsMCwwLDAsMyw5LjY3WiIvPjxwYXRoIGNsYXNzPSJjbHItaS1zb2xpZCBjbHItaS1zb2xpZC1wYXRoLTMiIGQ9Ik0yNC4zMiw0SDExLjY4QTEuNjgsMS42OCwwLDAsMCwxMCw1LjY4VjMySDI2VjUuNjhBMS42OCwxLjY4LDAsMCwwLDI0LjMyLDRaTTE4LDI3Ljc5QTEuNzksMS43OSwwLDEsMSwxOS44MSwyNiwxLjgsMS44LDAsMCwxLDE4LDI3Ljc5Wk0yMywxMC42SDEzVjlIMjNaIi8+JiN4YTsgICAgPHJlY3QgZmlsbC1vcGFjaXR5PSIwIiBoZWlnaHQ9IjM2IiB3aWR0aD0iMzYiIHk9IjAiIHg9IjAiLz4mI3hhOzwvc3ZnPg==;" vertex="1" parent="f2ak9kAQmxtRjergjKL7-18">
          <mxGeometry x="25" width="70" height="70" as="geometry" />
        </mxCell>
        <mxCell id="f2ak9kAQmxtRjergjKL7-20" value="HPC Cluster(s)" style="text;whiteSpace=wrap;html=1;verticalAlign=middle;align=center;" vertex="1" parent="f2ak9kAQmxtRjergjKL7-18">
          <mxGeometry y="75" width="120" height="20" as="geometry" />
        </mxCell>
        <mxCell id="f2ak9kAQmxtRjergjKL7-21" value="" style="group" vertex="1" connectable="0" parent="f2ak9kAQmxtRjergjKL7-1">
          <mxGeometry x="20" y="182.5" width="120" height="95" as="geometry" />
        </mxCell>
        <mxCell id="f2ak9kAQmxtRjergjKL7-22" value="" style="shape=image;verticalLabelPosition=bottom;labelBackgroundColor=default;verticalAlign=top;aspect=fixed;imageAspect=0;image=data:image/svg+xml,PHN2ZyB2aWV3Qm94PSIwIDAgMTI4IDEyOCIgeG1sbnM9Imh0dHA6Ly93d3cudzMub3JnLzIwMDAvc3ZnIj48ZyBmaWxsPSIjRDgyQzIwIj48cGF0aCBkPSJNNi4yIDUyLjdjNi43IDMuMiA0My43IDE4LjEgNDkuNSAyMC45IDUuOCAyLjggMTAgMi44IDE3LjQtMSA3LjQtMy45IDQyLjItMTguMSA0OC45LTIxLjYgMy40LTEuOCA0LjktMy4yIDQuOS00LjR2LTEyLjVjMC0xLjMtMS43LTIuNC01LTMuNi02LjUtMi40LTQxLjEtMTYuMS00Ny43LTE4LjYtNi42LTIuNC05LjMtMi4zLTE3LjEuNS03LjggMi44LTQ0LjUgMTcuMi01MS4xIDE5LjgtMy4yIDEuMy01IDIuNC01IDMuN2gtLjJ2MTIuN2MuMiAxLjIgMi4xIDIuNSA1LjQgNC4xem02MC40IDEuOGwtMjAuMy04LjQgMjkuMS00LjUtOC44IDEyLjl6bTQ0LjEtMjBsLTE3LjIgNi44LTEuOS43LTE3LjItNi44IDE5LjEtNy41IDE3LjIgNi44em0tNTAuNi0xMi41bC0yLjgtNS4yIDguOCAzLjQgOC4zLTIuNy0yLjIgNS40IDguNCAzLjItMTAuOSAxLjEtMi40IDUuOS0zLjktNi41LTEyLjYtMS4xIDkuMy0zLjV6bS0yMS43IDcuM2M4LjYgMCAxNS42IDIuNyAxNS42IDZzLTcgNi0xNS42IDYtMTUuNi0yLjctMTUuNi02IDctNiAxNS42LTZ6TTEyMiA1OS44Yy02LjcgMy41LTQxLjQgMTcuOC00OC44IDIxLjYtNy40IDMuOS0xMS41IDMuOC0xNy4zIDEtNS44LTIuOC00My0xNy43LTQ5LjYtMjAuOS0zLjQtMS42LTUuMy0yLjktNS4zLTQuMnYxMi43YzAgMS4zIDEuOSAyLjYgNS4yIDQuMiA2LjcgMy4yIDQzLjcgMTguMSA0OS41IDIwLjkgNS44IDIuOCAxMCAyLjggMTcuNC0xIDcuNC0zLjkgNDIuMi0xOC4xIDQ4LjktMjEuNiAzLjQtMS44IDQuOS0zLjIgNC45LTQuNHYtMTIuNWMwIDEuMS0xLjYgMi41LTQuOSA0LjJ6TTEyMiA4MC41Yy02LjcgMy41LTQxLjQgMTcuOC00OC44IDIxLjYtNy40IDMuOS0xMS41IDMuOC0xNy4zIDEtNS44LTIuOC00My0xNy43LTQ5LjYtMjAuOS0zLjQtMS41LTUuMy0yLjktNS4zLTQuMnYxMi43YzAgMS4zIDEuOSAyLjYgNS4yIDQuMiA2LjcgMy4yIDQzLjcgMTguMSA0OS41IDIwLjkgNS44IDIuOCAxMCAyLjggMTcuNC0xIDcuNC0zLjkgNDIuMi0xOC4xIDQ4LjktMjEuNiAzLjQtMS44IDQuOS0zLjIgNC45LTQuNHYtMTIuNWMwIDEuMi0xLjYgMi41LTQuOSA0LjJ6Ii8+PC9nPjwvc3ZnPg==;" vertex="1" parent="f2ak9kAQmxtRjergjKL7-21">
          <mxGeometry x="25" width="70" height="70" as="geometry" />
        </mxCell>
        <mxCell id="f2ak9kAQmxtRjergjKL7-23" value="Job Cache" style="text;whiteSpace=wrap;html=1;align=center;verticalAlign=middle;" vertex="1" parent="f2ak9kAQmxtRjergjKL7-21">
          <mxGeometry y="75" width="120" height="20" as="geometry" />
        </mxCell>
        <mxCell id="f2ak9kAQmxtRjergjKL7-24" value="" style="group" vertex="1" connectable="0" parent="f2ak9kAQmxtRjergjKL7-1">
          <mxGeometry x="180" y="482.5" width="120" height="95" as="geometry" />
        </mxCell>
        <mxCell id="f2ak9kAQmxtRjergjKL7-25" value="" style="shape=image;verticalLabelPosition=bottom;labelBackgroundColor=default;verticalAlign=top;aspect=fixed;imageAspect=0;image=data:image/svg+xml,PHN2ZyB2aWV3Qm94PSIwIDAgMTI4IDEyOCIgeG1sbnM9Imh0dHA6Ly93d3cudzMub3JnLzIwMDAvc3ZnIj48cGF0aCBkPSJNMTIzLjI1OCA3Ni43ODRjLS40NS0yLjkxOC0yLjkwMS00LjgyOS01Ljc1Mi00Ljk1OC0xLjAzMi0uMDQ3LTIuMDguMDYxLTMuMTA5LjE5Mi0xLjI0My4xNTgtMi40NzEuNDM4LTMuNzExLjYyMy0uODU3LjEyOC0xLjcyNi4xODctMi41ODIuMjc1bC0uMDIxLS4xMTFjMS41OTgtMy4wMTggMy4yNjMtNi4wMDMgNC43NzUtOS4wNjQgMS4xNTktMi4zNDggMi4xNTEtNC43ODEgMy4xNzYtNy4xOTQgMS42OTYtMy45OTggMy4wNTEtOC4xMiA0LjE3My0xMi4zMDkgMS4wNzUtNC4wMTEgMS45OTUtOC4wNjYgMi4yODQtMTIuMjI3LjExNi0xLjY2Mi4xOTYtMy4zMzEuMTg3LTQuOTk1LS4wMDgtMS4zMjctLjE1MS0yLjY1Ni0uMjg0LTMuOTc5LS4xNS0xLjUxNi0uNjA4LTIuOTUzLTEuMjQyLTQuMzM2LS44MzYtMS44MjItMi4xMzItMy4zMTctMy40OTYtNC43MzctMS4wOTItMS4xMzctMi4yOTMtMi4xNzMtMy40ODQtMy4yMDgtMS42OTgtMS40NzctMy42MDctMi42NTYtNS41OS0zLjcwMy0yLjI1My0xLjE5LTQuNjIxLTIuMTIxLTcuMDktMi43NS0xLjQ5My0uMzgxLTMuMDItLjY2NC00LjUzMi0uOTY2LS41NDQtLjExLTEuMDg5LS4zMzctMS42MzMtLjMzN2gtMTAuMjQxYy0uMzcgMC0uNzM3LjE5MS0xLjExLjIzMy0yLjQ1Mi4yNzMtNC44NzUuNzM1LTcuMjI4IDEuNDY0LS44OC4yNzMtMS42ODQuMTAxLTIuNTIuMDI0LS42NDEtLjA1OS0xLjI3MS0uMjMxLTEuOTEyLS4yNjMtMi40NDItLjEyMi00Ljg4Ny0uMzAxLTcuMzI4LS4yNzUtMi4zMzkuMDI0LTQuNjU0LjQwOS02LjkxOCAxLjA1Mi0xLjg5NS41MzgtMy43NDkgMS4xOTUtNS40NDcgMi4xOTEtLjcyNy40MjYtMS4zMDMuMzQ2LTIuMDU1LjEyOS0yLjUyNy0uNzI5LTUuMDcyLTEuNDE0LTcuNjM5LTEuOTg5LTEuNi0uMzU4LTMuMjQ1LS41MzYtNC44NzktLjcwNy0xLjU2Ni0uMTYzLTMuMTQ0LS4yNjEtNC43MTgtLjI5NC0xLjUzOC0uMDMzLTMuMDg3LS4wMzItNC42MTguMTA0LTIuNDM5LjIxNy00LjgzMi43MTMtNy4xNTggMS41MTMtMi41ODMuODg4LTQuOTUxIDIuMTc1LTcuMDg2IDMuODY1LTIuMTY3IDEuNzE1LTMuOTA1IDMuODA5LTUuMzAzIDYuMi0xLjQ3MyAyLjUyMy0yLjQ4MyA1LjIyNC0zLjExMSA4LjA2MS0uMzQgMS41MzctLjU1NSAzLjExNy0uNzg4IDQuNjc4LS4wNzMuNDg2LjczMi45NzItLjI2OCAxLjQ1NnY2Ljc5NGMxIC40NTIuMjA4LjkwMy4yNjYgMS4zNTYuMTM5IDEuMDg5LjI2MiAyLjE4Ny40NDYgMy4yNjguMjkxIDEuNzExLjYzNiAzLjQxNy45ODggNS4xMTcuNDkxIDIuMzc1IDEuMDAyIDQuNzQ4IDEuNTQ2IDcuMTExLjM5NiAxLjcyLjg0NyAzLjQzIDEuMzE5IDUuMTMxLjcyMSAyLjU5OCAxLjQzMSA1LjIwMSAyLjI0NiA3Ljc3Ljc1NyAyLjM4NyAxLjYyNCA0Ljc0IDIuNDg0IDcuMDkzIDEuMTkxIDMuMjU1IDIuNjE3IDYuNDA1IDQuMzI3IDkuNDI0IDEuNDc5IDIuNjE0IDMuMTY5IDUuMDYyIDUuNDM2IDcuMDc2IDEuNDk0IDEuMzI3IDMuMTU3IDIuMzQ3IDUuMDkzIDIuODU3IDEuNTIxLjQgMy4wNjcuNDQ4IDQuNjI0LjEyOSAxLjgwNS0uMzcgMy40MDMtMS4xNDcgNC44MjQtMi4zMTEuMTYzLS4xMzQuMzQyLS4yMzYuNTM1LjAxLjczNS45MzEgMS43MTkgMS41NTIgMi43NDggMi4wODkgMi43NzcgMS40NDggNS44MDMgMS44ODIgOC44NzcgMi4wNTkuNzQ0LjA0MyAxLjQ5Ni0uMDY0IDIuMjQ2LS4wODUgMS40NjEtLjA0IDIuODgxLS4zMjUgNC4yNzgtLjcyOS43MzItLjIxMiAxLjQ0Ny0uNDgxIDIuMTkyLS43MzIuMDM5Ljc5My4wODkgMS41NTcuMTEyIDIuMzIxbC4xMDQgNC4xNjZjLjAxOS42MzQuMDQ0IDEuMjcuMTAzIDEuOTAxLjE1MSAxLjYyNy4yOTkgMy4yNTUuNDkzIDQuODc3LjEzNSAxLjExOC4yNzUgMi4yNDUuNTM4IDMuMzM2LjUyOSAyLjIwMyAxLjI0NiA0LjM0OCAyLjE1OCA2LjQyOC44OTUgMi4wNDEgMi4xODIgMy43NjQgMy45IDUuMTg1IDIuMjIgMS44MzYgNC44MjIgMi42MTkgNy42MzIgMi43NjQgMS4xNjIuMDYxIDIuMzU3LjAwNCAzLjUwMS0uMjA0IDEuODEzLS4zMjkgMy42MjItLjc0MyA1LjM4Ny0xLjI3NSAzLjU5MS0xLjA4NCA2LjY5NS0yLjk1NiA5LjAxNC01Ljk4MSAxLjMyLTEuNzI0IDIuNDA0LTMuNTg5IDMuMS01LjY0OC41NzQtMS43MDEgMS4xMTUtMy40MTkgMS41NDUtNS4xNi4zNC0xLjM3Mi41MDgtMi43ODcuNzE1LTQuMTg4LjEzNy0uOTI3LjIxOS0xLjg2My4zMDUtMi43OTcuMTQtMS41MTcuMjgzLTMuMDMzLjM4NC00LjU1My4wNy0xLjA1OC4wNjctMi4xMjEuMTA5LTMuMTgxLjAxMy0uMzIzLjA2NS0uNjQ0LjA5NS0uOTY2LjAyOC0uMjk4LjE3OC0uNDAxLjQ4Mi0uMzk2IDEuMDcxLjAxNiAyLjE0NC4wNDQgMy4yMTItLjAwNCAxLjE5Ny0uMDU0IDIuNDA1LS4xMDUgMy41ODMtLjMwMyAxLjY3Ny0uMjgxIDMuMzQ2LS42MzYgNC45OS0xLjA2NyAxLjk0My0uNTA4IDMuNzI1LTEuNDE4IDUuNDQtMi40NTUgMS45OTgtMS4yMDcgMy44MTktMi42MjMgNS4yOTctNC40NDcgMS4yODUtMS41OTEgMS44OTQtMy40MyAxLjU4NC01LjQzOHptLTMuNDEyLjk4MmMtLjA2Ni45MTUtLjQ4NSAxLjY5OS0xLjA5MyAyLjM2OS0yLjg2OSAzLjE2My02LjQ2OCA1LjA4Mi0xMC41ODUgNi4wMjctMS41NjQuMzU4LTMuMTc4LjU0NC00Ljc3OS42OTItMS4zNjMuMTI2LTIuNzQ2LjE0Ny00LjExNC4wOTctMS4wMDYtLjAzOC0yLjAwNC0uMjY4LTMuMDMyLS40MTYtLjEwMy45NC0uMjAxIDEuOTE5LS4zMiAyLjg5NmwtLjQ3OSAzLjc0NWMtLjE0NSAxLjE4Ny0uMjU4IDIuMzc4LS40MDcgMy41NjQtLjE0NiAxLjE1MS0uMzI4IDIuMjk4LS40ODEgMy40NDktLjE0MyAxLjA3Mi0uMjQ4IDIuMTQ5LS40MDcgMy4yMTktLjI0NSAxLjY0LS40NzkgMy4yODQtLjc5OSA0LjkxMS0uMzg0IDEuOTQ1LS45NzMgMy44MjktMS45MzQgNS41ODMtMS4xNzIgMi4xNDEtMi44MzQgMy43NzItNC45NDkgNC45OC0yLjE4IDEuMjQ2LTQuNTYzIDEuODk0LTYuOTc5IDIuNDM2LTEuNzEuMzg0LTMuNDcyLjQ0Ny01LjIwNC4yOTEtMy4wMDQtLjI3Mi01LjU2OC0xLjU1Ny03LjUwNi0zLjg4Ni0xLjg1LTIuMjIzLTMuMTAyLTQuNzcxLTMuNTUtNy42NTUtLjIxNC0xLjM3MS0uMzY4LTIuNzU0LS40OTEtNC4xMzYtLjEzNi0xLjUzNy0uMjI5LTMuMDc5LS4yOTktNC42Mi0uMDg5LTEuOTU3LS4xNTQtMy45MTQtLjE5Ny01Ljg3MS0uMDUzLTIuNDA2LS4wNy00LjgxMi0uMTA0LTcuMjE4bC0uMDA2LS4wOTJjLTEuMjI0LjczNC0yLjQyNyAxLjUzOC0zLjcwMyAyLjItMS40OTQuNzc2LTMuMTE3IDEuMjI2LTQuNzk4IDEuMzUzLTEuMzE4LjEtMi42NTMuMTkxLTMuOTY1LjA4Ni0yLjE1MS0uMTczLTQuMy0uNTEtNi4yMjYtMS41NjktLjc4MS0uNDMtMS41OTYtLjk1My0yLjEzNC0xLjY0LTEuMjktMS42NDYtLjY3Mi0zLjcyNiAxLjI3My00LjcyNyAxLjM0NC0uNjkzIDIuODExLS45ODIgNC4yNjgtMS4zMTkgMS4yNjYtLjI5MyAyLjUyNi0uNjI2IDMuNzYxLTEuMDI5IDEuMjIyLS40IDEuOTkzLTEuMzkxIDIuNzU0LTIuMzYzbDEuMjA2LTEuNTUxYy0uNTAzLS4wNTMtLjk3Ny0uMTA3LTEuNDUxLS4xNTEtMS40MzktLjEzNi0yLjgxMi0uNTMyLTQuMTI1LTEuMTE0LTEuMTI0LS40OTctMS4xNDEtLjU1MS0xLjk2NS4zNDMtMS4zNzYgMS40OTQtMi43MTQgMy4wMjMtNC4wNjIgNC41NDItLjk5MiAxLjExNy0xLjk3OCAyLjI0MS0yLjk2NSAzLjM2MS0uOTc4IDEuMTA4LTEuODk0IDIuMjc5LTIuOTQ3IDMuMzEtMS41NjQgMS41MzEtMy40NDkgMi40NTItNS42OTggMi4zNDgtMS40NDMtLjA2Ni0yLjc2NC0uNTcyLTMuOTUyLTEuMzk5LTIuNDUyLTEuNzA4LTQuMTA0LTQuMDk3LTUuNjA4LTYuNjA2LTEuOTI3LTMuMjE1LTMuNDA2LTYuNjQtNC42NzItMTAuMTU5LS44NzYtMi40MzItMS43NTYtNC44NjYtMi41MjEtNy4zMzMtLjgzMS0yLjY4MS0xLjU2LTUuMzk2LTIuMjc3LTguMTEtLjU0Mi0yLjA0OC0xLjAyMy00LjExMy0xLjQ4Mi02LjE4Mi0uNTIxLTIuMzUzLTEuMDIyLTQuNzEtMS40NjQtNy4wNzktLjI5OC0xLjU5OS0uNDcxLTMuMjIxLS43MTItNC44MzEtLjMyNS0yLjE3LS4zODUtNC4zNi0uMjY3LTYuNTM5LjEwNS0xLjk2My4zODctMy45MjEuNjY3LTUuODcxLjM4OC0yLjY5OCAxLjI3Ny01LjI0NCAyLjU1Ni03LjY0OC43ODMtMS40NzMgMS43NTUtMi44MTIgMi44NzktNC4wNTYgMS44NDUtMi4wNDIgNC4wNzgtMy41MTggNi41NjItNC42MjYgMS43MzYtLjc3NCAzLjU3LTEuMjQgNS40MzktMS42MDQgMi43NzQtLjU0IDUuNTczLS41MTkgOC4zNzMtLjQ2MSAxLjIyNC4wMjUgMi40NDMuMjQ4IDMuNjY2LjM2OSAyLjYzMy4yNjIgNS4yMTQuODE2IDcuNzYyIDEuNSAxLjg1Ny40OTggMy42NzYgMS4xNDMgNS41MTggMS43MDMuMTg1LjA1Ni40NTYuMDUxLjYwNy0uMDQ4IDIuNDk2LTEuNjI5IDUuMjI0LTIuNzA0IDguMTI1LTMuMzE5IDEuMTAxLS4yMzMgMi4yMzctLjMzNSAzLjM2My0uNDA3IDEuMzY5LS4wODcgMi43NDktLjE2NyA0LjExNS0uMDg4IDEuNjQyLjA5NCAzLjI3Ni4zMzYgNC45MDguNTYuNzkyLjEwOCAxLjU2NS4zODMgMi4zNTkuNDU4LjM4LjAzNi43ODMtLjI0MiAxLjE4NS0uMzM1IDIuMDQ5LS40NzMgNC4wODktMSA2LjE1Ni0xLjM3NCAxLjUzOS0uMjc4IDMuMTExLS40MDkgNC42NzYtLjQ5OSAxLjc0NS0uMSAzLjUwMy0uMTczIDUuMjQ3LS4wODkgMi4yMDUuMTA2IDQuMzk0LjQyIDYuNTU1LjkyMyAyLjY3Ny42MjMgNS4yNDUgMS41MjggNy42ODYgMi43ODQgMS44MjQuOTM4IDMuNTU4IDIuMDI2IDUuMTE5IDMuMzY0IDEuMDIzLjg3OCAyLjA3IDEuNzQ1IDIuOTk0IDIuNzIzIDEuMTQgMS4yMDYgMi4zMDMgMi40MTMgMy4wMTggMy45NTguNTM4IDEuMTY1LjkyMiAyLjM3MSAxLjAyOCAzLjY0Ny4xMzIgMS41ODYuMjkyIDMuMTc4LjI3NyA0Ljc2Ni0uMDE0IDEuNTE5LS4yMjEgMy4wMzctLjM2OCA0LjU1Mi0uMzM0IDMuNDU0LTEuMDg1IDYuODMzLTEuOTk3IDEwLjE2Ny0uNzU0IDIuNzU0LTEuNjM1IDUuNDc4LTIuNTg5IDguMTctLjg3OSAyLjQ4MS0xLjg5MyA0LjkxNy0yLjkxOCA3LjM0My0uNzU3IDEuNzk0LTEuNTcyIDMuNTY5LTIuNDU4IDUuMzAzLTEuNjc3IDMuMjg2LTMuNDIxIDYuNTM4LTUuNDM4IDkuNjMzLS4zNDguNTM1LS42NzggMS4wODMtMS4wMTggMS42MjkuODguNTk0IDEuODc3LjgwMyAyLjg4MS45MTEuOTU1LjEwNCAxLjkyOS4xNjYgMi44ODMuMDk1IDEuNTI3LS4xMTMgMy4wNDktLjMzMSA0LjU2Ny0uNTQ0IDEuNTA0LS4yMSAyLjk3OC0uNjM4IDQuNTIyLS41MjUgMS41NDIuMTEyIDIuNjQ1IDEuMjg0IDIuNTQgMi43Mjl6TTk3LjgzMyA3NC40MTNjLS42NTUtLjg0Ni0xLjMyMy0xLjY4Mi0xLjk2NC0yLjUzOC0xLjAwNi0xLjM0NC0xLjcyOS0yLjg0NS0yLjQ1NS00LjM1My0uNjg4LTEuNDI5LTEuNTMyLTIuNzgyLTIuMjU3LTQuMTk1LTEuMjY1LTIuNDY1LTIuNTUzLTQuOTIyLTMuNzE4LTcuNDM1LTEuNDY1LTMuMTU3LTIuNjItNi40MjYtMi45ODQtOS45MjMtLjE1NC0xLjQ4LS4xOTMtMi45NTguMTA2LTQuNDI0LjQ3OS0yLjM0MSAxLjcwMi00LjE3MiAzLjc1OC01LjQyOCAxLjkwNy0xLjE2NSA0LjAzMi0xLjU0MSA2LjIwOS0xLjY1OSAxLjM1MS0uMDczIDIuNzA4LS4wMTMgNC4xMS0uMDEzbC0uMDQ3LS4yMzdjLS44NzItMS44MjMtMS42ODctMy42NzctMi42NDEtNS40NTctMS4zNDYtMi41MTItMy4wNjgtNC43NzctNC45ODYtNi44NzctMS40MjEtMS41NTUtMi45Ni0yLjk5OC00LjY0Ni00LjI3My0xLjY1OC0xLjI1NS0zLjQwNS0yLjM3Ni01LjI2OS0zLjI5My0yLjIyMy0xLjA5My00LjUzOC0xLjkzOC02Ljk2Ny0yLjQ3Ny0yLjMzNC0uNTE4LTQuNjgzLS44MzUtNy4wNzctLjg2MS0yLjA0Mi0uMDIyLTQuMDcxLjA3LTYuMDYuNTMxLTMuMDAyLjY5NS01Ljc0OCAxLjkzMS04LjEzNyAzLjkzMy0xLjMzNCAxLjExOC0yLjQ5OCAyLjM3My0zLjUxNyAzLjc3LTEuMTk2IDEuNjQzLTIuMTYxIDMuNDE3LTIuOTg2IDUuMjc3LTEuMTMyIDIuNTUyLTEuOTA5IDUuMjA4LTIuNDQgNy45MzgtLjI2NiAxLjM2MS0uNDc0IDIuNzM0LS42ODYgNC4xMDYtLjA3NC40OC0uMDguOTcxLS4xMjMgMS41MjEuMzY5LS4xOTIuNjM1LS4zNC45MDctLjQ3MmwuODg1LS4zOTdjMi45OTMtMS4zNjkgNi4wOTQtMi4yNSA5LjQyNy0yLjE0OSAxLjQxNi4wNDMgMi43NzEuMzIzIDQuMDMuOTQzIDIuNDE1IDEuMTkxIDMuODI4IDMuMjE2IDQuNDQyIDUuNzc5LjQyNCAxLjc2OS43MTQgMy41NzMuOTk2IDUuMzcyLjIyMSAxLjQwNS40NDcgMi44MjUuNDczIDQuMjQyLjAzNyAyLjA3MS0uMDY4IDQuMTQ2LS4xODEgNi4yMTYtLjA5NiAxLjc2NC0uNDY0IDMuNS0xLjA4IDUuMTQ2LTEuMTIgMi45OTMtMi4zNjggNS45MzctMy41MzQgOC45MTMtLjM4NS45ODMtLjY4MSAyLjAwMS0xLjA0NSAzLjA4Mi41NjIgMCAxLjAxOC0uMDA0IDEuNDc0LjAwMi4xNzguMDAzLjM2LjAwOC41MzIuMDQ5IDEuMzQuMzE2IDIuNTAyLjkyMyAzLjQ1NSAxLjk1NCAxLjI3MSAxLjM3MiAxLjkzOCAyLjk3MyAxLjk3MiA0LjgyNi4wMTkgMS4wMjctLjA4OSAyLjA1Ny0uMDg0IDMuMDg0LjAyMSA0Ljc4Ni4wNTcgOS41NzIuMDk3IDE0LjM1Ny4wMDcuNzgyLjA0NiAxLjU2NS4xMDIgMi4zNDYuMTE3IDEuNjM1LjIzNSAzLjI3MS4zOTUgNC45MDIuMTEyIDEuMTU3LjI2OCAyLjMxMi40NTEgMy40NjEuMjU5IDEuNjI4IDEgMy4wNzcgMS44NDEgNC40NjIuNzI0IDEuMTkxIDEuNjY1IDIuMjAzIDIuOTA1IDIuOTAxIDIuMTA3IDEuMTg2IDQuMzc2IDEuMjg1IDYuNjYzLjg0OCAxLjU0NS0uMjk1IDMuMDYyLS43NjkgNC41NjItMS4yNTggMS40NzktLjQ4MSAyLjgxNS0xLjI2OSAzLjkzNy0yLjM1NCAxLjA1MS0xLjAxOSAxLjc5Ny0yLjI2MSAyLjMtMy42MzIuOTc2LTIuNjU5IDEuMjgtNS40NTkgMS42ODQtOC4yMzcuMTUxLTEuMDQuMjgyLTIuMDgzLjQyLTMuMTI1LjE1Ny0xLjE4Ni4zMTYtMi4zNzEuNDY4LTMuNTU2LjExMi0uODgzLjIxNC0xLjc2OC4zMjItMi42NTEuMTU0LTEuMjY4LjMxNy0yLjUzNS40NjQtMy44MDQuMTEzLS45ODEuMjA5LTEuOTY2LjMwOS0yLjk0OS4xMjktMS4yNTYuMjY4LTIuNTEyLjM3OS0zLjc3LjA4Ni0uOTU1LjA1MS0xLjkyNy4yMi0yLjg2NC4zMTEtMS43MTggMS4xMjMtMy4xOCAyLjY0Ni00LjEyNS42MzctLjM5NSAxLjM1Ni0uNjU1IDIuMDYzLS45ODlsLS4xMi0uMTg2ek00MC4yMzYgNjcuMzYxYy0uNzYxLTEuODAyLTEuMjE4LTMuNjgtMS4zNTQtNS42MjItLjEyOC0xLjgyNS4wODktMy42NDMuMjc2LTUuNDYuMTgyLTEuNzYuMzMzLTMuNTI4LjM4Ni01LjI5Ni4wODgtMi45MDYtLjEwOC01LjgwOC0uMjQ3LTguNzEyLS4wODQtMS43MjkuMTE3LTMuNDc5LjI3MS01LjIxMi4xMzktMS41NjEuMzEyLTMuMTI2LjYwNy00LjY2NC40OTUtMi41ODEgMS4xNTItNS4xMjUgMi4wODYtNy41OTEuODg3LTIuMzM4IDEuOTA2LTQuNjE1IDMuMzQ1LTYuNjY1Ljk4Ni0xLjQwNiAyLjEwNS0yLjcyIDMuMTgtNC4wOTRsLS4zMTktLjExM2MtMy40OTgtMS4xMTEtNy4wNTMtMS45NzktMTAuNzA5LTIuMzU4LTEuNzI5LS4xNzktMy40NjQtLjI4NC01LjE5OC0uMzg3LS41MzItLjAzMi0xLjA3Mi4wNC0xLjYwNi4wOTEtMS4zMjIuMTI2LTIuNjYuMTc2LTMuOTYxLjQyNC0yLjIxNC40MjEtNC4zMzggMS4xMjktNi4zMDUgMi4yODItMS43NjYgMS4wMzUtMy4yNDkgMi4zNzMtNC40OTEgMy45NzgtMS4zNzIgMS43NzItMi4yOTUgMy43NzYtMi45NTggNS45MTMtLjc4MyAyLjUyMS0xLjE1NiA1LjExNS0xLjI1NyA3LjczMy0uMDg4IDIuMjk1LS4xMzIgNC42MDMuMjY0IDYuODg5LjI5NSAxLjcwMi40OTIgMy40MjIuODE3IDUuMTE3LjQ0MyAyLjMxMS45MTggNC42MTcgMS40NjcgNi45MDQuNzg1IDMuMjc0IDEuNTY5IDYuNTUzIDIuNDk5IDkuNzg3Ljg5IDMuMDk5IDEuODk0IDYuMTcgMi45ODIgOS4yMDQuODkgMi40NzYgMS45MTkgNC45MDYgMy4wMDMgNy4zMDQuNzA2IDEuNTYyIDEuNTYxIDMuMDY1IDIuNDU3IDQuNTI4Ljk1MyAxLjU1MyAyLjAzNyAzLjAyNyAzLjUwOCA0LjE1NCAxLjg1NiAxLjQyMyAzLjI5MyAxLjY0NCA1LjE3OS4wODMuODA4LS42NjkgMS40OTEtMS40OTUgMi4xOTQtMi4yODIgMS4xMTctMS4yNSAyLjE5NS0yLjUzNCAzLjMwNy0zLjc4OCAxLjQxNi0xLjU5OCAyLjg1LTMuMTc5IDQuMjczLTQuNzY5LjMwMS0uMzM2LjU5LS42ODIuODgzLTEuMDIybC0uNDg0LS40MjVjLTEuNzY5LTEuNjk5LTMuMTM5LTMuNjY5LTQuMDk1LTUuOTMxek05My45MjQgMTkuNzkyYzEuMTU2IDEuMzU2IDIuMjc1IDIuNzUyIDMuMzA5IDQuMjA0IDIgMi44MDkgMy41OTggNS44NDIgNC43NzUgOS4wODcuNTIxIDEuNDMuOTM3IDIuODc0Ljc1MSA0LjQzOS0uMTI5IDEuMDk2LS4xMTggMi4yMDgtLjIxNSAzLjMxLS4wODEuOTE3LS4yMjYgMS44MjktLjM0NSAyLjc0My0uMTc4IDEuMzc4LS40MzYgMi43NTItLjUxMyA0LjEzNi0uMDczIDEuMzE3LjAwMyAyLjY0OC4wODYgMy45NjguMDg0IDEuMzQxLjI2NSAyLjY3Ni4zODggNC4wMTUuMTM5IDEuNTE4LjMyNiAzLjAzNi4zNjkgNC41NTcuMDM1IDEuMjQ5LS4wNzYgMi41MDYtLjE4NSAzLjc1My0uMTMgMS41MDItLjUxMSAyLjk1Ni0xLjA3OSA0LjM1MS0uMzk5Ljk4Mi0uODc2IDEuOTM0LTEuMzI3IDIuOTE3bC4xODEuMTkyLjI3NS4yMTMuMjc3LS40OTZjMi4zMzktMy42ODggNC40Mi03LjUxOCA2LjIyMi0xMS40OTMgMS4xNTktMi41NiAyLjI0NS01LjE1NiAzLjI4Ny03Ljc2NiAxLjYyNC00LjA2NCAyLjkwOS04LjI0MiAzLjkwMy0xMi41MDMuNDQ2LTEuOTEzLjc4Ny0zLjg1NSAxLjA5LTUuNzk3LjIzNi0xLjUxOC40MzMtMy4wNTQuNDc3LTQuNTg2LjA0Ny0xLjYyNS0uMDQzLTMuMjYzLS4xOTMtNC44ODQtLjExMi0xLjIyNC0uNDE0LTIuNDU2LTEuMTgxLTMuNDUxLTEuMjMzLTEuNjAyLTIuNTY0LTMuMTM0LTQuMjAxLTQuMzQ2LTEuMzc4LTEuMDIxLTIuNzUxLTIuMDY4LTQuMjMtMi45MjctMi4zNDUtMS4zNi00Ljg4My0yLjI2Ni03LjUzNS0yLjg4My0yLjU4OC0uNjAzLTUuMjEtLjg2My03Ljg0OS0uOTE4LTEuNTU2LS4wMzMtMy4xMTkuMTM0LTQuNjcyLjI4LTEuNDA3LjEzMi0yLjgwNS4zNTctNC4yMjIuNTQzIDEuNTIuODU1IDMuMDE5IDEuNjE1IDQuNDMzIDIuNTExIDIuOTczIDEuODgzIDUuNjM3IDQuMTQ5IDcuOTI0IDYuODMxek01NS4yOTkgNzIuNTE0Yy45NjEtMy4wNzMgMi4yNy02LjAwNyAzLjUzOC04Ljk1OSAxLjAyOC0yLjM5NCAxLjU5LTQuOTE2IDEuNzc3LTcuNTA2LjA5My0xLjI3Ny4wNjctMi41Ny4wMDQtMy44NTEtLjA3MS0xLjQyMy0uMTg1LTIuODUtLjM5Mi00LjI1OS0uMjY2LTEuODAxLS41NjktMy42MDMtLjk5NS01LjM3MS0uNDYyLTEuOTEzLTEuNjI3LTMuMjQ1LTMuNjIzLTMuNzM2LTEuMjE2LS4yOTktMi40MjQtLjI4Ny0zLjY1My0uMDkzLTMuMDAyLjQ3My01Ljc1IDEuNTc5LTguMzEgMy4xOTktLjUxNS4zMjYtLjc5OC41ODktLjcwOSAxLjMyOC4xODggMS41NjUuMjI5IDMuMTU1LjIyMiA0LjczNS0uMDEgMi4yMzYtLjEwNSA0LjQ3Mi0uMTkgNi43MDctLjAyOC43MjgtLjEzMyAxLjQ1Mi0uMjExIDIuMTc3LS4xMiAxLjExLS4zNTEgMi4yMTktLjM0NCAzLjMyNy4wMDcgMS4xNDIuMTI0IDIuMzExLjQwMSAzLjQxNy44OCAzLjUwNyAyLjc0NCA2LjM3NyA1Ljc5OSA4LjQwMiAxLjg3OSAxLjI0NSAzLjk1OCAxLjg3MyA2LjI0IDEuOTkyLjE1NS0uNTI0LjI5My0xLjAxOS40NDYtMS41MDl6bS0zLjU4Ni0zMC4wODdjLS40MDItLjg0NC0uMTcyLTEuNTQzLjc2LTEuODY3LjIyNy0uMDguNDYxLS4xNjUuNjk3LS4xODguMzI0LS4wMzIuNjU0LS4wMDguOTgyLS4wMDggMS4xODIuMDA2IDIuMzE5LjE3MSAzLjI5NS45MjMuNjI2LjQ4Mi43OTQgMS4xMjIuMzg5IDEuNzc5LS41NzUuOTMyLTEuNDUyIDEuNC0yLjUyOSAxLjQ5LTEuNjk3LjE0MS0yLjg4OC0uNjUtMy41OTQtMi4xMjl6TTk4Ljc1MyA0Mi4xMTljLjEzNi0xLjEyNC4yNDUtMi4yNTEuMzg0LTMuMzc1LjA1Ni0uNDUyLS4xODItLjU3NC0uNTYxLS41ODUtMS4xOTItLjAzMy0yLjM4NC0uMDc1LTMuNTc2LS4wOTctMS4zNDQtLjAyNC0yLjY1Mi4xOTItMy44OTYuNzAzLTEuMzguNTY4LTIuNDMxIDEuNDc4LTIuODYgMi45OC0uMzIgMS4xMi0uNDA2IDIuMjM5LS4yOTMgMy40MS4xNzIgMS43ODUuNTY4IDMuNTE3IDEuMTkzIDUuMTc2LjgzNCAyLjIyMSAxLjcwNyA0LjQ0MSAyLjc1IDYuNTY5IDEuNDEzIDIuODgxIDMuMDEyIDUuNjcgNC41MTMgOC41MDcuNDAxLjc1Ny43MzggMS41NDcgMS4xNTYgMi40MzEuODc1LTEuODUzIDEuMzAyLTMuNzA4IDEuMzUxLTUuNjIyLjA0MS0xLjYxLS4wODgtMy4yMjctLjE4Mi00LjgzOC0uMDU5LS45ODYtLjE5OC0xLjk2Ni0uMjk0LTIuOTUtLjEzNC0xLjM3MS0uMzM3LTIuNzQxLS4zNjgtNC4xMTUtLjAzMS0xLjM5Ny4wNjgtMi44MDIuMTg4LTQuMTk3LjExMy0xLjMzOC4zMzQtMi42NjUuNDk1LTMuOTk3em0tMi42ODktMS4wODJjLS40NDMgMS4yMjMtMS4zOSAxLjkxMy0yLjYxOCAyLjExNi0xLjE0NS4xODgtMi4xNDgtLjIzNS0yLjg5NC0xLjE0OC0uNTMxLS42NS0uMzI4LTEuNDIuNDY4LTEuODU5LjkxNC0uNTA2IDEuOTE5LS42MzQgMy4xMDQtLjcxMS4zMjIuMDU5LjgwNy4xMDggMS4yNjguMjQuNjY5LjE4OS45MTYuNjkyLjY3MiAxLjM2MnpNNjAuNjQyIDc4LjY5N2MtLjY1NS0uNTM1LTEuNTIxLS41NjYtMi4xNDQuMDIxLS43NzMuNzMtMS40NTMgMS41NjUtMi4xMzMgMi4zODgtLjc4NS45NTEtMS41MjEgMS45NC0yLjUzNCAyLjY3Ny0xLjQ3NCAxLjA3MS0zLjE5MiAxLjUxNS00LjkxOSAxLjkzNS0xLjM3My4zMzQtMi43NTIuNjQ0LTQuMTI5Ljk2NWwtLjAxNy4xNzhjLjQwOS4xODkuODA1LjQyNSAxLjIzMS41NiAyLjEuNjY1IDQuMjM2Ljk5NiA2LjQ1NS44MDggMS42MDItLjEzNiAzLjEyOC0uNDg1IDQuNTc0LTEuMTcxIDEuOTktLjk0MyAzLjUyMS0yLjQzNyA0LjgyMy00LjE3NS4yMTgtLjI5LjMxNy0uNzE5LjM0My0xLjA5My4wODktMS4zMjEtLjU4Mi0yLjMwMy0xLjU1LTMuMDkzek0xMTIuMzkzIDc5LjIyM2MtMS42OS4xODEtMy4zODIuMzczLTUuMDc3LjQ3LS44MTguMDQ3LTEuNjQ4LS4xMDktMi40NzQtLjE3Ni0xLjM4NS0uMTEyLTIuNzM3LS40Mi0zLjkwOC0xLjE2LS42NzgtLjQyNy0xLjI0MS0uNDc1LTEuOTYxLS4yMzMtMS4wMjguMzQ2LTEuODY3Ljg3Mi0yLjExNSAxLjk4Ni0uMTY5Ljc1My0uMjMgMS41MzMtLjI5OCAyLjMwNC0uMDEzLjEzNi4xNTcuMzg2LjI4Ny40Mi43OTMuMjA5IDEuNTkuNDU2IDIuNDAxLjUyOS45OTYuMDkgMi4wMS4wNjEgMy4wMTMuMDExIDEuMDgzLS4wNTQgMi4xNzMtLjEyNCAzLjI0LS4zMDQgMi41MTUtLjQyMiA0Ljk0OC0xLjExIDcuMTA5LTIuNTM2Ljc3OS0uNTE1IDEuNTUxLTEuMDQxIDIuMzI1LTEuNTYybC0uMDY0LS4xMWMtLjgyNi4xMjMtMS42NDguMjczLTIuNDc4LjM2MXoiIGZpbGw9IiMzMzY3OTEiIGNsaXAtcnVsZT0iZXZlbm9kZCIgZmlsbC1ydWxlPSJldmVub2RkIi8+PC9zdmc+;" vertex="1" parent="f2ak9kAQmxtRjergjKL7-24">
          <mxGeometry x="25" width="70" height="70" as="geometry" />
        </mxCell>
        <mxCell id="f2ak9kAQmxtRjergjKL7-26" value="Database Storage" style="text;whiteSpace=wrap;html=1;align=center;verticalAlign=middle;" vertex="1" parent="f2ak9kAQmxtRjergjKL7-24">
          <mxGeometry y="75" width="120" height="20" as="geometry" />
        </mxCell>
        <mxCell id="f2ak9kAQmxtRjergjKL7-27" value="" style="group" vertex="1" connectable="0" parent="f2ak9kAQmxtRjergjKL7-1">
          <mxGeometry x="320" y="22.5" width="120" height="95" as="geometry" />
        </mxCell>
        <mxCell id="f2ak9kAQmxtRjergjKL7-28" value="Webproxy" style="text;whiteSpace=wrap;html=1;align=center;verticalAlign=middle;" vertex="1" parent="f2ak9kAQmxtRjergjKL7-27">
          <mxGeometry y="75" width="120" height="20" as="geometry" />
        </mxCell>
        <mxCell id="f2ak9kAQmxtRjergjKL7-29" value="" style="shape=image;verticalLabelPosition=bottom;labelBackgroundColor=default;verticalAlign=top;aspect=fixed;imageAspect=0;image=data:image/svg+xml,PHN2ZyB2aWV3Qm94PSIwIDAgMzIgMzIiIHhtbG5zPSJodHRwOi8vd3d3LnczLm9yZy8yMDAwL3N2ZyI+PHRpdGxlPmZpbGVfdHlwZV9uZ2lueDwvdGl0bGU+PHBhdGggc3R5bGU9ImZpbGw6IzAxOTYzOSIgZD0iTTE1Ljk0OCwyaC4wNjVhMTAuNDE4LDEwLjQxOCwwLDAsMSwuOTcyLjUyOFEyMi40MTQsNS42NSwyNy44NDMsOC43NzRhLjc5Mi43OTIsMCwwLDEsLjQxNC43ODhjLS4wMDgsNC4zODksMCw4Ljc3Ny0uMDA1LDEzLjE2NGEuODEzLjgxMywwLDAsMS0uMzU2LjUwN3EtNS43NzMsMy4zMjQtMTEuNTQ3LDYuNjQ0YS41ODcuNTg3LDAsMCwxLS42NTcuMDM3UTkuOTEyLDI2LjYsNC4xNDMsMjMuMjc0YS43LjcsMCwwLDEtLjQtLjY2NnEwLTYuNTgyLDAtMTMuMTYzYS42OTMuNjkzLDAsMCwxLC4zODctLjY3UTkuNTUyLDUuNjU3LDE0Ljk3NCwyLjUzNWMuMzIyLS4xODQuNjM4LS4zNzkuOTc0LS41MzUiLz48cGF0aCBzdHlsZT0iZmlsbDojZmZmIiBkPSJNOC43NjcsMTAuNTM4cTAsNS40MjksMCwxMC44NTlhMS41MDksMS41MDksMCwwLDAsLjQyNywxLjA4NywxLjY0NywxLjY0NywwLDAsMCwyLjA2LjIwNiwxLjU2NCwxLjU2NCwwLDAsMCwuNjg1LTEuMjkzYzAtMi42Mi0uMDA1LTUuMjQsMC03Ljg2cTMuNTgzLDQuMjksNy4xODEsOC41NjhhMi44MzMsMi44MzMsMCwwLDAsMi42Ljc4MiwxLjU2MSwxLjU2MSwwLDAsMCwxLjI1MS0xLjM3MXEuMDA4LTUuNTQxLDAtMTEuMDgxYTEuNTgyLDEuNTgyLDAsMCwwLTMuMTUyLDBjMCwyLjY2Mi0uMDE2LDUuMzIxLDAsNy45ODItMi4zNDYtMi43NjYtNC42NjMtNS41NTYtNy04LjMzMkEyLjgxNywyLjgxNywwLDAsMCwxMC4xNyw5LjAzMywxLjU3OSwxLjU3OSwwLDAsMCw4Ljc2NywxMC41MzhaIi8+PC9zdmc+;" vertex="1" parent="f2ak9kAQmxtRjergjKL7-27">
          <mxGeometry x="25" width="70" height="70" as="geometry" />
        </mxCell>
        <mxCell id="f2ak9kAQmxtRjergjKL7-30" value="" style="group" vertex="1" connectable="0" parent="f2ak9kAQmxtRjergjKL7-1">
          <mxGeometry x="180" y="22.5" width="120" height="95" as="geometry" />
        </mxCell>
        <mxCell id="f2ak9kAQmxtRjergjKL7-31" value="" style="shape=image;verticalLabelPosition=bottom;labelBackgroundColor=default;verticalAlign=top;aspect=fixed;imageAspect=0;image=data:image/svg+xml,PHN2ZyB2aWV3Qm94PSIwIDAgMzIgMzIiIGhlaWdodD0iNjQiIHdpZHRoPSI2NCIgeG1sbnM9Imh0dHA6Ly93d3cudzMub3JnLzIwMDAvc3ZnIj48cGF0aCBmaWxsPSIjZTIzMjM3IiBkPSJNMSA1LjNMMTUuODkyIDBsMTUuMjg0IDUuMjE4LTIuNDcgMTkuNjk0TDE1Ljg5MiAzMiAzLjI4NiAyNS4wMDQgMSA1LjN6Ii8+PHBhdGggZmlsbD0iI2I1MmUzMSIgZD0iTTMxLjE3NiA1LjIxOEwxNS44OTIgMHYzMmwxMi44MTQtNy4wODggMi40Ny0xOS42OTR6Ii8+PHBhdGggZmlsbD0iI2ZmZiIgZD0iTTE1LjkxNSAzLjc0bC05LjI4IDIwLjY0IDMuNDYzLS4wNyAxLjg3LTQuNjY0aDguM2wyLjAzMiA0LjcgMy4zMDIuMDdMMTUuOTE1IDMuNzR6bS4wMjMgNi42MjZsMy4xNCA2LjU1N0gxMy4ybDIuNzQ3LTYuNTU3eiIvPjwvc3ZnPg==;" vertex="1" parent="f2ak9kAQmxtRjergjKL7-30">
          <mxGeometry x="25" width="70" height="70" as="geometry" />
        </mxCell>
        <mxCell id="f2ak9kAQmxtRjergjKL7-32" value="Keystone-Web" style="text;whiteSpace=wrap;html=1;align=center;verticalAlign=middle;" vertex="1" parent="f2ak9kAQmxtRjergjKL7-30">
          <mxGeometry y="75" width="120" height="20" as="geometry" />
        </mxCell>
        <mxCell id="f2ak9kAQmxtRjergjKL7-33" value="" style="group" vertex="1" connectable="0" parent="f2ak9kAQmxtRjergjKL7-1">
          <mxGeometry x="510" y="310" width="120" height="95" as="geometry" />
        </mxCell>
        <mxCell id="f2ak9kAQmxtRjergjKL7-34" value="" style="shape=image;verticalLabelPosition=bottom;labelBackgroundColor=default;verticalAlign=top;imageAspect=0;image=data:image/svg+xml,PHN2ZyBoZWlnaHQ9IjU0MCIgd2lkdGg9IjU5MCIgeG1sbnM9Imh0dHA6Ly93d3cudzMub3JnLzIwMDAvc3ZnIiB2aWV3Qm94PSIwIDAgNTkwIDU0MCI+JiN4YTs8cGF0aCBkPSJtIDI3Ni41MTg2OSwxLjM1NTk1IGMgLTEwLjAzNzQ3LDAgLTE4LjE3MTg5LDguMDc2MjMgLTE4LjE3MTg5LDE4LjA0MTg4IGwgMCwwIDAsMzQuNzI2MDQgYyAwLDkuOTU4NjQgOC4xMzQ0MiwxOC4wNDQ1MyAxOC4xNzE4OSwxOC4wNDQ1MyBsIDAsMCAzNi4wOTMzMSwwIGMgMTAuMDM3NDksMCAxOC4xODUxNSwtOC4wODU4OSAxOC4xODUxNSwtMTguMDQ0NTMgbCAwLDAgMCwtMzQuNzI2MDQgYyAwLC05Ljk2NTY1IC04LjE0NzY2LC0xOC4wNDE4OCAtMTguMTg1MTUsLTE4LjA0MTg4IGwgMCwwIC0zNi4wOTMzMSwwIHogbSA4OC43MTU2NSw1NC45NDY0OCBjIC03LjUzOTYsMCAtMTMuNjU0MTQsNi4xNzYyNiAtMTMuNjU0MTQsMTMuNzc0NDIgbCAwLDAgMCwyNi40OTg2NSBjIDAsNy42MDYwNyA2LjExNDU0LDEzLjc3NzkzIDEzLjY1NDE0LDEzLjc3NzkzIGwgMCwwIDI3LjExODAyLDAgYyA3LjU0MDQ4LDAgMTMuNjQ5NywtNi4xNzE4NiAxMy42NDk3LC0xMy43Nzc5MyBsIDAsMCAwLC0yNi40OTg2NSBjIDAsLTcuNTk4MTYgLTYuMTA5MjIsLTEzLjc3NDQyIC0xMy42NDk3LC0xMy43NzQ0MiBsIDAsMCAtMjcuMTE4MDIsMCB6IG0gLTE2OC40NTY4NSwwIGMgLTcuNTM3LDAgLTEzLjY1MjM5LDYuMTc2MjYgLTEzLjY1MjM5LDEzLjc3NDQyIGwgMCwwIDAsMjYuNDk4NjUgYyAwLDcuNjA2MDcgNi4xMTUzOSwxMy43Nzc5MyAxMy42NTIzOSwxMy43Nzc5MyBsIDAsMCAyNy4xMTYxNywwIGMgNy41MzYwNywwIDEzLjY1NDE0LC02LjE3MTg2IDEzLjY1NDE0LC0xMy43Nzc5MyBsIDAsMCAwLC0yNi40OTg2NSBjIDAsLTcuNTk4MTYgLTYuMTE4MDcsLTEzLjc3NDQyIC0xMy42NTQxNCwtMTMuNzc0NDIgbCAwLDAgLTI3LjExNjE3LDAgeiBtIDc5Ljc0MTIsMzAuMzk0NCBjIC0xMC4wMzc0NywwIC0xOC4xNzE4OSw4LjA3MTg0IC0xOC4xNzE4OSwxOC4wNDM2NSBsIDAsMCAwLDM0LjcyMzQxIGMgMCw5Ljk2MzkxIDguMTM0NDIsMTguMDQ3MTYgMTguMTcxODksMTguMDQ3MTYgbCAwLDAgMzYuMDkzMzEsMCBjIDEwLjAzNzQ5LDAgMTguMTg1MTUsLTguMDgzMjUgMTguMTg1MTUsLTE4LjA0NzE2IGwgMCwwIDAsLTM0LjcyMzQxIGMgMCwtOS45NzE4MSAtOC4xNDc2NiwtMTguMDQzNjUgLTE4LjE4NTE1LC0xOC4wNDM2NSBsIDAsMCAtMzYuMDkzMzEsMCB6IG0gMTU4LjQ3NTE5LDE2LjI3OTAxIGMgLTUuNjA3MzIsMCAtMTAuMTUyNTMsNC41ODU2MSAtMTAuMTUyNTMsMTAuMjQ4NjUgbCAwLDAgMCwxOS43MTI1MSBjIDAsNS42NTA3MiA0LjU0NTIxLDEwLjIzOTg0IDEwLjE1MjUzLDEwLjIzOTg0IGwgMCwwIDIwLjE3NDA4LDAgYyA1LjYwMzg0LDAgMTAuMTUyNTQsLTQuNTg5MTIgMTAuMTUyNTQsLTEwLjIzOTg0IGwgMCwwIDAsLTE5LjcxMjUxIGMgMCwtNS42NjMwNCAtNC41NDg3LC0xMC4yNDg2NSAtMTAuMTUyNTQsLTEwLjI0ODY1IGwgMCwwIC0yMC4xNzQwOCwwIHogbSAtMzAwLjE0MDY4LDAgYyAtNS42MDU2MywwIC0xMC4xNTYwNyw0LjU4NTYxIC0xMC4xNTYwNywxMC4yNDg2NSBsIDAsMCAwLDE5LjcxMjUxIGMgMCw1LjY1MDcyIDQuNTUwNDQsMTAuMjM5ODQgMTAuMTU2MDcsMTAuMjM5ODQgbCAwLDAgMjAuMTY3ODMsMCBjIDUuNjEyNywwIDEwLjE1Nzg2LC00LjU4OTEyIDEwLjE1Nzg2LC0xMC4yMzk4NCBsIDAsMCAwLC0xOS43MTI1MSBjIDAsLTUuNjYzMDQgLTQuNTQ1MTYsLTEwLjI0ODY1IC0xMC4xNTc4NiwtMTAuMjQ4NjUgbCAwLDAgLTIwLjE2NzgzLDAgeiBtIDIzMC4zODExNCwyMC43NDY4NyBjIC03LjUzOTYsMCAtMTMuNjU0MTQsNi4xNjY1OCAtMTMuNjU0MTQsMTMuNzY1NjIgbCAwLDAgMCwyNi41MDc0NCBjIDAsNy41OTk5MyA2LjExNDU0LDEzLjc2OTE0IDEzLjY1NDE0LDEzLjc2OTE0IGwgMCwwIDI3LjExODAyLDAgYyA3LjU0MDQ4LDAgMTMuNjQ5NywtNi4xNjkyMSAxMy42NDk3LC0xMy43NjkxNCBsIDAsMCAwLC0yNi41MDc0NCBjIDAsLTcuNTk5MDQgLTYuMTA5MjIsLTEzLjc2NTYyIC0xMy42NDk3LC0xMy43NjU2MiBsIDAsMCAtMjcuMTE4MDIsMCB6IG0gLTE2OC40NTY4NSwwIGMgLTcuNTM3LDAgLTEzLjY1MjM5LDYuMTY2NTggLTEzLjY1MjM5LDEzLjc2NTYyIGwgMCwwIDAsMjYuNTA3NDQgYyAwLDcuNTk5OTMgNi4xMTUzOSwxMy43NjkxNCAxMy42NTIzOSwxMy43NjkxNCBsIDAsMCAyNy4xMTYxNywwIGMgNy41MzYwNywwIDEzLjY1NDE0LC02LjE2OTIxIDEzLjY1NDE0LC0xMy43NjkxNCBsIDAsMCAwLC0yNi41MDc0NCBjIDAsLTcuNTk5MDQgLTYuMTE4MDcsLTEzLjc2NTYyIC0xMy42NTQxNCwtMTMuNzY1NjIgbCAwLDAgLTI3LjExNjE3LDAgeiBtIDIzOC4yMTYzOSwzMy4zOTIgYyAtNS42MDczMiwwIC0xMC4xNTI1Myw0LjU4Mjk4IC0xMC4xNTI1MywxMC4yMzg5OCBsIDAsMCAwLDE5LjcxMzM4IGMgMCw1LjY1MTYyIDQuNTQ1MjEsMTAuMjQxNjIgMTAuMTUyNTMsMTAuMjQxNjIgbCAwLDAgMjAuMTc0MDgsMCBjIDUuNjAzODQsMCAxMC4xNTI1NCwtNC41OSAxMC4xNTI1NCwtMTAuMjQxNjIgbCAwLDAgMCwtMTkuNzEzMzggYyAwLC01LjY1NiAtNC41NDg3LC0xMC4yMzg5OCAtMTAuMTUyNTQsLTEwLjIzODk4IGwgMCwwIC0yMC4xNzQwOCwwIHogbSAtMzAwLjE0MDY4LDAgYyAtNS42MDU2MywwIC0xMC4xNTYwNyw0LjU4Mjk4IC0xMC4xNTYwNywxMC4yMzg5OCBsIDAsMCAwLDE5LjcxMzM4IGMgMCw1LjY1MTYyIDQuNTUwNDQsMTAuMjQxNjIgMTAuMTU2MDcsMTAuMjQxNjIgbCAwLDAgMjAuMTY3ODMsMCBjIDUuNjEyNywwIDEwLjE1Nzg2LC00LjU5IDEwLjE1Nzg2LC0xMC4yNDE2MiBsIDAsMCAwLC0xOS43MTMzOCBjIDAsLTUuNjU2IC00LjU0NTE2LC0xMC4yMzg5OCAtMTAuMTU3ODYsLTEwLjIzODk4IGwgMCwwIC0yMC4xNjc4MywwIHogbSAxNDEuNjY1NDksMTQuMTgwNDMgYyAtMTAuMDM3NDcsMCAtMTguMTcxODksOC4wNzk3MyAtMTguMTcxODksMTguMDQ2MjkgbCAwLDAgMCwzNC43MjYwMyBjIDAsOS45NjQ3OSA4LjEzNDQyLDE4LjAzODM5IDE4LjE3MTg5LDE4LjAzODM5IGwgMCwwIDM2LjA5MzMxLDAgYyAxMC4wMzc0OSwwIDE4LjE4NTE1LC04LjA3MzYgMTguMTg1MTUsLTE4LjAzODM5IGwgMCwwIDAsLTM0LjcyNjAzIGMgMCwtOS45NjY1NiAtOC4xNDc2NiwtMTguMDQ2MjkgLTE4LjE4NTE1LC0xOC4wNDYyOSBsIDAsMCAtMzYuMDkzMzEsMCB6IG0gMjE4LjA5NDU3LDE0LjgzNjAxIGMgLTQuMTY5ODQsMCAtNy41NDMxNCwzLjQwODAxIC03LjU0MzE0LDcuNjA2MDcgbCAwLDAgMCwxNC42MzMgYyAwLDQuMTk4MDYgMy4zNzMzLDcuNTk5OTMgNy41NDMxNCw3LjU5OTkzIGwgMCwwIDE0Ljk3MzkzLDAgYyA0LjE1NzQ3LDAgNy41MjgwNywtMy40MDE4NyA3LjUyODA3LC03LjU5OTkzIGwgMCwwIDAsLTE0LjYzMyBjIDAsLTQuMTk4MDYgLTMuMzcwNiwtNy42MDYwNyAtNy41MjgwNywtNy42MDYwNyBsIDAsMCAtMTQuOTczOTMsMCB6IG0gLTQxNC4xNzU3MzgsMCBjIC00LjE2MzY4OCwwIC03LjUzNjk1LDMuNDA4MDEgLTcuNTM2OTUsNy42MDYwNyBsIDAsMCAwLDE0LjYzMyBjIDAsNC4xOTgwNiAzLjM3MzI2Miw3LjU5OTkzIDcuNTM2OTUsNy41OTk5MyBsIDAsMCAxNC45Njc2OTEsMCBjIDQuMTY2MzYsMCA3LjUzODczNywtMy40MDE4NyA3LjUzODczNywtNy41OTk5MyBsIDAsMCAwLC0xNC42MzMgYyAwLC00LjE5ODA2IC0zLjM3MjM3NywtNy42MDYwNyAtNy41Mzg3MzcsLTcuNjA2MDcgbCAwLDAgLTE0Ljk2NzY5MSwwIHogbSAyODQuNzk2ODE4LDUuMDI0MTQgYyAtNy41Mzk2LDAgLTEzLjY1NDE0LDYuMTYyMTggLTEzLjY1NDE0LDEzLjc2Mjk4IGwgMCwwIDAsMjYuNTAyMTYgYyAwLDcuNjA2MDggNi4xMTQ1NCwxMy43NzM1MyAxMy42NTQxNCwxMy43NzM1MyBsIDAsMCAyNy4xMTgwMiwwIGMgNy41NDA0OCwwIDEzLjY0OTcsLTYuMTY3NDUgMTMuNjQ5NywtMTMuNzczNTMgbCAwLDAgMCwtMjYuNTAyMTYgYyAwLC03LjYwMDggLTYuMTA5MjIsLTEzLjc2Mjk4IC0xMy42NDk3LC0xMy43NjI5OCBsIDAsMCAtMjcuMTE4MDIsMCB6IG0gLTE2OC40NTY4NSwwIGMgLTcuNTM3LDAgLTEzLjY1MjM5LDYuMTYyMTggLTEzLjY1MjM5LDEzLjc2Mjk4IGwgMCwwIDAsMjYuNTAyMTYgYyAwLDcuNjA2MDggNi4xMTUzOSwxMy43NzM1MyAxMy42NTIzOSwxMy43NzM1MyBsIDAsMCAyNy4xMTYxNywwIGMgNy41MzYwNywwIDEzLjY1NDE0LC02LjE2NzQ1IDEzLjY1NDE0LC0xMy43NzM1MyBsIDAsMCAwLC0yNi41MDIxNiBjIDAsLTcuNjAwOCAtNi4xMTgwNywtMTMuNzYyOTggLTEzLjY1NDE0LC0xMy43NjI5OCBsIDAsMCAtMjcuMTE2MTcsMCB6IG0gMjM4LjIxNjM5LDIwLjUwMjU1IGMgLTUuNjA3MzIsMCAtMTAuMTUyNTMsNC41OTUyNyAtMTAuMTUyNTMsMTAuMjU2NTUgbCAwLDAgMCwxOS43MDgxMSBjIDAsNS42NjIxNSA0LjU0NTIxLDEwLjIzOTg1IDEwLjE1MjUzLDEwLjIzOTg1IGwgMCwwIDIwLjE3NDA4LDAgYyA1LjYwMzg0LDAgMTAuMTUyNTQsLTQuNTc3NyAxMC4xNTI1NCwtMTAuMjM5ODUgbCAwLDAgMCwtMTkuNzA4MTEgYyAwLC01LjY2MTI4IC00LjU0ODcsLTEwLjI1NjU1IC0xMC4xNTI1NCwtMTAuMjU2NTUgbCAwLDAgLTIwLjE3NDA4LDAgeiBtIC0zMDAuMTQwNjgsMCBjIC01LjYwNTYzLDAgLTEwLjE1NjA3LDQuNTk1MjcgLTEwLjE1NjA3LDEwLjI1NjU1IGwgMCwwIDAsMTkuNzA4MTEgYyAwLDUuNjYyMTUgNC41NTA0NCwxMC4yMzk4NSAxMC4xNTYwNywxMC4yMzk4NSBsIDAsMCAyMC4xNjc4MywwIGMgNS42MTI3LDAgMTAuMTU3ODYsLTQuNTc3NyAxMC4xNTc4NiwtMTAuMjM5ODUgbCAwLDAgMCwtMTkuNzA4MTEgYyAwLC01LjY2MTI4IC00LjU0NTE2LC0xMC4yNTY1NSAtMTAuMTU3ODYsLTEwLjI1NjU1IGwgMCwwIC0yMC4xNjc4MywwIHogbSAzNTkuNzYwMDYsMTkuMDQxMTEgYyAtNC4xNjk4NCwwIC03LjU0MzE0LDMuNDA0NDkgLTcuNTQzMTQsNy42MDI1NSBsIDAsMCAwLDE0LjYzMzAxIGMgMCw0LjE5MDEzIDMuMzczMyw3LjYwNjA2IDcuNTQzMTQsNy42MDYwNiBsIDAsMCAxNC45NzM5MywwIGMgNC4xNTc0NywwIDcuNTI4MDcsLTMuNDE1OTMgNy41MjgwNywtNy42MDYwNiBsIDAsMCAwLC0xNC42MzMwMSBjIDAsLTQuMTk4MDYgLTMuMzcwNiwtNy42MDI1NSAtNy41MjgwNywtNy42MDI1NSBsIDAsMCAtMTQuOTczOTMsMCB6IG0gLTQxNC4xNzU3MzgsMCBjIC00LjE2MzY4OCwwIC03LjUzNjk1LDMuNDA0NDkgLTcuNTM2OTUsNy42MDI1NSBsIDAsMCAwLDE0LjYzMzAxIGMgMCw0LjE5MDEzIDMuMzczMjYyLDcuNjA2MDYgNy41MzY5NSw3LjYwNjA2IGwgMCwwIDE0Ljk2NzY5MSwwIGMgNC4xNjYzNiwwIDcuNTM4NzM3LC0zLjQxNTkzIDcuNTM4NzM3LC03LjYwNjA2IGwgMCwwIDAsLTE0LjYzMzAxIGMgMCwtNC4xOTgwNiAtMy4zNzIzNzcsLTcuNjAyNTUgLTcuNTM4NzM3LC03LjYwMjU1IGwgMCwwIC0xNC45Njc2OTEsMCB6IG0gNDYzLjYxMDcyOCwxNC42MjE1OCBjIC0zLjE0MzA5LDAgLTUuNjk2NzUsMi41Njc4NiAtNS42OTY3NSw1LjczNjg1IGwgMCwwIDAsMTEuMDM5NTYgYyAwLDMuMTU5MzEgMi41NTM2Niw1LjczMjQ1IDUuNjk2NzUsNS43MzI0NSBsIDAsMCAxMS4yOTQzNiwwIGMgMy4xMzA3OCwwIDUuNjgyNiwtMi41NzMxNCA1LjY4MjYsLTUuNzMyNDUgbCAwLDAgMCwtMTEuMDM5NTYgYyAwLC0zLjE2ODk5IC0yLjU1MTgyLC01LjczNjg1IC01LjY4MjYsLTUuNzM2ODUgbCAwLDAgLTExLjI5NDM2LDAgeiBtIC01MDkuMzY1MzA0LDAgYyAtMy4xNDEzNTYsMCAtNS42OTE0NCwyLjU2Nzg2IC01LjY5MTQ0LDUuNzM2ODUgbCAwLDAgMCwxMS4wMzk1NiBjIDAsMy4xNTkzMSAyLjU1MDA4NCw1LjczMjQ1IDUuNjkxNDQsNS43MzI0NSBsIDAsMCAxMS4yODcyODcsMCBjIDMuMTQyMjQxLDAgNS42ODUyNDIsLTIuNTczMTQgNS42ODUyNDIsLTUuNzMyNDUgbCAwLDAgMCwtMTEuMDM5NTYgYyAwLC0zLjE2ODk5IC0yLjU0MzAwMSwtNS43MzY4NSAtNS42ODUyNDIsLTUuNzM2ODUgbCAwLDAgLTExLjI4NzI4NywwIHoiIGZpbGw9IiM0MkFGRUIiLz4mI3hhOzxwYXRoIGQ9Im0gMTI0LjU3MTgzLDQ3OC4xMjI4IDAsNDkuMjEzOCAzLjk4MjYyLDAgMCwtMTYuODc4NyBjIDIuMzcwNiwxLjcxMDYgMTEuOTgxOTksOC41Nzk3IDE3LjczMjEzLDEyLjYxMTYgNC4zNDI5NSwyLjgzMzQgNC4yMTAyLDMuOTAzIDQuMjY3MDksNC4yNjcxIGwgNS4zMTAxNiwwIGMgMCwtMi41NTY1IC0yLjg5NzgzLC0zLjgzMDkgLTYuMTYzNTgsLTYuMDY4NyAtMS45ODM3MiwtMS4zNjkzIC0xNi42ODkwNiwtMTEuNjYzNCAtMTYuNjg5MDYsLTExLjY2MzQgMCwwIDE0LjMxODQ2LC05LjQ0ODMgMTYuMzA5NzcsLTEwLjgxIDMuMjU4MTYsLTIuMjQxNiA1Ljg3OTEsLTMuNTA4NSA1Ljg3OTEsLTYuMDY4NyBsIC01LjEyMDUxLDAgYyAtMC4wNDU1LDAuMzUyNyAwLjE3ODQyLDEuNDI5OSAtNC4xNzIyNyw0LjI2NyAtNS40MzkxMSwzLjgzNDcgLTE0LjQxMzI4LDEwLjIyOTcgLTE3LjM1MjgzLDEyLjMyNzIgbCAwLC0zMS4xOTcyIC0zLjk4MjYyLDAgeiBtIDM3LjM2MDc1LDAgMCw0OS4yMTM4IDMuOTgyNjIsMCAwLC00OS4yMTM4IC0zLjk4MjYyLDAgeiBtIDExOC45MDk2LDAgMCw0MS4zNDM0IDAsMC4wOTUgMCwwLjQ3NDEgYyAwLjAwMywwLjYxNDQgLTAuMTAyMjYsMS43Mjk2IC0wLjQ3NDEyLDIuNDY1NCAtMC40NDM3OCwwLjczMjEgLTAuNjE4MjUsMS4wODEgLTEuODAxNjYsMS4xMzc5IGwgLTE5LjUzMzc5LDAgYyAtMS4xNzU4MiwtMC4wNTcgLTEuMzU0MDksLTAuNDA1OCAtMS44MDE2NiwtMS4xMzc5IC0wLjI3NzA0LC0wLjU1IC0wLjQyODYxLC0xLjI3ODIgLTAuNDc0MTIsLTEuODk2NSBsIDAsLTIwLjE5NzUgMCwtMC4wOTUgMCwtMC4zNzkzIGMgLTAuMDEyMSwtMC42MzM0IDAuMDk4NiwtMS44MjQ0IDAuNDc0MTIsLTIuNTYwMyAwLjQ0NzU3LC0wLjczNTggMC42MTQ0NiwtMS4wNTgyIDEuODAxNjYsLTEuMTM3OCBsIDE5LjUzMzc5LDAgMCwtMy45ODI3IC0xOS41MzM3OSwwIGMgLTIuNjkzMDEsLTAuMDY4IC00LjY5OTQ5LDEuNzIyIC01LjQwNDk4LDMuNDEzNyAtMC43ODUxNSwxLjY3NjUgLTAuODQyMDQsMy4zMTUxIC0wLjg1MzQyLDQuMjY3MSBsIDAsMC42NjM4IDAsMTguNjgwMyAwLDAuNzU4NiAwLDAuNjYzOCAwLDAuNjYzOCAwLjA5NDcsMCBjIDAuMDkxLDAuODQ1OCAwLjI4MDY4LDEuOTExNiAwLjc1ODU5LDIuOTM5NSAwLjcwNTUsMS42ODAzIDIuNzExOTgsMy4zODcxIDUuNDA0OTksMy4zMTg5IGwgMTkuNTMzNzksMCAwLjE4OTY1LDAgYyAyLjYwNTc3LDAgNC41MDk4NCwtMS42NzI3IDUuMjE1MzMsLTMuMzE4OSAwLjc3NzU2LC0xLjY4MDMgMC44NDk2MywtMy4zMjY0IDAuODUzNDIsLTQuMjY3MSBsIDAsLTAuNzU4NiAwLC00MS4xNTM3IC0zLjk4MjYyLDAgeiBtIC0xNzguNjQ4ODcsMTQuMzE4NSBjIC0yLjE5MTM3LDAuMzE1NiAtMy43Mzc5OSwxLjg0NTIgLTQuMzYxOTE4LDMuMzE4OCAtMC43ODUxNDUsMS42NzY1IC0wLjgzNDQ1NCwzLjMxODkgLTAuODUzNDE4LDQuMjY3MSBsIDAsMC43NTg2IDAsMjYuNTUwOCAzLjk4MjYxNiwwIDAsLTI2Ljc0MDQgMCwtMC4wOTUgMCwtMC40NzQxIGMgLTAuMDA2LC0wLjYzNzIgMC4xMDIyNiwtMS44MjgyIDAuNDc0MTIsLTIuNTYwMyAwLjQzOTk5LC0wLjczNTggMC41MjcyMywtMC45NzEgMS43MDY4NCwtMS4wNDMgbCAxNC43OTI1OCwwIDAsLTMuOTgyNyAtMTQuNzkyNTgsMCBjIC0wLjMzNjYzLC0wLjAxIC0wLjYzNTE5LC0wLjA0NSAtMC45NDgyNCwwIHogbSAyMTYuMzg4OTIsMCBjIC0yLjY4NTQyLC0wLjA2OCAtNC42ODA1MiwxLjcyOTYgLTUuNDA0OTgsMy40MTM3IC0wLjc4MTM1LDEuNjgwMiAtMC44NDIwNCwzLjMyMjYgLTAuODUzNDIsNC4yNjcgbCAwLDAuNjYzOCAwLDI2LjY0NTYgNC4wNzc0NCwwIDAsLTI2LjgzNTIgLTAuMDk0NywtMC4wOTUgMCwtMC4zNzkzIGMgMCwtMC42Mjk2IDAuMTAyMjYsLTEuODE2OCAwLjQ3NDEyLC0yLjU2MDMgMC40MzI0LC0wLjczNTggMC42MjU4NCwtMC45Nzg1IDEuODAxNjYsLTEuMDQzIGwgMTUuMzYxNTMsMCAwLDMwLjkxMjcgMy45ODI2MiwwIDAsLTMwLjkxMjcgMTUuNTUxMTgsMCBjIDEuMTc5NjEsMC4wNjQgMS4yNjY4NSwwLjMwMzQgMS43MDY4MywxLjA0MyAwLjM2NzkyLDAuNzQzNSAwLjQ4NTUsMS45MzA3IDAuNDc0MTIsMi41NjAzIGwgMCwwLjM3OTMgMCwwLjA5NSAwLDI2LjgzNTIgMy45ODI2MiwwIDAsLTI2LjY0NTYgMCwtMC42NjM4IGMgLTAuMDEyMSwtMC45NDQ0IC0wLjA2OCwtMi41OTA2IC0wLjg1MzQyLC00LjI2NyAtMC43MDU0OSwtMS42ODQxIC0yLjYxMzM1LC0zLjQ4MiAtNS4zMTAxNSwtMy40MTM3IGwgLTM0Ljg5NTMzLDAgeiBtIDk1LjU4Mjg0LDAgYyAtMi42OTY4LC0wLjA2NSAtNC42ODgxMSwxLjczMzQgLTUuNDA0OTgsMy40MTM3IC0wLjc4MTM1LDEuNjgwMiAtMC44NDU4MywzLjMyMjYgLTAuODUzNDIsNC4yNjcgbCAwLDAuNjYzOCAwLDI2LjY0NTYgNC4wNzc0NCwwIDAsLTI2LjgzNTIgLTAuMDk0NywtMC4wOTUgMCwtMC4zNzkzIGMgLTAuMDI0MywtMC42Mjk2IDAuMTEzNzksLTEuODE2OCAwLjQ3NDEyLC0yLjU2MDMgMC40NDM3OCwtMC43MzIgMC42MTA2NywtMS4wNjk2IDEuODAxNjYsLTEuMTM3OCBsIDE4Ljg3MDAzLDAuMDk1IGMgMS4xOTA5OSwwLjA2NSAxLjM2OTI2LDAuMzAzNSAxLjgwMTY2LDEuMDQzMSAwLjM3MTcxLDAuNzQzNCAwLjQ4OTI5LDEuOTMwNiAwLjQ3NDEyLDIuNTYwMiBsIDAsMC4zNzkzIDAsMC4wOTUgMCwyNi44MzUzIDMuOTgyNjIsMCAwLC0yNi42NDU2IDAsLTAuNjYzOCBjIC0wLjAxMjEsLTAuOTQ0NSAtMC4wNjgzLC0yLjU5MDYgLTAuODUzNDIsLTQuMjY3MSAtMC43MDE3LC0xLjY4MDMgLTIuNzE5NTYsLTMuNDc4MiAtNS40MDQ5OCwtMy40MTM3IGwgLTE4Ljg3MDAzLDAgeiBtIDE1Ni44MzkzLDAgYyAtMi4xODc2LDAuMzEzIC0zLjc0Nzk0LDEuODQxOSAtNC4zNjE5MiwzLjMxODggLTAuNzk2NTIsMS42NzY1IC0wLjg0MjA0LDMuMzE1MSAtMC44NTM0MSw0LjI2NzEgbCAwLDAuNzU4NiAwLDI2LjU1MDggMy45ODI2MSwwIDAsLTI2Ljc0MDQgMCwtMC4wOTUgMCwtMC40NzQxIGMgLTAuMDE4MiwtMC42NDEgMC4wOTA3LC0xLjgyODIgMC40NzQxMywtMi41NjAzIDAuNDE3MjIsLTAuNzM5NiAwLjYxODI1LC0wLjk3NDggMS44MDE2NiwtMS4wNDMgbCAxNC43OTI1OCwwIDAsLTMuOTgyNyAtMTQuNzkyNTgsMCBjIC0wLjMzNTY3LC0wLjAxIC0wLjczMDU2LC0wLjA0NSAtMS4wNDMwNywwIHogbSAtNTY4LjE4Njg2OTksMC4yODQzIDAsMjYuNTUwOCBjIC0wLjAxMjEzNywwLjEyMTQgMCwwLjQxMzQgMCwwLjc1ODYgMC4wMDYwNywwLjk0MDYgMC4wNjA5OTEsMi41ODY4IDAuODUzNDE4Miw0LjI2NzEgMC42OTc5MDY0LDEuNjQ2MSAyLjYwOTU2MzIsMy4zMTg4IDUuMjE1MzMzNCwzLjMxODggbCAwLjE4OTY0ODUsMCAzNC44MDA0OTY4LDAgYyAyLjY5NjgwMiwwLjA2OCA0LjY5MTkwNCwtMS42Mzg1IDUuNDA0OTgyLC0zLjMxODggMC43ODEzNTIsLTEuNjgwMyAwLjg0NTgzMiwtMy4zMjY1IDAuODUzNDE4LC00LjI2NzEgbCAwLC0wLjc1ODYgMCwtMjYuNTUwOCAtMy45ODI2MTgsMCAwLDI2Ljc0MDQgMCwwLjA5NSAwLDAuNDc0MSBjIDAuMDEyMTQsMC42MTQ1IC0wLjEwOTg0NCwxLjcyOTYgLTAuNDc0MTIxLDIuNDY1NSAtMC40NDM3NzgsMC43MzU4IC0wLjYxNDQ2MSwxLjA4MSAtMS44MDE2NjEsMS4xMzc5IGwgLTE1LjI2NjcwMywwIDAsLTMwLjkxMjcgLTMuOTgyNjE4LDAgMCwzMC45MTI3IC0xNS41NTExNzU4LDAgYyAtMS4xODM0MDY2LC0wLjA1NyAtMS4zNTQwOTAyLC0wLjQwMjEgLTEuODAxNjYwNiwtMS4xMzc5IC0wLjM3MTcxMTEsLTAuNzM1OSAtMC40ODU1MDAyLC0xLjg1MSAtMC40NzQxMjEzLC0yLjQ2NTUgbCAwLC0wLjQ3NDEgMCwtMC4wOTUgMCwtMjYuNzQwNCAtMy45ODI2MTgyLDAgeiBtIDU5LjU0OTYyNDksMCBjIC0yLjE4ODc4NywwLjMwNDEgLTMuNzQxMjk1LDEuODM1MyAtNC4zNjE5MTYsMy4zMTg5IC0wLjc5MjczLDEuNjc2NCAtMC44NDk2MjUsMy4zMjI2IC0wLjg1MzQxOCw0LjI2NyBsIDAsMC42NjM4IDAsMTguMzAxMSAwLDAuNzU4NiBjIDAuMDAzLDAuOTQwNiAwLjA2MDk5LDIuNTg2OCAwLjg1MzQxOCw0LjI2NzEgMC42OTAzMjEsMS42NDYxIDIuNjA1NzcxLDMuMzE4OCA1LjIxNTMzNCwzLjMxODggbCAwLjE4OTY0OCwwIDE5LjcyMzQ0MywwIGMgMi42OTMwMDksMC4wNjggNC42OTE5MDQsLTEuNjM4NSA1LjQwNDk4MiwtMy4zMTg4IDAuNzg4OTM4LC0xLjY4MDMgMC44NDU4MzIsLTMuMzI2NSAwLjg1MzQxOCwtNC4yNjcxIGwgLTAuMDk0NjcsLTAuNjYzOCAwLC0xOC4zOTU5IDAuMDk0NjcsLTAuNjYzOCBjIC0wLjAwNjEsLTAuOTQ0NCAtMC4wNjQ2MywtMi41OTA2IC0wLjg1MzQxOCwtNC4yNjcgLTAuNzEzMDc4LC0xLjY5NTUgLTIuNzExOTczLC0zLjM5NDggLTUuNDA0OTgyLC0zLjMxODkgbCAtMTkuNzIzNDQzLDAgYyAtMC4zMzYxNDgsLTAuMDEgLTAuNzMwMzc0LC0wLjA0MyAtMS4wNDMwNjYsMCB6IG0gMTE2LjA2NDg3NSwwIGMgLTIuMTkwMjQsMC4zMDQxIC0zLjc0MTI5LDEuODM1MyAtNC4zNjE5MiwzLjMxODkgLTAuNzg4OTMsMS42NzY0IC0wLjkzMzA3LDMuMzIyNiAtMC45NDgyNCw0LjI2NyBsIDAuMDk0NywwLjY2MzggMCwxOC4zMDExIC0wLjA5NDcsMC43NTg2IGMgMC4wMTUyLDAuOTQwNiAwLjE1OTMxLDIuNTg2OCAwLjk0ODI0LDQuMjY3MSAwLjcwMTcsMS42NDYxIDIuNTk4MTksMy4zMTg4IDUuMjE1MzQsMy4zMTg4IGwgMC4wOTQ3LDAgMTkuODE4MjcsMCBjIDIuNjc0MDQsMC4wNjggNC41OTcwOCwtMS42Mzg1IDUuMzEwMTYsLTMuMzE4OCAwLjc4NTE0LC0xLjY4MDMgMC44NDIwMywtMy4zMjY1IDAuODUzNDEsLTQuMjY3MSBsIDAsLTAuNjYzOCAwLC0xOC4zOTU5IDAsLTAuNjYzOCBjIC0wLjAxMjEsLTAuOTQ0NCAtMC4wNjgzLC0yLjU5MDYgLTAuODUzNDEsLTQuMjY3IC0wLjcxMzA4LC0xLjY5NTUgLTIuNjM2MTIsLTMuMzk0OCAtNS4zMTAxNiwtMy4zMTg5IGwgLTE5LjgxODI3LDAgYyAtMC4zMzYxNSwtMC4wMSAtMC42MzUzNCwtMC4wNDMgLTAuOTQ4MjQsMCB6IG0gMzQuNTE2MDIsMCAwLDMuOTgyNiAyNi41NTA3OSwwIGMgMS4xODM0MSwwLjA2NSAxLjM2NTQ3LDAuMzA3MyAxLjgwMTY2LDEuMDQzMSAwLjM2NzkyLDAuNzM1OCAwLjQ5MzA5LDEuOTQyIDAuNDc0MTIsMi41NjAyIGwgMCwwLjQ3NDIgMCwwLjA5NSAwLDE4LjU4NTYgMCwwLjA5NSAwLDAuNDc0MSBjIDAuMDEyMSwwLjYxNDQgLTAuMTA2MiwxLjcyOTYgLTAuNDc0MTIsMi40NjU0IC0wLjQzNjE5LDAuNzM1OCAtMC42MTgyNSwxLjA3NzIgLTEuODAxNjYsMS4xMzc5IGwgLTIxLjI0MDYzLDAgYyAtMS4zNDY1LC0wLjA1NyAtMS40NDUxMiwtMC4zNzU1IC0xLjgwMTY2LC0wLjg1MzQgLTAuMzA3MjMsLTAuNTA4MyAtMC40NzQxMiwtMS40MjYyIC0wLjQ3NDEyLC0xLjg5NjUgbCAwLC0wLjI4NDMgMCwtMC4wOTUgMCwtNy4zMDE1IDAsLTAuMDk1IDAsLTAuNDc0MiBjIDAsLTAuNjE4MiAwLjA5ODYsLTEuODIwNiAwLjQ3NDEyLC0yLjU2MDIgMC40MzI0LC0wLjczNTggMC42MTQ0NiwtMC45NzQ4IDEuODAxNjYsLTEuMDQzMSBsIDIxLjI0MDYzLDAgMCwtMy45ODI2IC0yMS4yNDA2MywwIGMgLTIuNjk2OCwtMC4wNjggLTQuNjgwNTIsMS42Mzg2IC01LjQwNDk4LDMuMzE4OSAtMC43ODUxNCwxLjY4NCAtMC44NDU4MywzLjMxODggLTAuODUzNDIsNC4yNjcgbCAwLDAuNzU4NiAwLDYuOTIyMiAwLDAuNTY5IGMgMC4wMDYsMC44NDIgMC4xMDI1NiwyLjM1OTIgMC45NDgyNCwzLjg4NzcgMC44MDQxMSwxLjU1MTQgMi43NzY0NiwyLjkwOTMgNS4zMTAxNiwyLjg0NDggbCAyMS4yNDA2MywwIDAuMTg5NjUsMCBjIDIuNjE3MTUsMCA0LjUyMTIyLC0xLjY3NjUgNS4yMTUzMywtMy4zMTg5IDAuNzg1MTUsLTEuNjg0MSAwLjg0NTg0LC0zLjMyNjQgMC44NTM0MiwtNC4yNjcxIGwgMCwtMC43NTg2IDAsLTE4LjMwMSAwLC0wLjY2MzggYyAtMC4wMDYsLTAuOTQ0NSAtMC4wNjgzLC0yLjU5MDYgLTAuODUzNDIsLTQuMjY3MSAtMC43MTMwNywtMS42OTE3IC0yLjcxNTc2LC0zLjM5MDkgLTUuNDA0OTgsLTMuMzE4OCBsIC0yNi41NTA3OSwwIHogbSAxNTQuNzUzMTcsMCAwLDMuOTgyNiAyNi42NDU2MSwwIGMgMS4xNjgyNCwwLjA2NSAxLjI2Njg1LDAuMzA3MyAxLjcwNjg0LDEuMDQzMSAwLjM3MTcxLDAuNzM1OCAwLjQ3NDEyLDEuOTQ1OCAwLjQ3NDEyLDIuNTYwMiBsIDAsMC40NzQyIDAsMC4wOTUgMCwxOC41ODU2IDAsMC4wOTUgMCwwLjQ3NDEgYyAwLDAuNjE0NCAtMC4xMDIyNiwxLjcyOTYgLTAuNDc0MTIsMi40NjU0IC0wLjQzOTk5LDAuNzM1OCAtMC41Mzg2LDEuMDc3MiAtMS43MDY4NCwxLjEzNzkgbCAtMjEuMzM1NDUsMCBjIC0xLjE4NzIsLTAuMDYxIC0xLjM1Nzg4LC0wLjQwMjEgLTEuODAxNjYsLTEuMTM3OSAtMC4zNjQxMywtMC43Mzk2IC0wLjQ3NDEyLC0xLjg1MSAtMC40NzQxMiwtMi40NjU0IGwgMCwtMC40NzQxIDAsLTAuMDk1IDAsLTYuMjU4NCAwLC0wLjA5NSAwLC0wLjA5NSAwLC0wLjM3OTMgYyAtMC4wMTIxLC0wLjYxODIgMC4xMDk4NCwtMS44MjA2IDAuNDc0MTIsLTIuNTYwMiAwLjQ0Mzc4LC0wLjczNTggMC42MTQ0NiwtMC45NzQ4IDEuODAxNjYsLTEuMDQzMSBsIDIxLjMzNTQ1LDAgMCwtMy45ODI2IC0yMS4zMzU0NSwwIGMgLTIuNjg1NDIsLTAuMDY4IC00LjY5MTkxLDEuNjM4NiAtNS40MDQ5OCwzLjMxODkgLTAuNzczNzcsMS42ODQgLTAuODUzNDIsMy4zMTg4IC0wLjg1MzQyLDQuMjY3IGwgMCwwLjc1ODYgMCw1Ljg3OTEgMCwwLjc1ODYgYyAwLjAwNiwwLjk0MDcgMC4wNzk1LDIuNTgzIDAuODUzNDIsNC4yNjcxIDAuNzEzMDcsMS42NzY1IDIuNzE5NTYsMy4zODcxIDUuNDA0OTgsMy4zMTg5IGwgMjEuMzM1NDUsMCAwLjA5NDcsMCBjIDIuNjA1NzcsMCA0LjUyMTIyLC0xLjY3NjUgNS4yMTUzMywtMy4zMTg5IDAuNzg1MTQsLTEuNjg0MSAwLjg0NTgzLC0zLjMyNjQgMC44NTM0MiwtNC4yNjcxIGwgMCwtMC42NjM3IDAsLTE4LjM5NTkgMCwtMC42NjM4IGMgLTAuMDA2LC0wLjk0ODIgLTAuMDY4MywtMi41ODY4IC0wLjg1MzQyLC00LjI2NzEgLTAuNzAxNywtMS42OTE3IC0yLjYyNDc0LC0zLjM5MDkgLTUuMzEwMTYsLTMuMzE4OCBsIC0yNi42NDU2MSwwIHogbSA3OS45MzY4NCwwIDAsMy45ODI2IDI2LjU1MDc5LDAgYyAxLjE3NTgyLDAuMDY1IDEuMzYxNjcsMC4zMDczIDEuODAxNjYsMS4wNDMxIDAuMzcxNzEsMC43MzU4IDAuNDg1NSwxLjk0NTggMC40NzQxMiwyLjU2MDIgbCAwLDAuNDc0MiAwLDAuMDk1IDAsMTguNTg1NiAwLDAuMDk1IDAsMC40NzQxIGMgMC4wMTIxLDAuNjE0NCAtMC4xMDIyNiwxLjcyOTYgLTAuNDc0MTIsMi40NjU0IC0wLjQzOTk5LDAuNzM1OCAtMC42MjU4NCwxLjA3NzIgLTEuODAxNjYsMS4xMzc5IGwgLTIxLjMzNTQ2LDAgYyAtMS4zMzUxMiwtMC4wNTcgLTEuNDYwMjksLTAuMzc1NSAtMS44MDE2NiwtMC44NTM0IC0wLjMxNDgyLC0wLjUwODMgLTAuMzc5MywtMS40MjYyIC0wLjM3OTMsLTEuODk2NSBsIDAsLTAuMjg0MyAwLC0wLjA5NSAwLC03LjMwMTUgMCwtMC4wOTUgMCwtMC4wOTUgMCwtMC4zNzkzIGMgMCwtMC42MTgzIDAuMDg3NCwtMS44MjA2IDAuNDc0MTMsLTIuNTYwMyAwLjQyODYsLTAuNzM1OCAwLjUxOTYzLC0wLjk3NDggMS43MDY4MywtMS4wNDMgbCAyMS4zMzU0NiwwIDAsLTMuOTgyNiAtMjEuMzM1NDYsMCBjIC0yLjY5NjgsLTAuMDY4IC00LjU5NzA4LDEuNjM4NSAtNS4zMTAxNiwzLjMxODggLTAuNzg1MTQsMS42ODQxIC0wLjg0NTgzLDMuMzE4OSAtMC44NTM0MSw0LjI2NzEgbCAwLDAuNzU4NiAwLDYuOTIyMiAwLDAuNTY4OSBjIDAsMC44NDIgMC4xMDIyNSwyLjM1NTQgMC45NDgyNCwzLjg4NzggMC44MDAzMSwxLjU0MzcgMi43NzY0NSwyLjkwOTIgNS4zMTAxNiwyLjg0NDcgbCAyMS4yNDA2MywwIDAuMTg5NjQsMCBjIDIuNTk0NCwwIDQuNTIxMjIsLTEuNjc2NSA1LjIxNTM0LC0zLjMxODggMC43ODEzNSwtMS42ODQxIDAuODQ1ODMsLTMuMzI2NSAwLjg1MzQyLC00LjI2NzEgbCAwLC0wLjY2MzggMCwtMTguMzk1OSAwLC0wLjY2MzggYyAtMC4wMDksLTAuOTQ4MiAtMC4wNzIyLC0yLjU4NjggLTAuODUzNDIsLTQuMjY3IC0wLjcxNjg3LC0xLjY5MTcgLTIuNzE5NTYsLTMuMzkxIC01LjQwNDk4LC0zLjMxODkgbCAtMjYuNTUwNzksMCB6IG0gNDMuNDI5NSwwIGMgLTIuMTkxMjcsMC4zMTE2IC0zLjc0NDYsMS44Mzg3IC00LjM2MTkxLDMuMzE4OSAtMC40ODE3MSwxLjAzMTYgLTAuNjcxMzYsMS45OTg4IC0wLjc1ODYsMi44NDQ3IGwgLTAuMDk0NywwIDAsMC43NTg2IDAsMC42NjM3IDAsMC42NjM4IDAsMTYuMTIwMSAwLDAuNjYzOCBjIDAuMDE1MiwwLjk0ODIgMC4wNzE5LDIuNDk1OCAwLjg1MzQyLDQuMTcyMyAwLjY5NzksMS42NTM3IDIuNjA5NTYsMy40MTM2IDUuMjE1MzMsMy40MTM2IGwgMC4xODk2NSwwIDIwLjU3Njg2LDAgMCwtMy45ODI2IC0yMC41NzY4NiwwIGMgLTEuMTc1ODIsLTAuMDY1IC0xLjM1Nzg4LC0wLjQwMiAtMS44MDE2NiwtMS4xMzc5IC0wLjM3MTcxLC0wLjczNTggLTAuNDgxNzEsLTEuODMyIC0wLjQ3NDEyLC0yLjQ2NTQgbCAwLC0wLjQ3NDEgMCwtMC4wOTUgMCwtMTcuNDQ3NyBjIDAuMDQ5NSwtMC42MjIgMC4yMTI0LC0xLjQzMzcgMC40NzQxMiwtMS45OTEzIDAuNDQzNzgsLTAuNzMyIDAuNjI1ODQsLTAuOTc0OCAxLjgwMTY2LC0xLjA0MyBsIDIxLjI0MDYzLDAgYyAxLjE4NzIsMC4wNjggMS4zNTc4OCwwLjMxMSAxLjgwMTY2LDEuMDQzIDAuMzcxNzEsMC43NDM1IDAuNDgxNzEsMS45NDIgMC40NzQxMiwyLjU2MDMgbCAwLDAuNDc0MSAwLDAuMDk1IDAsMjkuOTY0NCAwLDAuMDk1IDAsMC40NzQxIGMgMC4wMDYsMC42MjU5IC0wLjEwMjU2LDEuODI0NSAtMC40NzQxMiwyLjU2MDMgLTAuNDQzNzgsMC43MzIgLTAuNjE0NDYsMC45Nzg2IC0xLjgwMTY2LDEuMDQzMSBsIC0xOS4wNTk2NywwIDAsMy45ODI2IDE5LjA1OTY3LDAgMC4xODk2NSwwIGMgMi42MDE5OCwwIDQuNTA5ODQsLTEuNjc2NSA1LjIxNTMzLC0zLjMxODkgMC43ODEzNSwtMS42ODc4IDAuODM4MjUsLTMuMzIyNiAwLjg1MzQyLC00LjI2NzEgbCAwLC0wLjY2MzcgMCwtMjkuNzc0OCAwLC0wLjY2MzggYyAwLC0wLjk0NDUgLTAuMDcyMiwtMi41ODY4IC0wLjg1MzQyLC00LjI2NzEgLTAuNzE2ODcsLTEuNjkxNyAtMi43MTE5NywtMy4zOTA5IC01LjQwNDk4LC0zLjMxODggbCAtMjEuMjQwNjMsMCBjIC0wLjMzNjYzLC0wLjAxIC0wLjczMDA0LC0wLjA0NSAtMS4wNDMwNywwIHogbSA0MC4zMDAzMSwwIGMgLTIuMTg2MDksMC4zMDY2IC0zLjcyODAxLDEuODM4NyAtNC4zNjE5MiwzLjMxODkgLTAuNzczNzcsMS42NzY0IC0wLjg0MjA0LDMuMzIyNiAtMC44NTM0Miw0LjI2NyBsIDAsMC42NjM4IDAsMTguMzAxMSAwLDAuNzU4NiBjIDAsMC45NDA2IDAuMDc5OCwyLjU4MyAwLjg1MzQyLDQuMjY3MSAwLjcxNjg3LDEuNjc2NSAyLjcyMzM1LDMuMzg3MSA1LjQwNDk4LDMuMzE4OCBsIDI2LjU1MDc5LDAgMCwtMy45ODI2IC0yNi41NTA3OSwwIGMgLTEuMTgzNCwtMC4wNjEgLTEuMzU3ODgsLTAuNDAyIC0xLjgwMTY2LC0xLjEzNzkgLTAuMzYwMzMsLTAuNzM1OCAtMC40ODkyOSwtMS44NTEgLTAuNDc0MTIsLTIuNDY1NCBsIDAsLTAuNDc0MSAwLC0wLjA5NSAwLC0xOC41ODU2IDAsLTAuMDk1IDAsLTAuMDk1IDAsLTAuMzc5MyBjIC0wLjAxNTIsLTAuNjEwNyAwLjExMzc5LC0xLjgxNjggMC40NzQxMiwtMi41NjAzIDAuNDQzNzgsLTAuNzM1OCAwLjYxODI2LC0wLjk3ODUgMS44MDE2NiwtMS4wNDMgbCAyMS4yNDA2MywwIGMgMS4xNzU4MiwwLjA2NSAxLjM1Nzg5LDAuMzA3MiAxLjgwMTY2LDEuMDQzIDAuMzE4NjEsMC42NTI0IDAuNDUxMzcsMS42MTk2IDAuNDc0MTIsMi4yNzU4IGwgMCw3LjExMTggMCwwLjA5NSAwLDAuMDk1IDAsMC4xODk2IGMgMC4wMDYsMC4zODY5IC0wLjEwNjIsMS4xMTE0IC0wLjM3OTI5LDEuNTE3MiAtMC4yOTE5MSwwLjM3NTUgLTAuNDg5MywwLjcwNTUgLTEuODk2NDksMC43NTg2IGwgLTIxLjI0MDYzLDAgMCw0LjA3NzUgMjEuMjQwNjMsMCAwLjE4OTY1LDAgYyAyLjM5NzE2LDAgNC4yNzg0NywtMS4yMSA1LjEyMDUxLC0yLjY1NTEgMC44NzIzOCwtMS40NTI3IDAuOTQwNjYsLTIuOTA1NCAwLjk0ODI0LC0zLjY5ODIgbCAwLC0wLjU2ODkgMCwtNS45NzM5IDAsLTAuNjYzOCBjIC0wLjAwNiwtMC45NDgyIC0wLjA2ODMsLTIuNTg2OCAtMC44NTM0MiwtNC4yNjcxIC0wLjcwNTQ5LC0xLjY5MTcgLTIuNzIzMzUsLTMuMzkwOSAtNS40MDQ5OCwtMy4zMTg4IGwgLTIxLjI0MDYzLDAgYyAtMC4zMzUyMSwtMC4wMSAtMC43MzA3NywtMC4wNDQgLTEuMDQzMDYsMCB6IG0gLTQ2Ny45NTc2NDksMy45ODI2IDE5LjcyMzQ0MywwIGMgMS4xNzIwMjgsMC4wNjQgMS4zNjU0NjksMC4zMDM1IDEuODAxNjYxLDEuMDQzMSAwLjM2MDMzMiwwLjczNTggMC40ODE3MDcsMS45NDIgMC40NzQxMjEsMi41NjAyIGwgLTAuMDk0NjcsMC40NzQyIDAsMC4wOTUgMCwxOC41ODU2IDAsMC4wOTUgMC4wOTQ2NywwLjQ3NDEgYyAwLjAwNjEsMC42MTQ0IC0wLjExMzc4OSwxLjcyOTYgLTAuNDc0MTIxLDIuNDY1NCAtMC40MzYxOTIsMC43MzU4IC0wLjYyOTYzMywxLjA4MSAtMS44MDE2NjEsMS4xMzc5IGwgLTE5LjcyMzQ0MywwIGMgLTEuMTc5NjEzLC0wLjA1NyAtMS4zNjE2NzYsLTAuNDAyMSAtMS44MDE2NiwtMS4xMzc5IC0wLjM2NDEyNSwtMC43MzU4IC0wLjQ4NTUsLTEuODUxIC0wLjQ3NDEyMSwtMi40NjU0IGwgMCwtMC40NzQxIDAsLTAuMDk1IDAsLTE4LjU4NTYgMCwtMC4wOTUgMCwtMC40NzQyIGMgLTAuMDEyMTQsLTAuNjE4MiAwLjEwOTg0NCwtMS44MjQ0IDAuNDc0MTIxLC0yLjU2MDIgMC40Mzk5ODQsLTAuNzM5NiAwLjYxNDQ2MSwtMC45Nzg2IDEuODAxNjYsLTEuMDQzMSB6IG0gMTE1Ljk3MDA0OSwwIDE5LjgxODI3LDAgYyAxLjE3MjAzLDAuMDY0IDEuMjY2ODUsMC4zMDM1IDEuNzA2ODQsMS4wNDMxIDAuMzcxNzEsMC43MzU4IDAuNDgxNywxLjk0MiAwLjQ3NDEyLDIuNTYwMiBsIDAsMC40NzQyIDAsMC4wOTUgMCwxOC41ODU2IDAsMC4wOTUgMCwwLjQ3NDEgYyAwLjAwNiwwLjYxNDQgLTAuMTAyMjYsMS43Mjk2IC0wLjQ3NDEyLDIuNDY1NCAtMC40Mzk5OSwwLjczNTggLTAuNTM0ODEsMS4wODEgLTEuNzA2ODQsMS4xMzc5IGwgLTE5LjgxODI3LDAgYyAtMS4xODM0LC0wLjA1NyAtMS4yNjMwNiwtMC40MDIxIC0xLjcwNjgzLC0xLjEzNzkgLTAuMzYwMzQsLTAuNzM1OCAtMC40ODU1LC0xLjg1MSAtMC40NzQxMywtMi40NjU0IGwgMCwtMC40NzQxIDAsLTAuMDk1IDAsLTE4LjU4NTYgMCwtMC4wOTUgMCwtMC40NzQyIGMgLTAuMDEyMSwtMC42MTgyIDAuMTEzNzksLTEuODI0NCAwLjQ3NDEzLC0yLjU2MDIgMC40NDM3NywtMC43Mzk2IDAuNTIzNDMsLTAuOTc4NiAxLjcwNjgzLC0xLjA0MzEgeiIvPiYjeGE7PHBhdGggZD0ibSA1ODEuMDUxMjgsMzMwLjE4NzczIGMgLTQuNDE4ODEsLTMuNTU3ODEgLTEyLjc5MzY5LC00LjM1MDU0IC0xNy42MzczMSwtNC41MDYwNSAtMi4yMzQwNiwtMC4wNjA3IC0zLjczMjI4LDAgLTMuNzMyMjgsMCBsIC0xMTMuNzE3MDMsMCBjIDAsMCAtMy40NDc4MSwtMC4yNjU1MSAtNy42NjU1OSwwIC00LjEwNzc5LDAuMjY1NTEgLTguOTQzODIsMS4wMzU0OCAtMTEuOTcwNjEsMy4wOTEyNyAtNy42OTIxNSw1LjE4NDk5IC04LjY1OTM1LDEzLjY1NDY5IC04LjY1OTM1LDIxLjMzOTI1IGwgMCw5Ny42MjcyNCAyOC4yOTU1NSwwIDAsLTg1LjcxMzUzIGMgMCwtMTIuMzAwNiAxMC41MzY4NywtMTAuOTU0MDkgMTAuNTM2ODcsLTEwLjk1NDA5IGwgMzIuODQ3MTIsMCAwLDk2LjU1MDA0IDI2Ljk2ODAxLDAgMCwtOTYuNTUwMDQgMzMuNjEzMywwIGMgOS4wNTAwMywwIDkuNzIxMzgsNy44NzA0MSA5Ljc1MTczLDkuNjM0MTQgbCAwLDAuMzY3OTIgMCw4Ni42NjU1NiAyOC4zMTgzMSwwIDAsLTk2LjY2NzYyIDAsLTAuNjg2NTMgYyAtMC4wNDE2LC0zLjAxMTYyIC0wLjU4NzkxLC0xNS4wODQ2NCAtNi45NDg3MiwtMjAuMTk3NTYgbSAtMjM5LjI2NDMzLC00LjUwNjA1IGMgLTQuMTE1MzcsMC4yNjU1MSAtOC45NTE0LDEuMDM1NDggLTExLjk4NTc4LDMuMDkxMjcgLTcuNjkyMTQsNS4xODQ5OSAtOC42NDc5NywxMy42NTQ2OSAtOC42NDc5NywyMS4zMzkyNSBsIDAsOTcuNjI3MjQgMjguMjkxNzYsMCAwLC04NS43MTM1MyBjIDAsLTEyLjMwMDYgMTAuNTQwNjYsLTEwLjk1NDA5IDEwLjU0MDY2LC0xMC45NTQwOSBsIDM3LjUzNTIzLDAgMCwtMjUuMzkwMTQgLTQ4LjA3NTg5LDAgYyAwLDAgLTMuNDQ3ODEsLTAuMjY1NTEgLTcuNjU4MDEsMCBtIC03Mi4xMDgxNCw4NS42MDM1MyBjIDAsMTIuMjk2ODEgLTEwLjUzMzA4LDEwLjk1Nzg5IC0xMC41MzMwOCwxMC45NTc4OSBsIC0zOC42NDI3OCwwIGMgLTkuMDM0ODUsMCAtOS43MTc1OSwtNy44ODE3OSAtOS43NDc5MywtOS42NTMxMSBsIDAsLTAuMzUyNzQgMCwtODYuNjg0NTMgLTI4LjMwNjkzLDAgMCw5Ni42OTAzOCAwLDAuNjg2NTMgYyAwLjAzNCwyLjk4ODg2IDAuNTg0MTEsMTUuMDc3MDUgNi45NDQ5MywyMC4xOTM3NyA0LjQxNTAxLDMuNTU0MDEgMTIuNzg2MSw0LjM1MDU0IDE3LjYyOTcyLDQuNDk4NDYgMi4yMzc4NSwwLjA3MTkgMy43MzIyOCwwIDMuNzMyMjgsMCBsIDU4LjkyMzc5LDAgYyAwLDAgMy40NTE2LDAuMjczMSA3LjY1OCwwIDQuMTE1MzcsLTAuMjYxODYgOC45NDc2MiwtMS4wNDMwNiAxMS45ODE5OSwtMy4wOTEyNyA3LjY4NDU2LC01LjE5NjM3IDguNjU5MzUsLTEzLjY0MzMxIDguNjU5MzUsLTIxLjMzNTQ1IGwgMCwtOTcuNjQyNDIgLTI4LjI5OTM0LDAgMCw4NS43MzI0OSB6IG0gLTE0MC4xNjU0MSwzNi4zMzY2NSAyOC4yOTU1NiwwIDAsLTE3My42MjY5OCAtMjguMjk1NTYsMCAwLDE3My42MjY5OCB6IG0gLTI1LjEyMDg0LC01NS43MTExNCBjIDAsMCAwLjI1NzkyLC04Ljk3MDM3IC01LjM0NDI5MiwtMTIuODQyOTkgLTUuMTU4NDM5LC0zLjUzNTA1IC0xMi41NzM2OTUsLTMuNTM1MDUgLTEyLjU3MzY5NSwtMy41MzUwNSBsIC01MS41Mjc0OTQsMCBjIDAsMCAtNy43NTY2MjMsMC41MTk2NCAtNy43NTY2MjMsLTcuNzU2NjIgbCAwLC04LjY5MzQ5IGMgMCwwIC0wLjY4MjczNSwtOS4xODI3OCA5LjE3ODk4NiwtOS4xODI3OCBsIDY2LjgyMDc0OCwwIDAsLTI0LjM0NzA3IC03Mi4yOTQwMDMsMCBjIDAsMCAtMTEuOTc4MTk4LC0wLjE2MzI1IC0xNi43MzQ1ODIsMC45NjM0MSBDIDcuODY1Mjc1MywzMjguMDA2NzcgMSwzMzEuMjMwNzkgMSwzNDUuNTUzMDUgbCAwLDM0LjU1MDE2IGMgMCwxOC43NjM4MiAxNy44ODc2NDUsMTYuNzk1MjcgMTcuODg3NjQ1LDE2Ljc5NTI3IGwgNDguMDMwMzc2LDAgYyAxMS4zODI3MDIsMCAxMC41NzQ3OTksOC40MDUyMiAxMC41NzQ3OTksOC40MDUyMiBsIDAsOC4zMDY2IGMgMCwxMC45ODA2NSAtMTIuNDQ0NzMzLDkuMjMyMDkgLTEyLjQ0NDczMyw5LjIzMjA5IGwgLTY0LjA0ODA4NywwIDAsMjQuNzc5NDcgODIuOTYzNjI3LDAgYyAwLDAgMTAuODYzMDY1LDAuMzcxNzEgMTUuODU4NDA2LC01LjM5NzM5IDUuMDAyOTI3LC01Ljc2OTExIDQuNTcwNTI3LC0xNS4yNDAxNiA0LjU3MDUyNywtMTUuMjQwMTYgbCAwLC0zNS4wNzM1OSB6Ii8+JiN4YTs8L3N2Zz4=;aspect=fixed;" vertex="1" parent="f2ak9kAQmxtRjergjKL7-33">
          <mxGeometry x="25" width="70" height="70" as="geometry" />
        </mxCell>
        <mxCell id="f2ak9kAQmxtRjergjKL7-35" value="Slurm Scheduler" style="text;whiteSpace=wrap;html=1;align=center;verticalAlign=middle;" vertex="1" parent="f2ak9kAQmxtRjergjKL7-33">
          <mxGeometry y="75" width="120" height="20" as="geometry" />
        </mxCell>
        <mxCell id="f2ak9kAQmxtRjergjKL7-36" value="" style="group" vertex="1" connectable="0" parent="f2ak9kAQmxtRjergjKL7-1">
          <mxGeometry x="320" y="182.5" width="120" height="95" as="geometry" />
        </mxCell>
        <mxCell id="f2ak9kAQmxtRjergjKL7-37" value="" style="shape=image;verticalLabelPosition=bottom;labelBackgroundColor=default;verticalAlign=top;aspect=fixed;imageAspect=0;image=data:image/svg+xml,PHN2ZyBoZWlnaHQ9IjY0IiB3aWR0aD0iNjQiIHhtbG5zPSJodHRwOi8vd3d3LnczLm9yZy8yMDAwL3N2ZyIgdmlld0JveD0iMCAwIDY0IDY0Ij48cGF0aCBmaWxsPSIjNDk5ODQ4IiBkPSJNMjcuMDUzIDUzLjM3Yy0uNy0uMjI2LS43LS4zMjUtLjA1OC0yLjMwN3MuMzUzLTMuODE4LS44NTUtNS4yNjNjLTEuNjQ0LTEuOTY1LTIuNDM1LTMuNjQyLTIuNjg3LTUuNjkzLS4yMTctMS43Ni0uMjg1LTEuOS0xLjAwMi0yLjA0LS40OC0uMDkyLTEuMTQ1LjEtMi43My43NS0yLjMwNC45Ni0yLjg1MyAxLjM4My0zLjM5NiAyLjYxMi0uMjg2LjY0Ni0uMzIgMS4wMzItLjE1OCAxLjc4LjE5OC45MTIgMS4wMDggMi4zOCAxLjMxNSAyLjM4LjA4LjAwMS41MjMuMzA0Ljk4My42NzMuNzY0LjYxNC44MTcuNzIuNiAxLjIyLS40NyAxLjA4Ny0xLjU4NyAyLjQwNS0yLjAzOCAyLjQwNS0uMjUzIDAtMS4yODYtLjcyNC0yLjQyNC0xLjY5OC0yLjIzNC0xLjkxMy0yLjMyOC0yLjEwNS0yLjU2LTUuMjQtLjI3NS0zLjc0Mi42NDUtNS40ODggNC43NDMtOWwyLjU3LTIuMjAzLjE2NC0xLjMzN2MuMTctMS4zNzgtLjA3LTQuNjYtLjQ3LTYuNDctLjIzNy0xLjA3LTEuMDItMi4xLTEuNzYtMi4yOTUtLjgtLjIyNC0xLjI4Mi4yNC0xLjg5OCAxLjg1My0uNjY0IDEuNzQyLTEuMjk4IDIuMzUtMi40NTIgMi4zNS0uNzIgMC0xLjQtLjQ2LTEuODUzLTEuMjctLjMzMi0uNTgtLjUyNS00LjA3LS4zMjYtNS45MDYuMDk1LS44ODMuMS0xLjc3OC4wMTItMS45ODgtLjE0NC0uMzQtMS4zODgtMS4wOC00LjMyLTIuNTY1LS41MzMtLjI3LTEuMTU1LS42MzQtMS4zOC0uODA4cy0uODE0LS40OTUtMS4zMDYtLjcxMmMtMS4xMTQtLjQ5Mi00LjAyLTIuMi0zLjc0Ny0yLjIuNTE1IDAgMi42OTUuNjcgMy44NTYgMS4xODcuNy4zMTUgMS4zODcuNTcyIDEuNTA3LjU3MnMxLjQ4Ny40NCAzLjAzNi45NzcgMi45NjUuOTc3IDMuMTQ3Ljk3N2MuNDMgMCAuNDk4LS4zNzMuMzYtMS45ODgtLjA2My0uNzM0LS4wNi0xLjMzNC4wMDYtMS4zMzRzLjM1Mi4xNDIuNjM0LjMxNWMuODY0LjUzIDIuNzIzLjg1MyA0LjkwNy44NTYgMi4xLjAwMiA0LjgxNS40MTcgNS44NTguOSAxLjQ5NS42OCAzLjIzIDIuOCA1LjQzIDYuNjQzIDEuNTMgMi42NyAzLjE3MiAzLjgwMiA1LjUyNyAzLjgwNC45NTIuMDAxIDMuNDkyLS40IDYuOTMtMS4wNyAyLjgzNi0uNTYgNi41OC0uNjg2IDguMDMzLS4yNyAxLjc3My41MDcgNC4xMTcgMS44NjQgNi4wNTUgMy41MDQgMS44MTQgMS41MzUgMi4wOTMgMS44NzYgMy4yMDggMy45MTMgMS4zMyAyLjQzIDIuNzk4IDUuODg3IDQuMTAzIDkuNjYuMTg2LjUzNy41OCAxLjQ0Mi44NzMgMiAuNzg1IDEuNTE0Ljc0NiAxLjYwNy0uNjggMS42MDctMS41NDggMC0yLjI3NC0uMjQ0LTMuMjg4LTEuMTA2LS45NzMtLjgyNi0xLjIyNy0xLjMzMi0yLjc1LTUuNDctLjc4LTIuMTItMS41NC0zLjM5Mi0yLjAyNS0zLjM5Mi0uMzMzIDAtMS4wMDYgMi4yNzItMS4wMDYgMy4zOTQgMCAuNzk3LjUgMS44NzQgMS44IDMuODYgMi4wOTggMy4yMjggMy4yMDIgNy44IDIuNzYgMTEuNGwtLjIgMS41NjQtMS4zOTguMDU4Yy0yLjIuMDkyLTIuMTguMTIyLTIuMTgtMy4wMjYgMC0zLjM1LS4yMjgtNC4wNzctMS43MDctNS40MjgtLjYxNC0uNTYtMS45OTItMi4xNTYtMy4wNjItMy41NDRzLTIuMDk1LTIuNTI0LTIuMjc3LTIuNTI0Yy0uNDIgMC0uNjI4IDEuMTQtLjY1IDMuNTUyLS4wMTUgMS41ODgtLjA3NyAxLjg1Ni0uNTQ2IDIuMzQ1LTEuMjcgMS4zMjYtMi4xNiAzLjc0LTIuNyA3LjM0NC0uMTIyLjc5Ny0uMjI2Ljk0Ny0uNzQzIDEuMDYzLS43Ni4xNy0yLjg2Ni4yLTMuMDQ4LjA0LS4xNTctLjEzNi4xMTgtMi4zMDIuNzQtNS44NDJhNjIuMzIgNjIuMzIgMCAwIDAgLjU3My00LjAwN2MuMTQtMS41My0uMTczLTQuNC0uNTQ1LTQuOTgtLjE1NC0uMjQtLjk0LS4yOTQtNC42Mi0uMzA3LTIuNDQtLjAxLTUuMTEzLS4xLTUuOTQzLS4xNzhsLTEuNS0uMTYydi42N2MwIC43MTcuMTg0IDEuMzUgMS40MTMgNC44NmExNTkuNjEgMTU5LjYxIDAgMCAxIDEuMzk0IDQuMTg4bC42MDcgMS45NC0uNTEyIDEuNTc4Yy0uMjgyLjg2OC0uNyAxLjkwOC0uOTMgMi4zLS40MDQuNy0uNDUyLjczMi0xLjU4Ni43MTgtLjY0My0uMDEtMS40NTYtLjEwNy0xLjgwNi0uMjE4eiIvPjwvc3ZnPg==;" vertex="1" parent="f2ak9kAQmxtRjergjKL7-36">
          <mxGeometry x="25" width="70" height="70" as="geometry" />
        </mxCell>
        <mxCell id="f2ak9kAQmxtRjergjKL7-38" value="Webserver" style="text;whiteSpace=wrap;html=1;align=center;verticalAlign=middle;" vertex="1" parent="f2ak9kAQmxtRjergjKL7-36">
          <mxGeometry y="75" width="120" height="20" as="geometry" />
        </mxCell>
        <mxCell id="f2ak9kAQmxtRjergjKL7-39" value="" style="group" vertex="1" connectable="0" parent="f2ak9kAQmxtRjergjKL7-1">
          <mxGeometry x="320" y="310" width="120" height="95" as="geometry" />
        </mxCell>
        <mxCell id="f2ak9kAQmxtRjergjKL7-40" value="" style="shape=image;verticalLabelPosition=bottom;labelBackgroundColor=default;verticalAlign=top;aspect=fixed;imageAspect=0;image=data:image/svg+xml,PHN2ZyB2aWV3Qm94PSIwIDAgMzIgMzIiIGhlaWdodD0iMzIiIHdpZHRoPSIzMiIgeG1sbnM9Imh0dHA6Ly93d3cudzMub3JnLzIwMDAvc3ZnIj4mI3hhOyAgPHBhdGggZD0iTTE0Ljg1OSAwaDUuMjM0djI0LjIxOWMtMi42ODIgMC41MS00LjY1NiAwLjcxNC02Ljc5NyAwLjcxNC02LjM4NSAwLTkuNzE0LTIuODg1LTkuNzE0LTguNDI3IDAtNS4zMzMgMy41MzEtOC43OTcgOS04Ljc5NyAwLjg0OSAwIDEuNDk1IDAuMDY4IDIuMjc2IDAuMjcxek0xNC44NTkgMTIuMTkzYy0wLjU2OC0wLjE5My0xLjE2Ny0wLjI4Ni0xLjc2Ni0wLjI3Ni0yLjY1MSAwLTQuMTc3IDEuNjMtNC4xNzcgNC40OSAwIDIuNzg2IDEuNDU4IDQuMzEzIDQuMTQ2IDQuMzEzIDAuNTc4IDAgMS4wNTItMC4wMzEgMS43OTctMC4xMzV2LTguMzk2ek0yOC40MTcgOC4wNzh2MTIuMTNjMCA0LjE3Ny0wLjMwMiA2LjE4OC0xLjIxOSA3LjkxNy0wLjg0OSAxLjY2Ny0xLjk3NCAyLjcxOS00LjI4MSAzLjg3NWwtNC44NTktMi4zMTNjMi4zMDctMS4wODkgMy40MzItMi4wMzYgNC4xNDYtMy41IDAuNzQ1LTEuNDk1IDAuOTg0LTMuMjI5IDAuOTg0LTcuNzgxdi0xMC4zMjh6TTIzLjE4OCAwLjAyNmg1LjIyOXY1LjM3aC01LjIyOXoiIGZpbGw9IiMwMDNBMkIiLz4mI3hhOzwvc3ZnPg==;" vertex="1" parent="f2ak9kAQmxtRjergjKL7-39">
          <mxGeometry x="25" width="70" height="70" as="geometry" />
        </mxCell>
        <mxCell id="f2ak9kAQmxtRjergjKL7-41" value="Keystone-API" style="text;whiteSpace=wrap;html=1;verticalAlign=middle;align=center;" vertex="1" parent="f2ak9kAQmxtRjergjKL7-39">
          <mxGeometry y="75" width="120" height="20" as="geometry" />
        </mxCell>
        <mxCell id="f2ak9kAQmxtRjergjKL7-42" value="" style="group" vertex="1" connectable="0" parent="f2ak9kAQmxtRjergjKL7-1">
          <mxGeometry x="20" y="310" width="120" height="95" as="geometry" />
        </mxCell>
        <mxCell id="f2ak9kAQmxtRjergjKL7-43" value="" style="shape=image;verticalLabelPosition=bottom;labelBackgroundColor=default;verticalAlign=top;aspect=fixed;imageAspect=0;image=data:image/svg+xml,PHN2ZyB4bWxucz0iaHR0cDovL3d3dy53My5vcmcvMjAwMC9zdmciIHZpZXdCb3g9IjAgMCAyNCAyNCIgcm9sZT0iaW1nIj48dGl0bGU+Q2VsZXJ5PC90aXRsZT48cGF0aCBkPSJNMi4zMDMgMEEyLjI5OCAyLjI5OCAwIDAgMCAwIDIuMzAzdjE5LjM5NEEyLjI5OCAyLjI5OCAwIDAgMCAyLjMwMyAyNGgxOS4zOTRBMi4yOTggMi4yOTggMCAwIDAgMjQgMjEuNjk3VjIuMzAzQTIuMjk4IDIuMjk4IDAgMCAwIDIxLjY5NyAwem04LjE3NyAzLjA3MmM0LjA5OCAwIDcuMDI4IDEuNDM4IDcuNjggMS43NjRsLTEuMTk0IDIuNTVjLTIuNDQyLTEuMDU3LTQuOTkzLTEuNDEtNS42NzItMS40MS0xLjU3NCAwLTIuMTcuOTIyLTIuMTcgMS43NjN2OC40OTRjMCAuODY5LjU5NiAxLjc5MSAyLjE3IDEuNzkxLjY3OSAwIDMuMjMtLjM4IDUuNjcyLTEuNDFsMS4xOTQgMi40OTZjLS40MzUuMjcxLTMuNjM3IDEuODE4LTcuNjggMS44MTgtMS4xMTIgMC00LjY0LS4yNDQtNC42NC00LjY0VjcuNzEzYzAtNC4zOTcgMy41MjgtNC42NCA0LjY0LTQuNjR6IiBmaWxsPSIjMzc4MTRBIi8+PC9zdmc+;" vertex="1" parent="f2ak9kAQmxtRjergjKL7-42">
          <mxGeometry x="25" width="70" height="70" as="geometry" />
        </mxCell>
        <mxCell id="f2ak9kAQmxtRjergjKL7-44" value="Task Worker(s)" style="text;whiteSpace=wrap;html=1;align=center;verticalAlign=middle;" vertex="1" parent="f2ak9kAQmxtRjergjKL7-42">
          <mxGeometry y="75" width="120" height="20" as="geometry" />
        </mxCell>
        <mxCell id="f2ak9kAQmxtRjergjKL7-45" value="" style="group" vertex="1" connectable="0" parent="f2ak9kAQmxtRjergjKL7-1">
          <mxGeometry x="180" y="310" width="120" height="95" as="geometry" />
        </mxCell>
        <mxCell id="f2ak9kAQmxtRjergjKL7-46" value="" style="shape=image;verticalLabelPosition=bottom;labelBackgroundColor=default;verticalAlign=top;aspect=fixed;imageAspect=0;image=data:image/svg+xml,PHN2ZyB4bWxucz0iaHR0cDovL3d3dy53My5vcmcvMjAwMC9zdmciIHZpZXdCb3g9IjAgMCAyNCAyNCIgcm9sZT0iaW1nIj48dGl0bGU+Q2VsZXJ5PC90aXRsZT48cGF0aCBkPSJNMi4zMDMgMEEyLjI5OCAyLjI5OCAwIDAgMCAwIDIuMzAzdjE5LjM5NEEyLjI5OCAyLjI5OCAwIDAgMCAyLjMwMyAyNGgxOS4zOTRBMi4yOTggMi4yOTggMCAwIDAgMjQgMjEuNjk3VjIuMzAzQTIuMjk4IDIuMjk4IDAgMCAwIDIxLjY5NyAwem04LjE3NyAzLjA3MmM0LjA5OCAwIDcuMDI4IDEuNDM4IDcuNjggMS43NjRsLTEuMTk0IDIuNTVjLTIuNDQyLTEuMDU3LTQuOTkzLTEuNDEtNS42NzItMS40MS0xLjU3NCAwLTIuMTcuOTIyLTIuMTcgMS43NjN2OC40OTRjMCAuODY5LjU5NiAxLjc5MSAyLjE3IDEuNzkxLjY3OSAwIDMuMjMtLjM4IDUuNjcyLTEuNDFsMS4xOTQgMi40OTZjLS40MzUuMjcxLTMuNjM3IDEuODE4LTcuNjggMS44MTgtMS4xMTIgMC00LjY0LS4yNDQtNC42NC00LjY0VjcuNzEzYzAtNC4zOTcgMy41MjgtNC42NCA0LjY0LTQuNjR6IiBmaWxsPSIjMzc4MTRBIi8+PC9zdmc+;" vertex="1" parent="f2ak9kAQmxtRjergjKL7-45">
          <mxGeometry x="25" width="70" height="70" as="geometry" />
        </mxCell>
        <mxCell id="f2ak9kAQmxtRjergjKL7-47" value="Task Scheduler" style="text;whiteSpace=wrap;html=1;align=center;verticalAlign=middle;" vertex="1" parent="f2ak9kAQmxtRjergjKL7-45">
          <mxGeometry y="75" width="120" height="20" as="geometry" />
        </mxCell>
        <mxCell id="f2ak9kAQmxtRjergjKL7-48" style="edgeStyle=orthogonalEdgeStyle;rounded=0;orthogonalLoop=1;jettySize=auto;html=1;entryX=1;entryY=0.5;entryDx=0;entryDy=0;" edge="1" parent="f2ak9kAQmxtRjergjKL7-1" source="f2ak9kAQmxtRjergjKL7-40" target="f2ak9kAQmxtRjergjKL7-46">
          <mxGeometry relative="1" as="geometry" />
        </mxCell>
        <mxCell id="f2ak9kAQmxtRjergjKL7-49" value="" style="edgeStyle=orthogonalEdgeStyle;rounded=0;orthogonalLoop=1;jettySize=auto;html=1;startArrow=classic;startFill=1;" edge="1" parent="f2ak9kAQmxtRjergjKL7-1" source="f2ak9kAQmxtRjergjKL7-25" target="f2ak9kAQmxtRjergjKL7-47">
          <mxGeometry relative="1" as="geometry" />
        </mxCell>
        <mxCell id="n02EZAfMPRqOqdFF-KV5-0" value="" style="edgeStyle=orthogonalEdgeStyle;rounded=0;orthogonalLoop=1;jettySize=auto;html=1;startArrow=classic;startFill=1;" edge="1" parent="f2ak9kAQmxtRjergjKL7-1" source="f2ak9kAQmxtRjergjKL7-40" target="f2ak9kAQmxtRjergjKL7-38">
          <mxGeometry relative="1" as="geometry" />
        </mxCell>
        <mxCell id="n02EZAfMPRqOqdFF-KV5-1" style="edgeStyle=orthogonalEdgeStyle;rounded=0;orthogonalLoop=1;jettySize=auto;html=1;entryX=0.35;entryY=0.894;entryDx=0;entryDy=0;startArrow=classic;startFill=1;entryPerimeter=0;" edge="1" parent="f2ak9kAQmxtRjergjKL7-1" source="f2ak9kAQmxtRjergjKL7-25">
          <mxGeometry relative="1" as="geometry">
            <mxPoint x="257.49999999999994" y="484.5" as="sourcePoint" />
            <mxPoint x="362.00000000000006" y="404.88000000000005" as="targetPoint" />
            <Array as="points">
              <mxPoint x="258" y="420" />
              <mxPoint x="362" y="420" />
            </Array>
          </mxGeometry>
        </mxCell>
      </root>
    </mxGraphModel>
  </diagram>
  <diagram name="monitoring" id="eULmxYeQJS_cGu6pozit">
    <mxGraphModel dx="1434" dy="846" grid="1" gridSize="10" guides="1" tooltips="1" connect="1" arrows="1" fold="1" page="1" pageScale="1" pageWidth="850" pageHeight="1100" math="0" shadow="0">
      <root>
        <mxCell id="Uf2jo-MEsTMQwNn6tAHI-0" />
        <mxCell id="Uf2jo-MEsTMQwNn6tAHI-1" parent="Uf2jo-MEsTMQwNn6tAHI-0" />
        <mxCell id="QiDiUrZGB9I0AOXDtaoh-0" value="&lt;b&gt;App Components&lt;br&gt;&lt;/b&gt;" style="rounded=1;whiteSpace=wrap;html=1;glass=0;shadow=0;verticalAlign=top;arcSize=6;fontSize=15;align=left;spacingLeft=6;" vertex="1" parent="Uf2jo-MEsTMQwNn6tAHI-1">
          <mxGeometry width="160" height="740" as="geometry" />
        </mxCell>
        <mxCell id="T036_7717ZzJzn4tchmw-0" value="&lt;b&gt;&lt;span style=&quot;font-size: 15px;&quot;&gt;&amp;nbsp;Monitoring&lt;br&gt;&lt;/span&gt;&lt;/b&gt;" style="rounded=1;whiteSpace=wrap;html=1;glass=0;shadow=0;verticalAlign=top;fontSize=15;arcSize=3;align=left;fontStyle=0" parent="Uf2jo-MEsTMQwNn6tAHI-1" vertex="1">
          <mxGeometry x="180" width="440" height="740" as="geometry" />
        </mxCell>
        <mxCell id="Uf2jo-MEsTMQwNn6tAHI-38" value="" style="group" parent="Uf2jo-MEsTMQwNn6tAHI-1" vertex="1" connectable="0">
          <mxGeometry x="20" y="500" width="120" height="95" as="geometry" />
        </mxCell>
        <mxCell id="Uf2jo-MEsTMQwNn6tAHI-39" value="&lt;div&gt;Database&lt;br&gt;&lt;/div&gt;" style="text;whiteSpace=wrap;html=1;align=center;verticalAlign=middle;" parent="Uf2jo-MEsTMQwNn6tAHI-38" vertex="1">
          <mxGeometry y="75" width="120" height="20" as="geometry" />
        </mxCell>
        <mxCell id="Uf2jo-MEsTMQwNn6tAHI-40" value="" style="shape=image;verticalLabelPosition=bottom;labelBackgroundColor=default;verticalAlign=top;aspect=fixed;imageAspect=0;image=data:image/svg+xml,PHN2ZyB2aWV3Qm94PSIwIDAgMTI4IDEyOCIgeG1sbnM9Imh0dHA6Ly93d3cudzMub3JnLzIwMDAvc3ZnIj48cGF0aCBkPSJNMTIzLjI1OCA3Ni43ODRjLS40NS0yLjkxOC0yLjkwMS00LjgyOS01Ljc1Mi00Ljk1OC0xLjAzMi0uMDQ3LTIuMDguMDYxLTMuMTA5LjE5Mi0xLjI0My4xNTgtMi40NzEuNDM4LTMuNzExLjYyMy0uODU3LjEyOC0xLjcyNi4xODctMi41ODIuMjc1bC0uMDIxLS4xMTFjMS41OTgtMy4wMTggMy4yNjMtNi4wMDMgNC43NzUtOS4wNjQgMS4xNTktMi4zNDggMi4xNTEtNC43ODEgMy4xNzYtNy4xOTQgMS42OTYtMy45OTggMy4wNTEtOC4xMiA0LjE3My0xMi4zMDkgMS4wNzUtNC4wMTEgMS45OTUtOC4wNjYgMi4yODQtMTIuMjI3LjExNi0xLjY2Mi4xOTYtMy4zMzEuMTg3LTQuOTk1LS4wMDgtMS4zMjctLjE1MS0yLjY1Ni0uMjg0LTMuOTc5LS4xNS0xLjUxNi0uNjA4LTIuOTUzLTEuMjQyLTQuMzM2LS44MzYtMS44MjItMi4xMzItMy4zMTctMy40OTYtNC43MzctMS4wOTItMS4xMzctMi4yOTMtMi4xNzMtMy40ODQtMy4yMDgtMS42OTgtMS40NzctMy42MDctMi42NTYtNS41OS0zLjcwMy0yLjI1My0xLjE5LTQuNjIxLTIuMTIxLTcuMDktMi43NS0xLjQ5My0uMzgxLTMuMDItLjY2NC00LjUzMi0uOTY2LS41NDQtLjExLTEuMDg5LS4zMzctMS42MzMtLjMzN2gtMTAuMjQxYy0uMzcgMC0uNzM3LjE5MS0xLjExLjIzMy0yLjQ1Mi4yNzMtNC44NzUuNzM1LTcuMjI4IDEuNDY0LS44OC4yNzMtMS42ODQuMTAxLTIuNTIuMDI0LS42NDEtLjA1OS0xLjI3MS0uMjMxLTEuOTEyLS4yNjMtMi40NDItLjEyMi00Ljg4Ny0uMzAxLTcuMzI4LS4yNzUtMi4zMzkuMDI0LTQuNjU0LjQwOS02LjkxOCAxLjA1Mi0xLjg5NS41MzgtMy43NDkgMS4xOTUtNS40NDcgMi4xOTEtLjcyNy40MjYtMS4zMDMuMzQ2LTIuMDU1LjEyOS0yLjUyNy0uNzI5LTUuMDcyLTEuNDE0LTcuNjM5LTEuOTg5LTEuNi0uMzU4LTMuMjQ1LS41MzYtNC44NzktLjcwNy0xLjU2Ni0uMTYzLTMuMTQ0LS4yNjEtNC43MTgtLjI5NC0xLjUzOC0uMDMzLTMuMDg3LS4wMzItNC42MTguMTA0LTIuNDM5LjIxNy00LjgzMi43MTMtNy4xNTggMS41MTMtMi41ODMuODg4LTQuOTUxIDIuMTc1LTcuMDg2IDMuODY1LTIuMTY3IDEuNzE1LTMuOTA1IDMuODA5LTUuMzAzIDYuMi0xLjQ3MyAyLjUyMy0yLjQ4MyA1LjIyNC0zLjExMSA4LjA2MS0uMzQgMS41MzctLjU1NSAzLjExNy0uNzg4IDQuNjc4LS4wNzMuNDg2LjczMi45NzItLjI2OCAxLjQ1NnY2Ljc5NGMxIC40NTIuMjA4LjkwMy4yNjYgMS4zNTYuMTM5IDEuMDg5LjI2MiAyLjE4Ny40NDYgMy4yNjguMjkxIDEuNzExLjYzNiAzLjQxNy45ODggNS4xMTcuNDkxIDIuMzc1IDEuMDAyIDQuNzQ4IDEuNTQ2IDcuMTExLjM5NiAxLjcyLjg0NyAzLjQzIDEuMzE5IDUuMTMxLjcyMSAyLjU5OCAxLjQzMSA1LjIwMSAyLjI0NiA3Ljc3Ljc1NyAyLjM4NyAxLjYyNCA0Ljc0IDIuNDg0IDcuMDkzIDEuMTkxIDMuMjU1IDIuNjE3IDYuNDA1IDQuMzI3IDkuNDI0IDEuNDc5IDIuNjE0IDMuMTY5IDUuMDYyIDUuNDM2IDcuMDc2IDEuNDk0IDEuMzI3IDMuMTU3IDIuMzQ3IDUuMDkzIDIuODU3IDEuNTIxLjQgMy4wNjcuNDQ4IDQuNjI0LjEyOSAxLjgwNS0uMzcgMy40MDMtMS4xNDcgNC44MjQtMi4zMTEuMTYzLS4xMzQuMzQyLS4yMzYuNTM1LjAxLjczNS45MzEgMS43MTkgMS41NTIgMi43NDggMi4wODkgMi43NzcgMS40NDggNS44MDMgMS44ODIgOC44NzcgMi4wNTkuNzQ0LjA0MyAxLjQ5Ni0uMDY0IDIuMjQ2LS4wODUgMS40NjEtLjA0IDIuODgxLS4zMjUgNC4yNzgtLjcyOS43MzItLjIxMiAxLjQ0Ny0uNDgxIDIuMTkyLS43MzIuMDM5Ljc5My4wODkgMS41NTcuMTEyIDIuMzIxbC4xMDQgNC4xNjZjLjAxOS42MzQuMDQ0IDEuMjcuMTAzIDEuOTAxLjE1MSAxLjYyNy4yOTkgMy4yNTUuNDkzIDQuODc3LjEzNSAxLjExOC4yNzUgMi4yNDUuNTM4IDMuMzM2LjUyOSAyLjIwMyAxLjI0NiA0LjM0OCAyLjE1OCA2LjQyOC44OTUgMi4wNDEgMi4xODIgMy43NjQgMy45IDUuMTg1IDIuMjIgMS44MzYgNC44MjIgMi42MTkgNy42MzIgMi43NjQgMS4xNjIuMDYxIDIuMzU3LjAwNCAzLjUwMS0uMjA0IDEuODEzLS4zMjkgMy42MjItLjc0MyA1LjM4Ny0xLjI3NSAzLjU5MS0xLjA4NCA2LjY5NS0yLjk1NiA5LjAxNC01Ljk4MSAxLjMyLTEuNzI0IDIuNDA0LTMuNTg5IDMuMS01LjY0OC41NzQtMS43MDEgMS4xMTUtMy40MTkgMS41NDUtNS4xNi4zNC0xLjM3Mi41MDgtMi43ODcuNzE1LTQuMTg4LjEzNy0uOTI3LjIxOS0xLjg2My4zMDUtMi43OTcuMTQtMS41MTcuMjgzLTMuMDMzLjM4NC00LjU1My4wNy0xLjA1OC4wNjctMi4xMjEuMTA5LTMuMTgxLjAxMy0uMzIzLjA2NS0uNjQ0LjA5NS0uOTY2LjAyOC0uMjk4LjE3OC0uNDAxLjQ4Mi0uMzk2IDEuMDcxLjAxNiAyLjE0NC4wNDQgMy4yMTItLjAwNCAxLjE5Ny0uMDU0IDIuNDA1LS4xMDUgMy41ODMtLjMwMyAxLjY3Ny0uMjgxIDMuMzQ2LS42MzYgNC45OS0xLjA2NyAxLjk0My0uNTA4IDMuNzI1LTEuNDE4IDUuNDQtMi40NTUgMS45OTgtMS4yMDcgMy44MTktMi42MjMgNS4yOTctNC40NDcgMS4yODUtMS41OTEgMS44OTQtMy40MyAxLjU4NC01LjQzOHptLTMuNDEyLjk4MmMtLjA2Ni45MTUtLjQ4NSAxLjY5OS0xLjA5MyAyLjM2OS0yLjg2OSAzLjE2My02LjQ2OCA1LjA4Mi0xMC41ODUgNi4wMjctMS41NjQuMzU4LTMuMTc4LjU0NC00Ljc3OS42OTItMS4zNjMuMTI2LTIuNzQ2LjE0Ny00LjExNC4wOTctMS4wMDYtLjAzOC0yLjAwNC0uMjY4LTMuMDMyLS40MTYtLjEwMy45NC0uMjAxIDEuOTE5LS4zMiAyLjg5NmwtLjQ3OSAzLjc0NWMtLjE0NSAxLjE4Ny0uMjU4IDIuMzc4LS40MDcgMy41NjQtLjE0NiAxLjE1MS0uMzI4IDIuMjk4LS40ODEgMy40NDktLjE0MyAxLjA3Mi0uMjQ4IDIuMTQ5LS40MDcgMy4yMTktLjI0NSAxLjY0LS40NzkgMy4yODQtLjc5OSA0LjkxMS0uMzg0IDEuOTQ1LS45NzMgMy44MjktMS45MzQgNS41ODMtMS4xNzIgMi4xNDEtMi44MzQgMy43NzItNC45NDkgNC45OC0yLjE4IDEuMjQ2LTQuNTYzIDEuODk0LTYuOTc5IDIuNDM2LTEuNzEuMzg0LTMuNDcyLjQ0Ny01LjIwNC4yOTEtMy4wMDQtLjI3Mi01LjU2OC0xLjU1Ny03LjUwNi0zLjg4Ni0xLjg1LTIuMjIzLTMuMTAyLTQuNzcxLTMuNTUtNy42NTUtLjIxNC0xLjM3MS0uMzY4LTIuNzU0LS40OTEtNC4xMzYtLjEzNi0xLjUzNy0uMjI5LTMuMDc5LS4yOTktNC42Mi0uMDg5LTEuOTU3LS4xNTQtMy45MTQtLjE5Ny01Ljg3MS0uMDUzLTIuNDA2LS4wNy00LjgxMi0uMTA0LTcuMjE4bC0uMDA2LS4wOTJjLTEuMjI0LjczNC0yLjQyNyAxLjUzOC0zLjcwMyAyLjItMS40OTQuNzc2LTMuMTE3IDEuMjI2LTQuNzk4IDEuMzUzLTEuMzE4LjEtMi42NTMuMTkxLTMuOTY1LjA4Ni0yLjE1MS0uMTczLTQuMy0uNTEtNi4yMjYtMS41NjktLjc4MS0uNDMtMS41OTYtLjk1My0yLjEzNC0xLjY0LTEuMjktMS42NDYtLjY3Mi0zLjcyNiAxLjI3My00LjcyNyAxLjM0NC0uNjkzIDIuODExLS45ODIgNC4yNjgtMS4zMTkgMS4yNjYtLjI5MyAyLjUyNi0uNjI2IDMuNzYxLTEuMDI5IDEuMjIyLS40IDEuOTkzLTEuMzkxIDIuNzU0LTIuMzYzbDEuMjA2LTEuNTUxYy0uNTAzLS4wNTMtLjk3Ny0uMTA3LTEuNDUxLS4xNTEtMS40MzktLjEzNi0yLjgxMi0uNTMyLTQuMTI1LTEuMTE0LTEuMTI0LS40OTctMS4xNDEtLjU1MS0xLjk2NS4zNDMtMS4zNzYgMS40OTQtMi43MTQgMy4wMjMtNC4wNjIgNC41NDItLjk5MiAxLjExNy0xLjk3OCAyLjI0MS0yLjk2NSAzLjM2MS0uOTc4IDEuMTA4LTEuODk0IDIuMjc5LTIuOTQ3IDMuMzEtMS41NjQgMS41MzEtMy40NDkgMi40NTItNS42OTggMi4zNDgtMS40NDMtLjA2Ni0yLjc2NC0uNTcyLTMuOTUyLTEuMzk5LTIuNDUyLTEuNzA4LTQuMTA0LTQuMDk3LTUuNjA4LTYuNjA2LTEuOTI3LTMuMjE1LTMuNDA2LTYuNjQtNC42NzItMTAuMTU5LS44NzYtMi40MzItMS43NTYtNC44NjYtMi41MjEtNy4zMzMtLjgzMS0yLjY4MS0xLjU2LTUuMzk2LTIuMjc3LTguMTEtLjU0Mi0yLjA0OC0xLjAyMy00LjExMy0xLjQ4Mi02LjE4Mi0uNTIxLTIuMzUzLTEuMDIyLTQuNzEtMS40NjQtNy4wNzktLjI5OC0xLjU5OS0uNDcxLTMuMjIxLS43MTItNC44MzEtLjMyNS0yLjE3LS4zODUtNC4zNi0uMjY3LTYuNTM5LjEwNS0xLjk2My4zODctMy45MjEuNjY3LTUuODcxLjM4OC0yLjY5OCAxLjI3Ny01LjI0NCAyLjU1Ni03LjY0OC43ODMtMS40NzMgMS43NTUtMi44MTIgMi44NzktNC4wNTYgMS44NDUtMi4wNDIgNC4wNzgtMy41MTggNi41NjItNC42MjYgMS43MzYtLjc3NCAzLjU3LTEuMjQgNS40MzktMS42MDQgMi43NzQtLjU0IDUuNTczLS41MTkgOC4zNzMtLjQ2MSAxLjIyNC4wMjUgMi40NDMuMjQ4IDMuNjY2LjM2OSAyLjYzMy4yNjIgNS4yMTQuODE2IDcuNzYyIDEuNSAxLjg1Ny40OTggMy42NzYgMS4xNDMgNS41MTggMS43MDMuMTg1LjA1Ni40NTYuMDUxLjYwNy0uMDQ4IDIuNDk2LTEuNjI5IDUuMjI0LTIuNzA0IDguMTI1LTMuMzE5IDEuMTAxLS4yMzMgMi4yMzctLjMzNSAzLjM2My0uNDA3IDEuMzY5LS4wODcgMi43NDktLjE2NyA0LjExNS0uMDg4IDEuNjQyLjA5NCAzLjI3Ni4zMzYgNC45MDguNTYuNzkyLjEwOCAxLjU2NS4zODMgMi4zNTkuNDU4LjM4LjAzNi43ODMtLjI0MiAxLjE4NS0uMzM1IDIuMDQ5LS40NzMgNC4wODktMSA2LjE1Ni0xLjM3NCAxLjUzOS0uMjc4IDMuMTExLS40MDkgNC42NzYtLjQ5OSAxLjc0NS0uMSAzLjUwMy0uMTczIDUuMjQ3LS4wODkgMi4yMDUuMTA2IDQuMzk0LjQyIDYuNTU1LjkyMyAyLjY3Ny42MjMgNS4yNDUgMS41MjggNy42ODYgMi43ODQgMS44MjQuOTM4IDMuNTU4IDIuMDI2IDUuMTE5IDMuMzY0IDEuMDIzLjg3OCAyLjA3IDEuNzQ1IDIuOTk0IDIuNzIzIDEuMTQgMS4yMDYgMi4zMDMgMi40MTMgMy4wMTggMy45NTguNTM4IDEuMTY1LjkyMiAyLjM3MSAxLjAyOCAzLjY0Ny4xMzIgMS41ODYuMjkyIDMuMTc4LjI3NyA0Ljc2Ni0uMDE0IDEuNTE5LS4yMjEgMy4wMzctLjM2OCA0LjU1Mi0uMzM0IDMuNDU0LTEuMDg1IDYuODMzLTEuOTk3IDEwLjE2Ny0uNzU0IDIuNzU0LTEuNjM1IDUuNDc4LTIuNTg5IDguMTctLjg3OSAyLjQ4MS0xLjg5MyA0LjkxNy0yLjkxOCA3LjM0My0uNzU3IDEuNzk0LTEuNTcyIDMuNTY5LTIuNDU4IDUuMzAzLTEuNjc3IDMuMjg2LTMuNDIxIDYuNTM4LTUuNDM4IDkuNjMzLS4zNDguNTM1LS42NzggMS4wODMtMS4wMTggMS42MjkuODguNTk0IDEuODc3LjgwMyAyLjg4MS45MTEuOTU1LjEwNCAxLjkyOS4xNjYgMi44ODMuMDk1IDEuNTI3LS4xMTMgMy4wNDktLjMzMSA0LjU2Ny0uNTQ0IDEuNTA0LS4yMSAyLjk3OC0uNjM4IDQuNTIyLS41MjUgMS41NDIuMTEyIDIuNjQ1IDEuMjg0IDIuNTQgMi43Mjl6TTk3LjgzMyA3NC40MTNjLS42NTUtLjg0Ni0xLjMyMy0xLjY4Mi0xLjk2NC0yLjUzOC0xLjAwNi0xLjM0NC0xLjcyOS0yLjg0NS0yLjQ1NS00LjM1My0uNjg4LTEuNDI5LTEuNTMyLTIuNzgyLTIuMjU3LTQuMTk1LTEuMjY1LTIuNDY1LTIuNTUzLTQuOTIyLTMuNzE4LTcuNDM1LTEuNDY1LTMuMTU3LTIuNjItNi40MjYtMi45ODQtOS45MjMtLjE1NC0xLjQ4LS4xOTMtMi45NTguMTA2LTQuNDI0LjQ3OS0yLjM0MSAxLjcwMi00LjE3MiAzLjc1OC01LjQyOCAxLjkwNy0xLjE2NSA0LjAzMi0xLjU0MSA2LjIwOS0xLjY1OSAxLjM1MS0uMDczIDIuNzA4LS4wMTMgNC4xMS0uMDEzbC0uMDQ3LS4yMzdjLS44NzItMS44MjMtMS42ODctMy42NzctMi42NDEtNS40NTctMS4zNDYtMi41MTItMy4wNjgtNC43NzctNC45ODYtNi44NzctMS40MjEtMS41NTUtMi45Ni0yLjk5OC00LjY0Ni00LjI3My0xLjY1OC0xLjI1NS0zLjQwNS0yLjM3Ni01LjI2OS0zLjI5My0yLjIyMy0xLjA5My00LjUzOC0xLjkzOC02Ljk2Ny0yLjQ3Ny0yLjMzNC0uNTE4LTQuNjgzLS44MzUtNy4wNzctLjg2MS0yLjA0Mi0uMDIyLTQuMDcxLjA3LTYuMDYuNTMxLTMuMDAyLjY5NS01Ljc0OCAxLjkzMS04LjEzNyAzLjkzMy0xLjMzNCAxLjExOC0yLjQ5OCAyLjM3My0zLjUxNyAzLjc3LTEuMTk2IDEuNjQzLTIuMTYxIDMuNDE3LTIuOTg2IDUuMjc3LTEuMTMyIDIuNTUyLTEuOTA5IDUuMjA4LTIuNDQgNy45MzgtLjI2NiAxLjM2MS0uNDc0IDIuNzM0LS42ODYgNC4xMDYtLjA3NC40OC0uMDguOTcxLS4xMjMgMS41MjEuMzY5LS4xOTIuNjM1LS4zNC45MDctLjQ3MmwuODg1LS4zOTdjMi45OTMtMS4zNjkgNi4wOTQtMi4yNSA5LjQyNy0yLjE0OSAxLjQxNi4wNDMgMi43NzEuMzIzIDQuMDMuOTQzIDIuNDE1IDEuMTkxIDMuODI4IDMuMjE2IDQuNDQyIDUuNzc5LjQyNCAxLjc2OS43MTQgMy41NzMuOTk2IDUuMzcyLjIyMSAxLjQwNS40NDcgMi44MjUuNDczIDQuMjQyLjAzNyAyLjA3MS0uMDY4IDQuMTQ2LS4xODEgNi4yMTYtLjA5NiAxLjc2NC0uNDY0IDMuNS0xLjA4IDUuMTQ2LTEuMTIgMi45OTMtMi4zNjggNS45MzctMy41MzQgOC45MTMtLjM4NS45ODMtLjY4MSAyLjAwMS0xLjA0NSAzLjA4Mi41NjIgMCAxLjAxOC0uMDA0IDEuNDc0LjAwMi4xNzguMDAzLjM2LjAwOC41MzIuMDQ5IDEuMzQuMzE2IDIuNTAyLjkyMyAzLjQ1NSAxLjk1NCAxLjI3MSAxLjM3MiAxLjkzOCAyLjk3MyAxLjk3MiA0LjgyNi4wMTkgMS4wMjctLjA4OSAyLjA1Ny0uMDg0IDMuMDg0LjAyMSA0Ljc4Ni4wNTcgOS41NzIuMDk3IDE0LjM1Ny4wMDcuNzgyLjA0NiAxLjU2NS4xMDIgMi4zNDYuMTE3IDEuNjM1LjIzNSAzLjI3MS4zOTUgNC45MDIuMTEyIDEuMTU3LjI2OCAyLjMxMi40NTEgMy40NjEuMjU5IDEuNjI4IDEgMy4wNzcgMS44NDEgNC40NjIuNzI0IDEuMTkxIDEuNjY1IDIuMjAzIDIuOTA1IDIuOTAxIDIuMTA3IDEuMTg2IDQuMzc2IDEuMjg1IDYuNjYzLjg0OCAxLjU0NS0uMjk1IDMuMDYyLS43NjkgNC41NjItMS4yNTggMS40NzktLjQ4MSAyLjgxNS0xLjI2OSAzLjkzNy0yLjM1NCAxLjA1MS0xLjAxOSAxLjc5Ny0yLjI2MSAyLjMtMy42MzIuOTc2LTIuNjU5IDEuMjgtNS40NTkgMS42ODQtOC4yMzcuMTUxLTEuMDQuMjgyLTIuMDgzLjQyLTMuMTI1LjE1Ny0xLjE4Ni4zMTYtMi4zNzEuNDY4LTMuNTU2LjExMi0uODgzLjIxNC0xLjc2OC4zMjItMi42NTEuMTU0LTEuMjY4LjMxNy0yLjUzNS40NjQtMy44MDQuMTEzLS45ODEuMjA5LTEuOTY2LjMwOS0yLjk0OS4xMjktMS4yNTYuMjY4LTIuNTEyLjM3OS0zLjc3LjA4Ni0uOTU1LjA1MS0xLjkyNy4yMi0yLjg2NC4zMTEtMS43MTggMS4xMjMtMy4xOCAyLjY0Ni00LjEyNS42MzctLjM5NSAxLjM1Ni0uNjU1IDIuMDYzLS45ODlsLS4xMi0uMTg2ek00MC4yMzYgNjcuMzYxYy0uNzYxLTEuODAyLTEuMjE4LTMuNjgtMS4zNTQtNS42MjItLjEyOC0xLjgyNS4wODktMy42NDMuMjc2LTUuNDYuMTgyLTEuNzYuMzMzLTMuNTI4LjM4Ni01LjI5Ni4wODgtMi45MDYtLjEwOC01LjgwOC0uMjQ3LTguNzEyLS4wODQtMS43MjkuMTE3LTMuNDc5LjI3MS01LjIxMi4xMzktMS41NjEuMzEyLTMuMTI2LjYwNy00LjY2NC40OTUtMi41ODEgMS4xNTItNS4xMjUgMi4wODYtNy41OTEuODg3LTIuMzM4IDEuOTA2LTQuNjE1IDMuMzQ1LTYuNjY1Ljk4Ni0xLjQwNiAyLjEwNS0yLjcyIDMuMTgtNC4wOTRsLS4zMTktLjExM2MtMy40OTgtMS4xMTEtNy4wNTMtMS45NzktMTAuNzA5LTIuMzU4LTEuNzI5LS4xNzktMy40NjQtLjI4NC01LjE5OC0uMzg3LS41MzItLjAzMi0xLjA3Mi4wNC0xLjYwNi4wOTEtMS4zMjIuMTI2LTIuNjYuMTc2LTMuOTYxLjQyNC0yLjIxNC40MjEtNC4zMzggMS4xMjktNi4zMDUgMi4yODItMS43NjYgMS4wMzUtMy4yNDkgMi4zNzMtNC40OTEgMy45NzgtMS4zNzIgMS43NzItMi4yOTUgMy43NzYtMi45NTggNS45MTMtLjc4MyAyLjUyMS0xLjE1NiA1LjExNS0xLjI1NyA3LjczMy0uMDg4IDIuMjk1LS4xMzIgNC42MDMuMjY0IDYuODg5LjI5NSAxLjcwMi40OTIgMy40MjIuODE3IDUuMTE3LjQ0MyAyLjMxMS45MTggNC42MTcgMS40NjcgNi45MDQuNzg1IDMuMjc0IDEuNTY5IDYuNTUzIDIuNDk5IDkuNzg3Ljg5IDMuMDk5IDEuODk0IDYuMTcgMi45ODIgOS4yMDQuODkgMi40NzYgMS45MTkgNC45MDYgMy4wMDMgNy4zMDQuNzA2IDEuNTYyIDEuNTYxIDMuMDY1IDIuNDU3IDQuNTI4Ljk1MyAxLjU1MyAyLjAzNyAzLjAyNyAzLjUwOCA0LjE1NCAxLjg1NiAxLjQyMyAzLjI5MyAxLjY0NCA1LjE3OS4wODMuODA4LS42NjkgMS40OTEtMS40OTUgMi4xOTQtMi4yODIgMS4xMTctMS4yNSAyLjE5NS0yLjUzNCAzLjMwNy0zLjc4OCAxLjQxNi0xLjU5OCAyLjg1LTMuMTc5IDQuMjczLTQuNzY5LjMwMS0uMzM2LjU5LS42ODIuODgzLTEuMDIybC0uNDg0LS40MjVjLTEuNzY5LTEuNjk5LTMuMTM5LTMuNjY5LTQuMDk1LTUuOTMxek05My45MjQgMTkuNzkyYzEuMTU2IDEuMzU2IDIuMjc1IDIuNzUyIDMuMzA5IDQuMjA0IDIgMi44MDkgMy41OTggNS44NDIgNC43NzUgOS4wODcuNTIxIDEuNDMuOTM3IDIuODc0Ljc1MSA0LjQzOS0uMTI5IDEuMDk2LS4xMTggMi4yMDgtLjIxNSAzLjMxLS4wODEuOTE3LS4yMjYgMS44MjktLjM0NSAyLjc0My0uMTc4IDEuMzc4LS40MzYgMi43NTItLjUxMyA0LjEzNi0uMDczIDEuMzE3LjAwMyAyLjY0OC4wODYgMy45NjguMDg0IDEuMzQxLjI2NSAyLjY3Ni4zODggNC4wMTUuMTM5IDEuNTE4LjMyNiAzLjAzNi4zNjkgNC41NTcuMDM1IDEuMjQ5LS4wNzYgMi41MDYtLjE4NSAzLjc1My0uMTMgMS41MDItLjUxMSAyLjk1Ni0xLjA3OSA0LjM1MS0uMzk5Ljk4Mi0uODc2IDEuOTM0LTEuMzI3IDIuOTE3bC4xODEuMTkyLjI3NS4yMTMuMjc3LS40OTZjMi4zMzktMy42ODggNC40Mi03LjUxOCA2LjIyMi0xMS40OTMgMS4xNTktMi41NiAyLjI0NS01LjE1NiAzLjI4Ny03Ljc2NiAxLjYyNC00LjA2NCAyLjkwOS04LjI0MiAzLjkwMy0xMi41MDMuNDQ2LTEuOTEzLjc4Ny0zLjg1NSAxLjA5LTUuNzk3LjIzNi0xLjUxOC40MzMtMy4wNTQuNDc3LTQuNTg2LjA0Ny0xLjYyNS0uMDQzLTMuMjYzLS4xOTMtNC44ODQtLjExMi0xLjIyNC0uNDE0LTIuNDU2LTEuMTgxLTMuNDUxLTEuMjMzLTEuNjAyLTIuNTY0LTMuMTM0LTQuMjAxLTQuMzQ2LTEuMzc4LTEuMDIxLTIuNzUxLTIuMDY4LTQuMjMtMi45MjctMi4zNDUtMS4zNi00Ljg4My0yLjI2Ni03LjUzNS0yLjg4My0yLjU4OC0uNjAzLTUuMjEtLjg2My03Ljg0OS0uOTE4LTEuNTU2LS4wMzMtMy4xMTkuMTM0LTQuNjcyLjI4LTEuNDA3LjEzMi0yLjgwNS4zNTctNC4yMjIuNTQzIDEuNTIuODU1IDMuMDE5IDEuNjE1IDQuNDMzIDIuNTExIDIuOTczIDEuODgzIDUuNjM3IDQuMTQ5IDcuOTI0IDYuODMxek01NS4yOTkgNzIuNTE0Yy45NjEtMy4wNzMgMi4yNy02LjAwNyAzLjUzOC04Ljk1OSAxLjAyOC0yLjM5NCAxLjU5LTQuOTE2IDEuNzc3LTcuNTA2LjA5My0xLjI3Ny4wNjctMi41Ny4wMDQtMy44NTEtLjA3MS0xLjQyMy0uMTg1LTIuODUtLjM5Mi00LjI1OS0uMjY2LTEuODAxLS41NjktMy42MDMtLjk5NS01LjM3MS0uNDYyLTEuOTEzLTEuNjI3LTMuMjQ1LTMuNjIzLTMuNzM2LTEuMjE2LS4yOTktMi40MjQtLjI4Ny0zLjY1My0uMDkzLTMuMDAyLjQ3My01Ljc1IDEuNTc5LTguMzEgMy4xOTktLjUxNS4zMjYtLjc5OC41ODktLjcwOSAxLjMyOC4xODggMS41NjUuMjI5IDMuMTU1LjIyMiA0LjczNS0uMDEgMi4yMzYtLjEwNSA0LjQ3Mi0uMTkgNi43MDctLjAyOC43MjgtLjEzMyAxLjQ1Mi0uMjExIDIuMTc3LS4xMiAxLjExLS4zNTEgMi4yMTktLjM0NCAzLjMyNy4wMDcgMS4xNDIuMTI0IDIuMzExLjQwMSAzLjQxNy44OCAzLjUwNyAyLjc0NCA2LjM3NyA1Ljc5OSA4LjQwMiAxLjg3OSAxLjI0NSAzLjk1OCAxLjg3MyA2LjI0IDEuOTkyLjE1NS0uNTI0LjI5My0xLjAxOS40NDYtMS41MDl6bS0zLjU4Ni0zMC4wODdjLS40MDItLjg0NC0uMTcyLTEuNTQzLjc2LTEuODY3LjIyNy0uMDguNDYxLS4xNjUuNjk3LS4xODguMzI0LS4wMzIuNjU0LS4wMDguOTgyLS4wMDggMS4xODIuMDA2IDIuMzE5LjE3MSAzLjI5NS45MjMuNjI2LjQ4Mi43OTQgMS4xMjIuMzg5IDEuNzc5LS41NzUuOTMyLTEuNDUyIDEuNC0yLjUyOSAxLjQ5LTEuNjk3LjE0MS0yLjg4OC0uNjUtMy41OTQtMi4xMjl6TTk4Ljc1MyA0Mi4xMTljLjEzNi0xLjEyNC4yNDUtMi4yNTEuMzg0LTMuMzc1LjA1Ni0uNDUyLS4xODItLjU3NC0uNTYxLS41ODUtMS4xOTItLjAzMy0yLjM4NC0uMDc1LTMuNTc2LS4wOTctMS4zNDQtLjAyNC0yLjY1Mi4xOTItMy44OTYuNzAzLTEuMzguNTY4LTIuNDMxIDEuNDc4LTIuODYgMi45OC0uMzIgMS4xMi0uNDA2IDIuMjM5LS4yOTMgMy40MS4xNzIgMS43ODUuNTY4IDMuNTE3IDEuMTkzIDUuMTc2LjgzNCAyLjIyMSAxLjcwNyA0LjQ0MSAyLjc1IDYuNTY5IDEuNDEzIDIuODgxIDMuMDEyIDUuNjcgNC41MTMgOC41MDcuNDAxLjc1Ny43MzggMS41NDcgMS4xNTYgMi40MzEuODc1LTEuODUzIDEuMzAyLTMuNzA4IDEuMzUxLTUuNjIyLjA0MS0xLjYxLS4wODgtMy4yMjctLjE4Mi00LjgzOC0uMDU5LS45ODYtLjE5OC0xLjk2Ni0uMjk0LTIuOTUtLjEzNC0xLjM3MS0uMzM3LTIuNzQxLS4zNjgtNC4xMTUtLjAzMS0xLjM5Ny4wNjgtMi44MDIuMTg4LTQuMTk3LjExMy0xLjMzOC4zMzQtMi42NjUuNDk1LTMuOTk3em0tMi42ODktMS4wODJjLS40NDMgMS4yMjMtMS4zOSAxLjkxMy0yLjYxOCAyLjExNi0xLjE0NS4xODgtMi4xNDgtLjIzNS0yLjg5NC0xLjE0OC0uNTMxLS42NS0uMzI4LTEuNDIuNDY4LTEuODU5LjkxNC0uNTA2IDEuOTE5LS42MzQgMy4xMDQtLjcxMS4zMjIuMDU5LjgwNy4xMDggMS4yNjguMjQuNjY5LjE4OS45MTYuNjkyLjY3MiAxLjM2MnpNNjAuNjQyIDc4LjY5N2MtLjY1NS0uNTM1LTEuNTIxLS41NjYtMi4xNDQuMDIxLS43NzMuNzMtMS40NTMgMS41NjUtMi4xMzMgMi4zODgtLjc4NS45NTEtMS41MjEgMS45NC0yLjUzNCAyLjY3Ny0xLjQ3NCAxLjA3MS0zLjE5MiAxLjUxNS00LjkxOSAxLjkzNS0xLjM3My4zMzQtMi43NTIuNjQ0LTQuMTI5Ljk2NWwtLjAxNy4xNzhjLjQwOS4xODkuODA1LjQyNSAxLjIzMS41NiAyLjEuNjY1IDQuMjM2Ljk5NiA2LjQ1NS44MDggMS42MDItLjEzNiAzLjEyOC0uNDg1IDQuNTc0LTEuMTcxIDEuOTktLjk0MyAzLjUyMS0yLjQzNyA0LjgyMy00LjE3NS4yMTgtLjI5LjMxNy0uNzE5LjM0My0xLjA5My4wODktMS4zMjEtLjU4Mi0yLjMwMy0xLjU1LTMuMDkzek0xMTIuMzkzIDc5LjIyM2MtMS42OS4xODEtMy4zODIuMzczLTUuMDc3LjQ3LS44MTguMDQ3LTEuNjQ4LS4xMDktMi40NzQtLjE3Ni0xLjM4NS0uMTEyLTIuNzM3LS40Mi0zLjkwOC0xLjE2LS42NzgtLjQyNy0xLjI0MS0uNDc1LTEuOTYxLS4yMzMtMS4wMjguMzQ2LTEuODY3Ljg3Mi0yLjExNSAxLjk4Ni0uMTY5Ljc1My0uMjMgMS41MzMtLjI5OCAyLjMwNC0uMDEzLjEzNi4xNTcuMzg2LjI4Ny40Mi43OTMuMjA5IDEuNTkuNDU2IDIuNDAxLjUyOS45OTYuMDkgMi4wMS4wNjEgMy4wMTMuMDExIDEuMDgzLS4wNTQgMi4xNzMtLjEyNCAzLjI0LS4zMDQgMi41MTUtLjQyMiA0Ljk0OC0xLjExIDcuMTA5LTIuNTM2Ljc3OS0uNTE1IDEuNTUxLTEuMDQxIDIuMzI1LTEuNTYybC0uMDY0LS4xMWMtLjgyNi4xMjMtMS42NDguMjczLTIuNDc4LjM2MXoiIGZpbGw9IiMzMzY3OTEiIGNsaXAtcnVsZT0iZXZlbm9kZCIgZmlsbC1ydWxlPSJldmVub2RkIi8+PC9zdmc+;" parent="Uf2jo-MEsTMQwNn6tAHI-38" vertex="1">
          <mxGeometry x="25" width="70" height="70" as="geometry" />
        </mxCell>
        <mxCell id="Uf2jo-MEsTMQwNn6tAHI-47" value="" style="group" parent="Uf2jo-MEsTMQwNn6tAHI-1" vertex="1" connectable="0">
          <mxGeometry x="20" y="40" width="120" height="95" as="geometry" />
        </mxCell>
        <mxCell id="Uf2jo-MEsTMQwNn6tAHI-48" value="" style="shape=image;verticalLabelPosition=bottom;labelBackgroundColor=default;verticalAlign=top;aspect=fixed;imageAspect=0;image=data:image/svg+xml,PHN2ZyB2aWV3Qm94PSIwIDAgMzIgMzIiIHhtbG5zPSJodHRwOi8vd3d3LnczLm9yZy8yMDAwL3N2ZyI+PHRpdGxlPmZpbGVfdHlwZV9uZ2lueDwvdGl0bGU+PHBhdGggc3R5bGU9ImZpbGw6IzAxOTYzOSIgZD0iTTE1Ljk0OCwyaC4wNjVhMTAuNDE4LDEwLjQxOCwwLDAsMSwuOTcyLjUyOFEyMi40MTQsNS42NSwyNy44NDMsOC43NzRhLjc5Mi43OTIsMCwwLDEsLjQxNC43ODhjLS4wMDgsNC4zODksMCw4Ljc3Ny0uMDA1LDEzLjE2NGEuODEzLjgxMywwLDAsMS0uMzU2LjUwN3EtNS43NzMsMy4zMjQtMTEuNTQ3LDYuNjQ0YS41ODcuNTg3LDAsMCwxLS42NTcuMDM3UTkuOTEyLDI2LjYsNC4xNDMsMjMuMjc0YS43LjcsMCwwLDEtLjQtLjY2NnEwLTYuNTgyLDAtMTMuMTYzYS42OTMuNjkzLDAsMCwxLC4zODctLjY3UTkuNTUyLDUuNjU3LDE0Ljk3NCwyLjUzNWMuMzIyLS4xODQuNjM4LS4zNzkuOTc0LS41MzUiLz48cGF0aCBzdHlsZT0iZmlsbDojZmZmIiBkPSJNOC43NjcsMTAuNTM4cTAsNS40MjksMCwxMC44NTlhMS41MDksMS41MDksMCwwLDAsLjQyNywxLjA4NywxLjY0NywxLjY0NywwLDAsMCwyLjA2LjIwNiwxLjU2NCwxLjU2NCwwLDAsMCwuNjg1LTEuMjkzYzAtMi42Mi0uMDA1LTUuMjQsMC03Ljg2cTMuNTgzLDQuMjksNy4xODEsOC41NjhhMi44MzMsMi44MzMsMCwwLDAsMi42Ljc4MiwxLjU2MSwxLjU2MSwwLDAsMCwxLjI1MS0xLjM3MXEuMDA4LTUuNTQxLDAtMTEuMDgxYTEuNTgyLDEuNTgyLDAsMCwwLTMuMTUyLDBjMCwyLjY2Mi0uMDE2LDUuMzIxLDAsNy45ODItMi4zNDYtMi43NjYtNC42NjMtNS41NTYtNy04LjMzMkEyLjgxNywyLjgxNywwLDAsMCwxMC4xNyw5LjAzMywxLjU3OSwxLjU3OSwwLDAsMCw4Ljc2NywxMC41MzhaIi8+PC9zdmc+;" parent="Uf2jo-MEsTMQwNn6tAHI-47" vertex="1">
          <mxGeometry x="25" width="70" height="70" as="geometry" />
        </mxCell>
        <mxCell id="Uf2jo-MEsTMQwNn6tAHI-49" value="Webproxy" style="text;whiteSpace=wrap;html=1;align=center;verticalAlign=middle;" parent="Uf2jo-MEsTMQwNn6tAHI-47" vertex="1">
          <mxGeometry y="75" width="120" height="20" as="geometry" />
        </mxCell>
        <mxCell id="Uf2jo-MEsTMQwNn6tAHI-59" value="" style="group" parent="Uf2jo-MEsTMQwNn6tAHI-1" vertex="1" connectable="0">
          <mxGeometry x="20" y="150" width="120" height="95" as="geometry" />
        </mxCell>
        <mxCell id="Uf2jo-MEsTMQwNn6tAHI-60" value="" style="shape=image;verticalLabelPosition=bottom;labelBackgroundColor=default;verticalAlign=top;aspect=fixed;imageAspect=0;image=data:image/svg+xml,PHN2ZyBoZWlnaHQ9IjY0IiB3aWR0aD0iNjQiIHhtbG5zPSJodHRwOi8vd3d3LnczLm9yZy8yMDAwL3N2ZyIgdmlld0JveD0iMCAwIDY0IDY0Ij48cGF0aCBmaWxsPSIjNDk5ODQ4IiBkPSJNMjcuMDUzIDUzLjM3Yy0uNy0uMjI2LS43LS4zMjUtLjA1OC0yLjMwN3MuMzUzLTMuODE4LS44NTUtNS4yNjNjLTEuNjQ0LTEuOTY1LTIuNDM1LTMuNjQyLTIuNjg3LTUuNjkzLS4yMTctMS43Ni0uMjg1LTEuOS0xLjAwMi0yLjA0LS40OC0uMDkyLTEuMTQ1LjEtMi43My43NS0yLjMwNC45Ni0yLjg1MyAxLjM4My0zLjM5NiAyLjYxMi0uMjg2LjY0Ni0uMzIgMS4wMzItLjE1OCAxLjc4LjE5OC45MTIgMS4wMDggMi4zOCAxLjMxNSAyLjM4LjA4LjAwMS41MjMuMzA0Ljk4My42NzMuNzY0LjYxNC44MTcuNzIuNiAxLjIyLS40NyAxLjA4Ny0xLjU4NyAyLjQwNS0yLjAzOCAyLjQwNS0uMjUzIDAtMS4yODYtLjcyNC0yLjQyNC0xLjY5OC0yLjIzNC0xLjkxMy0yLjMyOC0yLjEwNS0yLjU2LTUuMjQtLjI3NS0zLjc0Mi42NDUtNS40ODggNC43NDMtOWwyLjU3LTIuMjAzLjE2NC0xLjMzN2MuMTctMS4zNzgtLjA3LTQuNjYtLjQ3LTYuNDctLjIzNy0xLjA3LTEuMDItMi4xLTEuNzYtMi4yOTUtLjgtLjIyNC0xLjI4Mi4yNC0xLjg5OCAxLjg1My0uNjY0IDEuNzQyLTEuMjk4IDIuMzUtMi40NTIgMi4zNS0uNzIgMC0xLjQtLjQ2LTEuODUzLTEuMjctLjMzMi0uNTgtLjUyNS00LjA3LS4zMjYtNS45MDYuMDk1LS44ODMuMS0xLjc3OC4wMTItMS45ODgtLjE0NC0uMzQtMS4zODgtMS4wOC00LjMyLTIuNTY1LS41MzMtLjI3LTEuMTU1LS42MzQtMS4zOC0uODA4cy0uODE0LS40OTUtMS4zMDYtLjcxMmMtMS4xMTQtLjQ5Mi00LjAyLTIuMi0zLjc0Ny0yLjIuNTE1IDAgMi42OTUuNjcgMy44NTYgMS4xODcuNy4zMTUgMS4zODcuNTcyIDEuNTA3LjU3MnMxLjQ4Ny40NCAzLjAzNi45NzcgMi45NjUuOTc3IDMuMTQ3Ljk3N2MuNDMgMCAuNDk4LS4zNzMuMzYtMS45ODgtLjA2My0uNzM0LS4wNi0xLjMzNC4wMDYtMS4zMzRzLjM1Mi4xNDIuNjM0LjMxNWMuODY0LjUzIDIuNzIzLjg1MyA0LjkwNy44NTYgMi4xLjAwMiA0LjgxNS40MTcgNS44NTguOSAxLjQ5NS42OCAzLjIzIDIuOCA1LjQzIDYuNjQzIDEuNTMgMi42NyAzLjE3MiAzLjgwMiA1LjUyNyAzLjgwNC45NTIuMDAxIDMuNDkyLS40IDYuOTMtMS4wNyAyLjgzNi0uNTYgNi41OC0uNjg2IDguMDMzLS4yNyAxLjc3My41MDcgNC4xMTcgMS44NjQgNi4wNTUgMy41MDQgMS44MTQgMS41MzUgMi4wOTMgMS44NzYgMy4yMDggMy45MTMgMS4zMyAyLjQzIDIuNzk4IDUuODg3IDQuMTAzIDkuNjYuMTg2LjUzNy41OCAxLjQ0Mi44NzMgMiAuNzg1IDEuNTE0Ljc0NiAxLjYwNy0uNjggMS42MDctMS41NDggMC0yLjI3NC0uMjQ0LTMuMjg4LTEuMTA2LS45NzMtLjgyNi0xLjIyNy0xLjMzMi0yLjc1LTUuNDctLjc4LTIuMTItMS41NC0zLjM5Mi0yLjAyNS0zLjM5Mi0uMzMzIDAtMS4wMDYgMi4yNzItMS4wMDYgMy4zOTQgMCAuNzk3LjUgMS44NzQgMS44IDMuODYgMi4wOTggMy4yMjggMy4yMDIgNy44IDIuNzYgMTEuNGwtLjIgMS41NjQtMS4zOTguMDU4Yy0yLjIuMDkyLTIuMTguMTIyLTIuMTgtMy4wMjYgMC0zLjM1LS4yMjgtNC4wNzctMS43MDctNS40MjgtLjYxNC0uNTYtMS45OTItMi4xNTYtMy4wNjItMy41NDRzLTIuMDk1LTIuNTI0LTIuMjc3LTIuNTI0Yy0uNDIgMC0uNjI4IDEuMTQtLjY1IDMuNTUyLS4wMTUgMS41ODgtLjA3NyAxLjg1Ni0uNTQ2IDIuMzQ1LTEuMjcgMS4zMjYtMi4xNiAzLjc0LTIuNyA3LjM0NC0uMTIyLjc5Ny0uMjI2Ljk0Ny0uNzQzIDEuMDYzLS43Ni4xNy0yLjg2Ni4yLTMuMDQ4LjA0LS4xNTctLjEzNi4xMTgtMi4zMDIuNzQtNS44NDJhNjIuMzIgNjIuMzIgMCAwIDAgLjU3My00LjAwN2MuMTQtMS41My0uMTczLTQuNC0uNTQ1LTQuOTgtLjE1NC0uMjQtLjk0LS4yOTQtNC42Mi0uMzA3LTIuNDQtLjAxLTUuMTEzLS4xLTUuOTQzLS4xNzhsLTEuNS0uMTYydi42N2MwIC43MTcuMTg0IDEuMzUgMS40MTMgNC44NmExNTkuNjEgMTU5LjYxIDAgMCAxIDEuMzk0IDQuMTg4bC42MDcgMS45NC0uNTEyIDEuNTc4Yy0uMjgyLjg2OC0uNyAxLjkwOC0uOTMgMi4zLS40MDQuNy0uNDUyLjczMi0xLjU4Ni43MTgtLjY0My0uMDEtMS40NTYtLjEwNy0xLjgwNi0uMjE4eiIvPjwvc3ZnPg==;" parent="Uf2jo-MEsTMQwNn6tAHI-59" vertex="1">
          <mxGeometry x="25" width="70" height="70" as="geometry" />
        </mxCell>
        <mxCell id="Uf2jo-MEsTMQwNn6tAHI-61" value="Webserver" style="text;whiteSpace=wrap;html=1;align=center;verticalAlign=middle;" parent="Uf2jo-MEsTMQwNn6tAHI-59" vertex="1">
          <mxGeometry y="75" width="120" height="20" as="geometry" />
        </mxCell>
        <mxCell id="Uf2jo-MEsTMQwNn6tAHI-71" value="" style="group" parent="Uf2jo-MEsTMQwNn6tAHI-1" vertex="1" connectable="0">
          <mxGeometry x="20" y="270" width="120" height="95" as="geometry" />
        </mxCell>
        <mxCell id="Uf2jo-MEsTMQwNn6tAHI-72" value="" style="shape=image;verticalLabelPosition=bottom;labelBackgroundColor=default;verticalAlign=top;aspect=fixed;imageAspect=0;image=data:image/svg+xml,PHN2ZyB4bWxucz0iaHR0cDovL3d3dy53My5vcmcvMjAwMC9zdmciIHZpZXdCb3g9IjAgMCAyNCAyNCIgcm9sZT0iaW1nIj48dGl0bGU+Q2VsZXJ5PC90aXRsZT48cGF0aCBkPSJNMi4zMDMgMEEyLjI5OCAyLjI5OCAwIDAgMCAwIDIuMzAzdjE5LjM5NEEyLjI5OCAyLjI5OCAwIDAgMCAyLjMwMyAyNGgxOS4zOTRBMi4yOTggMi4yOTggMCAwIDAgMjQgMjEuNjk3VjIuMzAzQTIuMjk4IDIuMjk4IDAgMCAwIDIxLjY5NyAwem04LjE3NyAzLjA3MmM0LjA5OCAwIDcuMDI4IDEuNDM4IDcuNjggMS43NjRsLTEuMTk0IDIuNTVjLTIuNDQyLTEuMDU3LTQuOTkzLTEuNDEtNS42NzItMS40MS0xLjU3NCAwLTIuMTcuOTIyLTIuMTcgMS43NjN2OC40OTRjMCAuODY5LjU5NiAxLjc5MSAyLjE3IDEuNzkxLjY3OSAwIDMuMjMtLjM4IDUuNjcyLTEuNDFsMS4xOTQgMi40OTZjLS40MzUuMjcxLTMuNjM3IDEuODE4LTcuNjggMS44MTgtMS4xMTIgMC00LjY0LS4yNDQtNC42NC00LjY0VjcuNzEzYzAtNC4zOTcgMy41MjgtNC42NCA0LjY0LTQuNjR6IiBmaWxsPSIjMzc4MTRBIi8+PC9zdmc+;" parent="Uf2jo-MEsTMQwNn6tAHI-71" vertex="1">
          <mxGeometry x="25" width="70" height="70" as="geometry" />
        </mxCell>
        <mxCell id="Uf2jo-MEsTMQwNn6tAHI-73" value="Task Worker(s)" style="text;whiteSpace=wrap;html=1;align=center;verticalAlign=middle;" parent="Uf2jo-MEsTMQwNn6tAHI-71" vertex="1">
          <mxGeometry y="75" width="120" height="20" as="geometry" />
        </mxCell>
        <mxCell id="y09WANP1Xz8XOMxPSsqu-0" value="" style="group" parent="Uf2jo-MEsTMQwNn6tAHI-1" vertex="1" connectable="0">
          <mxGeometry x="20" y="620" width="120" height="95" as="geometry" />
        </mxCell>
        <mxCell id="y09WANP1Xz8XOMxPSsqu-1" value="" style="shape=image;verticalLabelPosition=bottom;labelBackgroundColor=default;verticalAlign=top;aspect=fixed;imageAspect=0;image=data:image/svg+xml,PHN2ZyB4bWw6c3BhY2U9InByZXNlcnZlIiBzdHlsZT0iZW5hYmxlLWJhY2tncm91bmQ6bmV3IC05MDkgMjI2IDEwMCAxMDA7IiB2aWV3Qm94PSItOTA5IDIyNiAxMDAgMTAwIiBoZWlnaHQ9IjEwMHB4IiB3aWR0aD0iMTAwcHgiIHk9IjBweCIgeD0iMHB4IiB4bWxuczp4bGluaz0iaHR0cDovL3d3dy53My5vcmcvMTk5OS94bGluayIgeG1sbnM9Imh0dHA6Ly93d3cudzMub3JnLzIwMDAvc3ZnIiBpZD0iTGF5ZXJfMSIgdmVyc2lvbj0iMS4xIj4mI3hhOzxwYXRoIGQ9Ik0tODEzLjEsMjQ1LjF2LTAuM2wtMC40LTAuN2MtMi44LTkuMy0yMC43LTE1LjUtNDUtMTUuNWMtMjMuOCwwLTQyLjIsNi4zLTQ1LDE1LjVsLTAuNCwwLjRsMCw2My44bDAuMiwwLjcmI3hBOyYjOTtjMi40LDkuMiwyMS40LDE1LjksNDUuMiwxNS45YzIwLjUsMCw0Mi42LTUuNCw0NS4yLTE1LjhsMC4yLTAuOEwtODEzLjEsMjQ1LjFMLTgxMy4xLDI0NS4xeiBNLTg5OSwyNDYuM2wwLjItMC42JiN4QTsmIzk7YzEuMy01LDE0LjctMTIuMSw0MC4zLTEyLjFjMjUuNywwLDM5LDcuMSw0MC4zLDEyLjJsMC4xLDAuNGwwLjEsMC4xdjEuNWMtNCwzLTEzLjIsNS44LTI1LjYsNy4yYy0wLjYsMC4xLTEuMSwwLjEtMS43LDAuMiYjeEE7JiM5O2MtMC4xLDAtMC4yLDAtMC4zLDBjLTQuMSwwLjQtOC40LDAuNi0xMi44LDAuNmMtMTAuNiwwLTIwLjgtMS4yLTI5LTMuMmMtNS4zLTEuNC05LjItMy0xMS41LTQuN1YyNDYuM3ogTS04OTguOSwyNzQuMSYjeEE7JiM5O2M3LjksMy42LDIwLjIsNi4xLDMzLjYsNi42YzAuMywwLDAuNiwwLDEsMGMwLjMsMCwwLjYsMCwwLjksMGw5LjgsMGMxNC4yLTAuNCwyNy4yLTIuOSwzNS40LTYuN3YxMy41Yy0wLjMsMC4yLTAuNiwwLjMtMC45LDAuNSYjeEE7JiM5O2MtNiwyLjMtMjIuNSw4LjEtMzkuNCw4LjFjLTMuNywwLTcuMi0wLjEtMTAuNi0wLjRjMCwwLDAsMC0wLjEsMGMtMS0wLjEtMi0wLjItMy0wLjNjLTAuMywwLTAuNS0wLjEtMC44LTAuMSYjeEE7JiM5O2MtMC44LTAuMS0xLjYtMC4yLTIuMy0wLjNjLTAuMywwLTAuNS0wLjEtMC43LTAuMWMtMC44LTAuMS0xLjctMC4yLTIuNS0wLjNjMCwwLTAuMSwwLTAuMSwwYy05LjctMS41LTE2LjktNC0yMC40LTYuNVYyNzQuMXomI3hBOyYjOTsgTS04MTguMSwzMDcuNmwwLDAuMmMtMS41LDUuNy0xOC40LDEyLjEtNDAuNCwxMi4xYy0yNC40LDAtMzkuMS03LjEtNDAuNC0xMi4ybDAtMC4ydi0xMy4yYzQuNywyLjEsMTAuOSwzLjksMTgsNSYjeEE7JiM5O2MzLjIsMC41LDYuNywxLDEwLjUsMS4zYzAuMiwwLDAuMywwLDAuNSwwYzAuNSwwLDEuMSwwLjEsMS42LDAuMWMzLjIsMC4yLDYuNSwwLjMsOS44LDAuM2MxNi44LDAsMzEuOC0zLjgsNDAuNC04VjMwNy42eiYjeEE7JiM5OyBNLTgxOCwyNjcuOGMtMC4xLDAtMC4xLDAuMS0wLjIsMC4xYy0wLjQsMC4zLTAuOSwwLjYtMS40LDAuOWMtMS4xLDAuNi0yLjQsMS4yLTMuOSwxLjhjLTMuNCwxLjMtNy4yLDIuMy0xMS45LDMuMiYjeEE7JiM5O2MtNS45LDEuMS0xMS40LDEuNy0xNi41LDEuOGwtNSwwLjFjLTAuNywwLTEuNSwwLTIuMiwwLjFjLTEuNywwLTMuMywwLjEtNSwwLjFjLTAuMywwLTAuNiwwLTAuOSwwYy0wLjQsMC0wLjcsMC0xLjEtMC4xbC0xLjUtMC4xJiN4QTsmIzk7Yy0yLjMtMC4yLTQuOC0wLjQtNy4xLTAuNmMtNS4yLTAuNi05LjgtMS41LTE0LTIuN2MtMi42LTAuNy01LjktMS44LTguOS0zLjVjLTAuNS0wLjMtMC45LTAuNi0xLjMtMC44di0xMy45YzIuNywxLjIsNiwyLjQsOS42LDMuMyYjeEE7JiM5O2M3LjgsMi4xLDE4LjIsMy42LDMwLjcsMy42YzcuMSwwLDEzLjUtMC41LDE5LjEtMS4yYzguNi0xLjEsMTYtMy4xLDIxLjMtNS42VjI2Ny44eiIvPiYjeGE7PC9zdmc+;" parent="y09WANP1Xz8XOMxPSsqu-0" vertex="1">
          <mxGeometry x="25" width="70" height="70" as="geometry" />
        </mxCell>
        <mxCell id="y09WANP1Xz8XOMxPSsqu-2" value="File Storage" style="text;whiteSpace=wrap;html=1;verticalAlign=middle;align=center;" parent="y09WANP1Xz8XOMxPSsqu-0" vertex="1">
          <mxGeometry y="75" width="120" height="20" as="geometry" />
        </mxCell>
        <mxCell id="y09WANP1Xz8XOMxPSsqu-3" value="" style="group" parent="Uf2jo-MEsTMQwNn6tAHI-1" vertex="1" connectable="0">
          <mxGeometry x="20" y="380" width="120" height="95" as="geometry" />
        </mxCell>
        <mxCell id="y09WANP1Xz8XOMxPSsqu-4" value="" style="shape=image;verticalLabelPosition=bottom;labelBackgroundColor=default;verticalAlign=top;aspect=fixed;imageAspect=0;image=data:image/svg+xml,PHN2ZyB2aWV3Qm94PSIwIDAgMTI4IDEyOCIgeG1sbnM9Imh0dHA6Ly93d3cudzMub3JnLzIwMDAvc3ZnIj48ZyBmaWxsPSIjRDgyQzIwIj48cGF0aCBkPSJNNi4yIDUyLjdjNi43IDMuMiA0My43IDE4LjEgNDkuNSAyMC45IDUuOCAyLjggMTAgMi44IDE3LjQtMSA3LjQtMy45IDQyLjItMTguMSA0OC45LTIxLjYgMy40LTEuOCA0LjktMy4yIDQuOS00LjR2LTEyLjVjMC0xLjMtMS43LTIuNC01LTMuNi02LjUtMi40LTQxLjEtMTYuMS00Ny43LTE4LjYtNi42LTIuNC05LjMtMi4zLTE3LjEuNS03LjggMi44LTQ0LjUgMTcuMi01MS4xIDE5LjgtMy4yIDEuMy01IDIuNC01IDMuN2gtLjJ2MTIuN2MuMiAxLjIgMi4xIDIuNSA1LjQgNC4xem02MC40IDEuOGwtMjAuMy04LjQgMjkuMS00LjUtOC44IDEyLjl6bTQ0LjEtMjBsLTE3LjIgNi44LTEuOS43LTE3LjItNi44IDE5LjEtNy41IDE3LjIgNi44em0tNTAuNi0xMi41bC0yLjgtNS4yIDguOCAzLjQgOC4zLTIuNy0yLjIgNS40IDguNCAzLjItMTAuOSAxLjEtMi40IDUuOS0zLjktNi41LTEyLjYtMS4xIDkuMy0zLjV6bS0yMS43IDcuM2M4LjYgMCAxNS42IDIuNyAxNS42IDZzLTcgNi0xNS42IDYtMTUuNi0yLjctMTUuNi02IDctNiAxNS42LTZ6TTEyMiA1OS44Yy02LjcgMy41LTQxLjQgMTcuOC00OC44IDIxLjYtNy40IDMuOS0xMS41IDMuOC0xNy4zIDEtNS44LTIuOC00My0xNy43LTQ5LjYtMjAuOS0zLjQtMS42LTUuMy0yLjktNS4zLTQuMnYxMi43YzAgMS4zIDEuOSAyLjYgNS4yIDQuMiA2LjcgMy4yIDQzLjcgMTguMSA0OS41IDIwLjkgNS44IDIuOCAxMCAyLjggMTcuNC0xIDcuNC0zLjkgNDIuMi0xOC4xIDQ4LjktMjEuNiAzLjQtMS44IDQuOS0zLjIgNC45LTQuNHYtMTIuNWMwIDEuMS0xLjYgMi41LTQuOSA0LjJ6TTEyMiA4MC41Yy02LjcgMy41LTQxLjQgMTcuOC00OC44IDIxLjYtNy40IDMuOS0xMS41IDMuOC0xNy4zIDEtNS44LTIuOC00My0xNy43LTQ5LjYtMjAuOS0zLjQtMS41LTUuMy0yLjktNS4zLTQuMnYxMi43YzAgMS4zIDEuOSAyLjYgNS4yIDQuMiA2LjcgMy4yIDQzLjcgMTguMSA0OS41IDIwLjkgNS44IDIuOCAxMCAyLjggMTcuNC0xIDcuNC0zLjkgNDIuMi0xOC4xIDQ4LjktMjEuNiAzLjQtMS44IDQuOS0zLjIgNC45LTQuNHYtMTIuNWMwIDEuMi0xLjYgMi41LTQuOSA0LjJ6Ii8+PC9nPjwvc3ZnPg==;" parent="y09WANP1Xz8XOMxPSsqu-3" vertex="1">
          <mxGeometry x="25" width="70" height="70" as="geometry" />
        </mxCell>
        <mxCell id="y09WANP1Xz8XOMxPSsqu-5" value="Job Cache" style="text;whiteSpace=wrap;html=1;align=center;verticalAlign=middle;" parent="y09WANP1Xz8XOMxPSsqu-3" vertex="1">
          <mxGeometry y="75" width="120" height="20" as="geometry" />
        </mxCell>
        <mxCell id="y09WANP1Xz8XOMxPSsqu-6" value="" style="edgeStyle=orthogonalEdgeStyle;rounded=0;orthogonalLoop=1;jettySize=auto;html=1;entryX=0;entryY=0.5;entryDx=0;entryDy=0;exitX=1;exitY=0.5;exitDx=0;exitDy=0;" parent="Uf2jo-MEsTMQwNn6tAHI-1" source="QiDiUrZGB9I0AOXDtaoh-12" edge="1">
          <mxGeometry relative="1" as="geometry">
            <mxPoint x="410" y="362.5" as="targetPoint" />
            <Array as="points">
              <mxPoint x="295" y="415" />
              <mxPoint x="330" y="415" />
              <mxPoint x="330" y="363" />
            </Array>
          </mxGeometry>
        </mxCell>
        <mxCell id="y09WANP1Xz8XOMxPSsqu-7" style="edgeStyle=orthogonalEdgeStyle;rounded=0;orthogonalLoop=1;jettySize=auto;html=1;entryX=0;entryY=0.25;entryDx=0;entryDy=0;" parent="Uf2jo-MEsTMQwNn6tAHI-1" source="QiDiUrZGB9I0AOXDtaoh-16" edge="1">
          <mxGeometry relative="1" as="geometry">
            <mxPoint x="410" y="345" as="targetPoint" />
            <Array as="points">
              <mxPoint x="330" y="305" />
              <mxPoint x="330" y="345" />
            </Array>
          </mxGeometry>
        </mxCell>
        <mxCell id="y09WANP1Xz8XOMxPSsqu-8" style="edgeStyle=orthogonalEdgeStyle;rounded=0;orthogonalLoop=1;jettySize=auto;html=1;exitX=1;exitY=0.5;exitDx=0;exitDy=0;entryX=0;entryY=0;entryDx=0;entryDy=0;" parent="Uf2jo-MEsTMQwNn6tAHI-1" source="Uf2jo-MEsTMQwNn6tAHI-60" edge="1">
          <mxGeometry relative="1" as="geometry">
            <mxPoint x="410" y="327.5" as="targetPoint" />
            <Array as="points">
              <mxPoint x="350" y="185" />
              <mxPoint x="350" y="328" />
            </Array>
          </mxGeometry>
        </mxCell>
        <mxCell id="y09WANP1Xz8XOMxPSsqu-9" style="edgeStyle=orthogonalEdgeStyle;rounded=0;orthogonalLoop=1;jettySize=auto;html=1;" parent="Uf2jo-MEsTMQwNn6tAHI-1" source="QiDiUrZGB9I0AOXDtaoh-3" edge="1">
          <mxGeometry relative="1" as="geometry">
            <mxPoint x="410" y="310" as="targetPoint" />
            <Array as="points">
              <mxPoint x="370" y="75" />
              <mxPoint x="370" y="310" />
            </Array>
          </mxGeometry>
        </mxCell>
        <mxCell id="y09WANP1Xz8XOMxPSsqu-10" style="edgeStyle=orthogonalEdgeStyle;rounded=0;orthogonalLoop=1;jettySize=auto;html=1;entryX=0;entryY=0.75;entryDx=0;entryDy=0;" parent="Uf2jo-MEsTMQwNn6tAHI-1" source="QiDiUrZGB9I0AOXDtaoh-9" edge="1">
          <mxGeometry relative="1" as="geometry">
            <mxPoint x="410" y="380" as="targetPoint" />
            <Array as="points">
              <mxPoint x="350" y="535" />
              <mxPoint x="350" y="380" />
            </Array>
          </mxGeometry>
        </mxCell>
        <mxCell id="y09WANP1Xz8XOMxPSsqu-11" style="edgeStyle=orthogonalEdgeStyle;rounded=0;orthogonalLoop=1;jettySize=auto;html=1;exitX=1;exitY=0.5;exitDx=0;exitDy=0;entryX=0;entryY=1;entryDx=0;entryDy=0;" parent="Uf2jo-MEsTMQwNn6tAHI-1" source="y09WANP1Xz8XOMxPSsqu-1" edge="1">
          <mxGeometry relative="1" as="geometry">
            <mxPoint x="410" y="397.5" as="targetPoint" />
            <Array as="points">
              <mxPoint x="370" y="655" />
              <mxPoint x="370" y="398" />
            </Array>
          </mxGeometry>
        </mxCell>
        <mxCell id="kyppD4FBlEZI0NZwqeRG-0" value="" style="group" parent="Uf2jo-MEsTMQwNn6tAHI-1" vertex="1" connectable="0">
          <mxGeometry x="390" y="307" width="120" height="95" as="geometry" />
        </mxCell>
        <mxCell id="kyppD4FBlEZI0NZwqeRG-1" value="" style="shape=image;verticalLabelPosition=bottom;labelBackgroundColor=default;verticalAlign=top;aspect=fixed;imageAspect=0;image=data:image/svg+xml,PHN2ZyB4bWxucz0iaHR0cDovL3d3dy53My5vcmcvMjAwMC9zdmciIHZpZXdCb3g9IjAgMCAyNCAyNCIgcm9sZT0iaW1nIj48dGl0bGU+UHJvbWV0aGV1czwvdGl0bGU+PHBhdGggZD0iTTEyIDBDNS4zNzMgMCAwIDUuMzcyIDAgMTJjMCA2LjYyNyA1LjM3MyAxMiAxMiAxMnMxMi01LjM3MyAxMi0xMmMwLTYuNjI4LTUuMzczLTEyLTEyLTEyem0wIDIyLjQ2Yy0xLjg4NSAwLTMuNDE0LTEuMjYtMy40MTQtMi44MTRoNi44MjhjMCAxLjU1My0xLjUyOCAyLjgxMy0zLjQxNCAyLjgxM3ptNS42NC0zLjc0NUg2LjM2di0yLjA0NmgxMS4yOHYyLjA0NnptLS4wNC0zLjA5OEg2LjM5MWMtLjAzNy0uMDQzLS4wNzUtLjA4Ni0uMTExLS4xMy0xLjE1NS0xLjQwMS0xLjQyNy0yLjEzMy0xLjY5LTIuODc5LS4wMDUtLjAyNSAxLjQuMjg3IDIuMzk1LjUxMSAwIDAgLjUxMy4xMTkgMS4yNjIuMjU1LS43Mi0uODQzLTEuMTQ3LTEuOTE1LTEuMTQ3LTMuMDEgMC0yLjQwNiAxLjg0NS00LjUwOCAxLjE4LTYuMjA3LjY0OC4wNTMgMS4zNCAxLjM2NyAxLjM4NyAzLjQyMi42ODktLjk1MS45NzctMi42OS45NzctMy43NTUgMC0xLjEwMy43MjctMi4zODUgMS40NTQtMi40MjktLjY0OCAxLjA2OS4xNjggMS45ODQuODk0IDQuMjU2LjI3Mi44NTQuMjM3IDIuMjkuNDQ3IDMuMjAxLjA3LTEuODkyLjM5NS00LjY1MiAxLjU5NS01LjYwNS0uNTI5IDEuMi4wNzkgMi43MDIuNDk0IDMuNDI0LjY3MSAxLjE2NCAxLjA3OCAyLjA0NyAxLjA3OCAzLjcxNmE0LjY0MiA0LjY0MiAwIDAxLTEuMTEgMi45OTZjLjc5Mi0uMTQ5IDEuMzQtLjI4MyAxLjM0LS4yODNsMi41NzMtLjUwMnMtLjM3NCAxLjUzOC0xLjgxIDMuMDE5eiIgZmlsbD0iI2U2NTIyYyIvPjwvc3ZnPg==;" parent="kyppD4FBlEZI0NZwqeRG-0" vertex="1">
          <mxGeometry x="25" width="70" height="70" as="geometry" />
        </mxCell>
        <mxCell id="kyppD4FBlEZI0NZwqeRG-2" value="&lt;div&gt;Metrics&lt;/div&gt;&lt;div&gt;Gathering&lt;/div&gt;" style="text;whiteSpace=wrap;html=1;align=center;verticalAlign=middle;" parent="kyppD4FBlEZI0NZwqeRG-0" vertex="1">
          <mxGeometry y="75" width="120" height="20" as="geometry" />
        </mxCell>
        <mxCell id="WjcrpCToNUQVP_QAvP0H-0" value="" style="group" parent="Uf2jo-MEsTMQwNn6tAHI-1" vertex="1" connectable="0">
          <mxGeometry x="495" y="307" width="120" height="95" as="geometry" />
        </mxCell>
        <mxCell id="WjcrpCToNUQVP_QAvP0H-1" value="" style="shape=image;verticalLabelPosition=bottom;labelBackgroundColor=default;verticalAlign=top;aspect=fixed;imageAspect=0;image=data:image/svg+xml,PHN2ZyBoZWlnaHQ9IjY0IiB3aWR0aD0iNjQiIHhtbDpzcGFjZT0icHJlc2VydmUiIHZpZXdCb3g9IjAgMCA2NCA2NCIgeT0iMHB4IiB4PSIwcHgiIGlkPSJMYXllcl8xIiB2ZXJzaW9uPSIxLjEiIHhtbG5zOnhsaW5rPSJodHRwOi8vd3d3LnczLm9yZy8xOTk5L3hsaW5rIiB4bWxucz0iaHR0cDovL3d3dy53My5vcmcvMjAwMC9zdmciPjxtZXRhZGF0YSBpZD0ibWV0YWRhdGE1NiI+aW1hZ2Uvc3ZnK3htbDwvbWV0YWRhdGE+PGRlZnMgaWQ9ImRlZnM1NCI+JiN4YTsJJiN4YTsmI3hhOwkJPGRlZnMgaWQ9ImRlZnM1Ij4mI3hhOwkJCTxyZWN0IGhlaWdodD0iNTYzNi4yMDAyIiB3aWR0aD0iNDM1NS4yMDAyIiB5PSItMTQxMi4yIiB4PSItODQ5LjcwMDAxIiBpZD0iU1ZHSURfMV8iLz4mI3hhOwkJPC9kZWZzPiYjeGE7CQk8Y2xpcFBhdGggaWQ9IlNWR0lEXzJfIj4mI3hhOwkJCTx1c2UgaGVpZ2h0PSIxMDAlIiB3aWR0aD0iMTAwJSIgeT0iMCIgeD0iMCIgaWQ9InVzZTciIHN0eWxlPSJvdmVyZmxvdzp2aXNpYmxlIiB4bGluazpocmVmPSIjU1ZHSURfMV8iLz4mI3hhOwkJPC9jbGlwUGF0aD4mI3hhOwkJJiN4YTsJCSYjeGE7CSYjeGE7CQkJPGRlZnMgaWQ9ImRlZnMzMyI+JiN4YTsJCQkJPHBhdGggaWQ9IlNWR0lEXzVfIiBkPSJtIDEyMjkuNiwzMjguNiBjIDAsMCAtMC43LDIuOSAtMS42LDcuOCAtOC4zLDIuNCAtMTYuNiw0LjcgLTI0LjksNy40IC0xMS41LDMuNSAtMjIuOCw3LjcgLTM0LjMsMTEuOCAtMTEuMyw0LjQgLTIyLjgsOC44IC0zNCwxMy44IC0yMi42LDkuNyAtNDUsMjAuNiAtNjYuOSwzMi45IC0yMS4yLDExLjkgLTQyLjEsMjUgLTYyLjQsMzkuMiAtMi45LC0xLjQgLTUuMiwtMi40IC01LjIsLTIuNCAtMjA3LjMsLTc5LjIgLTM5MS40LDE2LjEgLTM5MS40LDE2LjEgLTE2LjgsMjIwLjUgODIuOCwzNTkuNSAxMDIuNSwzODQuNyAtNC45LDEzLjYgLTkuNSwyNy40IC0xMy43LDQxLjMgLTE1LjMsNTAgLTI2LjgsMTAxLjMgLTMzLjksMTU0LjMgLTEsNy42IC0xLjksMTUuMyAtMi44LDIzIC0xOTEuNSw5NC42IC0yNDguMywyODguNSAtMjQ4LjMsMjg4LjUgMTU5LjksMTgzLjkgMzQ2LjMsMTk1LjMgMzQ2LjMsMTk1LjMgMC4yLC0wLjEgMC4zLC0wLjMgMC41LC0wLjQgMjMuNyw0Mi4zIDUxLjEsODIuNiA4MiwxMjAuMSAxMi45LDE1LjcgMjYuNSwzMC45IDQwLjYsNDUuNiAtNTguMywxNjYuNyA4LjIsMzA1LjQgOC4yLDMwNS40IDE3OCw2LjcgMjk0LjksLTc3LjkgMzE5LjUsLTk3LjQgMTcuNyw2IDM1LjcsMTEuMyA1My44LDE2IDU0LjcsMTQuMSAxMTAuNywyMi40IDE2Ni43LDI0LjggMTQsMC42IDI4LDAuOSA0MS45LDAuOCBoIDYuOCBsIDQuNCwtMC4xIDguOCwtMC4zIDguNywtMC40IDAuMiwwLjMgYyA4My44LDExOS42IDIzMS4zLDEzNi41IDIzMS4zLDEzNi41IDEwNC45LC0xMTAuNiAxMTAuOSwtMjIwLjMgMTEwLjksLTI0NCB2IDAgYyAwLDAgMCwtMC44IDAsLTEuNiAwLC0yIC0wLjEsLTMuMyAtMC4xLC0zLjMgMCwwIDAsMCAwLDAgLTAuMSwtMS43IC0wLjEsLTMuMyAtMC4zLC01LjEgMjIsLTE1LjQgNDMsLTMyIDYyLjksLTQ5LjggNDIsLTM4IDc4LjcsLTgxLjIgMTA5LjEsLTEyNy45IDIuOSwtNC40IDUuNywtOC44IDguNCwtMTMuMyAxMTguNyw2LjggMjAyLjQsLTczLjUgMjAyLjQsLTczLjUgLTE5LjcsLTEyMy43IC05MC4yLC0xODQgLTEwNC45LC0xOTUuNCB2IDAgYyAwLDAgLTAuNiwtMC41IC0xLjUsLTEuMSAtMC44LC0wLjYgLTEuNCwtMSAtMS40LC0xIDAsMCAwLDAgMCwwIC0wLjcsLTAuNSAtMS42LC0xLjEgLTIuNiwtMS43IDAuNywtNy41IDEuNCwtMTQuOSAxLjgsLTIyLjMgMC45LC0xMy4zIDEuMiwtMjYuNyAxLjMsLTM5LjkgbCAtMC4xLC05LjkgLTAuMSwtNSB2IC0yLjUgYyAwLC0zLjQgLTAuMSwtMi4xIC0wLjEsLTMuNCBsIC0wLjQsLTguMyAtMC42LC0xMS4yIGMgLTAuMiwtMy45IC0wLjUsLTcuMiAtMC44LC0xMC43IC0wLjMsLTMuNCAtMC42LC02LjkgLTEsLTEwLjMgbCAtMS4yLC0xMC4zIC0xLjQsLTEwLjIgYyAtMiwtMTMuNiAtNC42LC0yNy4xIC03LjcsLTQwLjQgLTEyLjQsLTUzLjMgLTMzLjIsLTEwMy45IC02MC43LC0xNDkuNCAtMjcuNSwtNDUuNSAtNjEuNywtODUuOCAtMTAwLjIsLTExOS43IC0zOC41LC0zNCAtODEuNywtNjEuMyAtMTI3LC04MS43IC00NS4zLC0yMC40IC05Mi45LC0zMy41IC0xNDAuMywtMzkuNSAtMjMuNywtMy4xIC00Ny4zLC00LjMgLTcwLjcsLTQgbCAtOC43LDAuMiAtMi4yLDAuMSBjIC0wLjYsMCAtMy4zLDAuMSAtMywwLjEgbCAtMy42LDAuMiAtOC43LDAuNiBjIC0zLjMsMC4yIC02LjcsMC41IC05LjYsMC44IC0xMiwxLjIgLTIzLjksMi44IC0zNS43LDUgLTQ3LDguOCAtOTEuNCwyNS44IC0xMzAuNSw0OS4yIC0zOS4xLDIzLjQgLTczLjEsNTIuNyAtMTAwLjgsODUuOSAtMjcuNiwzMy4xIC00OS4xLDY5LjggLTYzLjksMTA3LjggLTE0LjgsMzggLTIzLjEsNzcuMiAtMjUuNCwxMTUuMyAtMC42LDkuNSAtMC44LDE5IC0wLjYsMjguNCAwLDIuMyAwLjEsNC43IDAuMiw3IGwgMC4zLDcuNiBjIDAuMyw0LjYgMC43LDkuMSAxLjEsMTMuNiAxLjksMTkuMyA1LjQsMzcuOCAxMC42LDU1LjcgMTAuMywzNS43IDI2LjksNjggNDcuMyw5NS40IDIwLjQsMjcuNSA0NC44LDUwLjIgNzAuNyw2Ny45IDI1LjksMTcuNyA1My42LDMwLjQgODEsMzguNSAyNy41LDguMSA1NC44LDExLjYgODAuNSwxMS41IDMuMiwwIDYuNCwtMC4xIDkuNiwtMC4yIDEuNywwIDMuNCwtMC4yIDUuMSwtMC4yIDEuNywtMC4xIDMuNCwtMC4yIDUuMSwtMC4zIDIuNywtMC4zIDUuNSwtMC41IDguMiwtMC44IDAuNiwwIDEuNSwtMC4yIDIuMywtMC4zIGwgMi41LC0wLjMgYyAxLjcsLTAuMiAzLjMsLTAuNSA1LC0wLjcgMy40LC0wLjQgNi4zLC0xLjEgOS4zLC0xLjYgMywtMC42IDYsLTEuMiA5LC0yIDUuOSwtMS4zIDExLjYsLTMuMSAxNy4zLC00LjggMTEuMiwtMy43IDIxLjcsLTguMiAzMS41LC0xMy4yIDkuOCwtNSAxOC44LC0xMC43IDI3LjIsLTE2LjYgMi40LC0xLjcgNC43LC0zLjUgNywtNS4zIDksLTcgMTAuNCwtMjAuMiAzLjIsLTI5IC02LjMsLTcuNyAtMTcuMSwtOS43IC0yNS43LC00LjkgLTIuMSwxLjIgLTQuMywyLjMgLTYuNSwzLjQgLTcuNSwzLjYgLTE1LjMsNyAtMjMuNiw5LjcgLTguMywyLjYgLTE2LjksNC44IC0yNS45LDYuNCAtNC41LDAuNiAtOSwxLjMgLTEzLjYsMS43IC0yLjMsMC4zIC00LjYsMC40IC03LDAuNCAtMi4zLDAuMSAtNC44LDAuMyAtNi45LDAuMiAtMi4yLDAgLTQuNCwtMC4xIC02LjcsLTAuMSAtMi44LC0wLjEgLTUuNiwtMC4zIC04LjQsLTAuNCAwLDAgLTEuNCwwIC0wLjMsLTAuMSBsIC0wLjksLTAuMSAtMS45LC0wLjIgYyAtMS4zLC0wLjEgLTIuNSwtMC4yIC0zLjgsLTAuNCAtMi41LC0wLjMgLTUsLTAuNiAtNy41LC0xIC0yMC4xLC0yLjggLTQwLjUsLTguNyAtNjAuMSwtMTcuNiAtMTkuNywtOC45IC0zOC41LC0yMS4xIC01NS41LC0zNi40IC0xNywtMTUuMiAtMzEuOCwtMzMuNiAtNDMuNCwtNTQuNCAtMTEuNiwtMjAuNyAtMTkuNywtNDMuOCAtMjMuNSwtNjggLTEuOSwtMTIuMSAtMi43LC0yNC42IC0yLjQsLTM2LjggMC4yLC0zLjQgMC4zLC02LjcgMC41LC0xMC4xIDAsMC45IDAuMSwtMC41IDAuMSwtMC42IGwgMC4xLC0xLjIgMC4yLC0yLjUgYyAwLjEsLTEuNyAwLjMsLTMuMyAwLjUsLTUgMC43LC02LjYgMS43LC0xMy4zIDIuOSwtMTkuOCA5LjMsLTUyLjcgMzUuNywtMTA0LjEgNzYuNSwtMTQzLjIgMTAuMiwtOS43IDIxLjIsLTE4LjggMzIuOSwtMjYuOCAxMS43LC04IDI0LjIsLTE1LjIgMzcuMiwtMjEuMiAxMywtNiAyNi42LC0xMC45IDQwLjUsLTE0LjcgMTMuOSwtMy43IDI4LjIsLTYuMiA0Mi43LC03LjUgNy4yLC0wLjYgMTQuNSwtMC45IDIxLjgsLTAuOSAxLjksMCAzLjQsMC4xIDQuOSwwLjEgbCA1LjksMC4yIDMuNywwLjEgYyAxLjUsMCAwLDAgMC43LDAuMSBsIDEuNSwwLjEgNS45LDAuNCBjIDE1LjcsMS4zIDMxLjQsMy41IDQ2LjgsNyAzMC45LDYuOSA2MC45LDE4LjIgODguOSwzMy43IDU2LDMxIDEwMy43LDc5LjUgMTMzLDEzOCAxNC44LDI5LjEgMjUsNjAuNSAzMC4yLDkyLjkgMS4yLDguMSAyLjIsMTYuMyAyLjksMjQuNSBsIDAuNSw2LjIgMC4zLDYuMiBjIDAuMSwyLjEgMC4xLDQuMSAwLjIsNi4yIDAsMiAwLjEsNC4zIDAuMSw1LjggdiA1LjMgbCAtMC4xLDYgYyAtMC4yLDQgLTAuNSwxMC41IC0wLjcsMTQuNSAtMC43LDguOSAtMS40LDE3LjkgLTIuNiwyNi44IC0xLjEsOC44IC0yLjYsMTcuNiAtNC4yLDI2LjQgLTEuOCw4LjcgLTMuNiwxNy40IC01LjksMjYgLTQuMywxNy4zIC05LjksMzQuMiAtMTYuNCw1MC44IC0xMy4xLDMzLjIgLTMwLjYsNjQuNyAtNTEuNyw5My44IC00Mi4zLDU4LjEgLTEwMCwxMDUuNiAtMTY1LjYsMTM1LjQgLTMyLjgsMTQuOCAtNjcuNCwyNS43IC0xMDMsMzEuNiAtMTcuOCwzIC0zNS44LDQuOCAtNTMuOCw1LjQgbCAtMy4zLDAuMSBoIC0yLjkgbCAtNS44LDAuMSBoIC04LjkgLTQuNCBjIDIuNSwwIC0wLjQsMCAtMC4zLC0wLjEgbCAtMS44LC0wLjEgYyAtOS43LC0wLjIgLTE5LjMsLTAuNyAtMjguOSwtMS40IC0zOC41LC0yLjkgLTc2LjYsLTkuNyAtMTEzLjUsLTIwLjUgLTM2LjksLTEwLjcgLTcyLjcsLTI1IC0xMDYuNiwtNDMgLTY3LjcsLTM2LjIgLTEyOC4yLC04NS44IC0xNzUuNiwtMTQ1LjYgLTIzLjgsLTI5LjggLTQ0LjYsLTYxLjggLTYxLjgsLTk1LjUgLTE3LjIsLTMzLjcgLTMwLjcsLTY5IC00MC43LC0xMDUuMSAtOS45LC0zNi4xIC0xNi4xLC03My4xIC0xOC41LC0xMTAuMyBsIC0wLjQsLTcgLTAuMSwtMS43IHYgLTEuNSBsIC0wLjEsLTMuMSAtMC4yLC02LjEgLTAuMSwtMS41IHYgLTIuMSAtNC4zIGwgLTAuMSwtOC43IHYgLTEuNyBjIDAsMC4zIDAsMC4zIDAsLTAuNiB2IC0zLjQgYyAwLC00LjUgMC4yLC05LjEgMC4zLC0xMy42IDAuNywtMTguNCAyLjIsLTM3LjMgNC42LC01Ni4yIDIuNCwtMTguOSA1LjUsLTM3LjkgOS40LC01Ni44IDMuOSwtMTguOCA4LjUsLTM3LjUgMTMuNywtNTUuOCAxMC41LC0zNi43IDIzLjYsLTcyLjMgMzkuMSwtMTA1LjkgMzEuMSwtNjcuMyA3MS45LC0xMjYuNiAxMjAuOSwtMTc0LjQgMTIuMiwtMTIgMjQuOSwtMjMuMyAzOC4xLC0zMy45IDEzLjIsLTEwLjYgMjYuOSwtMjAuNCA0MSwtMjkuNiAxNCwtOS4zIDI4LjUsLTE3LjcgNDMuNCwtMjUuNSA3LjQsLTQgMTUsLTcuNSAyMi42LC0xMS4yIDMuOCwtMS43IDcuNywtMy40IDExLjUsLTUuMSAzLjgsLTEuNyA3LjcsLTMuNCAxMS42LC00LjkgMTUuNSwtNi42IDMxLjUsLTEyLjEgNDcuNSwtMTcuMyA0LjEsLTEuMiA4LjEsLTIuNSAxMi4xLC0zLjcgNCwtMS4zIDguMiwtMi4yIDEyLjIsLTMuNCA4LjEsLTIuMyAxNi40LC00LjIgMjQuNiwtNi4zIDQuMSwtMS4xIDguMywtMS44IDEyLjQsLTIuNyA0LjIsLTAuOSA4LjMsLTEuOCAxMi41LC0yLjYgNC4yLC0wLjggOC40LC0xLjUgMTIuNSwtMi4zIGwgNi4zLC0xLjEgNi4zLC0xIGMgNC4yLC0wLjYgOC40LC0xLjMgMTIuNiwtMS45IDQuNywtMC44IDkuNSwtMS4yIDE0LjIsLTEuOSAzLjksLTAuNSAxMC4yLC0xLjIgMTQuMSwtMS43IDMsLTAuMyA1LjksLTAuNiA4LjksLTAuOSBsIDUuOSwtMC42IDMsLTAuMyAzLjUsLTAuMiBjIDQuOCwtMC4zIDkuNSwtMC42IDE0LjMsLTAuOSBsIDcuMSwtMC41IGMgMCwwIDIuNiwtMC4xIDAuMywtMC4xIGwgMS41LC0wLjEgMywtMC4xIGMgNC4xLC0wLjIgOC4xLC0wLjQgMTIuMiwtMC42IDE2LjIsLTAuNSAzMi4zLC0wLjUgNDguMiwwIDMxLjksMS4zIDYzLjIsNC44IDkzLjYsMTAuNCA2MC45LDExLjMgMTE4LjIsMzAuOSAxNzAsNTYuNSA1MS45LDI1LjQgOTguNCw1Ni42IDEzOC44LDkwLjUgMi41LDIuMSA1LDQuMyA3LjUsNi40IDIuNSwyLjIgNC45LDQuMyA3LjMsNi41IDQuOSw0LjMgOS42LDguOCAxNC4zLDEzLjEgNC43LDQuNCA5LjIsOC45IDEzLjgsMTMuMyA0LjQsNC41IDguOSw4LjkgMTMuMiwxMy41IDE3LjEsMTguMSAzMywzNi41IDQ3LjMsNTUgMjguNywzNi45IDUxLjYsNzQuMSA2OS45LDEwOS4zIDEuMiwyLjIgMi4zLDQuNCAzLjQsNi42IDEuMSwyLjIgMi4yLDQuNCAzLjIsNi42IDIuMSw0LjMgNC4zLDguNiA2LjIsMTIuOSAyLDQuMyA0LDguNSA1LjksMTIuNyAxLjgsNC4yIDMuNiw4LjQgNS40LDEyLjQgNi44LDE2LjUgMTMsMzIuMSAxOC4xLDQ3IDguNCwyMy45IDE0LjUsNDUuNSAxOS4zLDY0LjIgMS45LDcuNSA5LDEyLjUgMTYuNywxMS44IDgsLTAuNyAxNC4xLC03LjMgMTQuMywtMTUuMyAwLjQsLTIwLjEgLTAuMSwtNDMuOCAtMi40LC03MC44IC0zLC0zMy40IC04LjcsLTcyLjEgLTIwLC0xMTQuNiAtMTEuMSwtNDIuNSAtMjcuNiwtODkgLTUxLjYsLTEzNy4zIC0yNC4xLC00OC4yIC01NS41LC05OC40IC05Ni4zLC0xNDYuOSAtMTUuOSwtMTkgLTMzLjMsLTM3LjggLTUyLjEsLTU2LjEgMjgsLTExMS40IC0zNC4xLC0yMDggLTM0LjEsLTIwOCAtMTA3LjIsLTYuNyAtMTc1LjQsMzMuMyAtMjAwLjcsNTEuNiAtNC4yLC0xLjggLTguNSwtMy42IC0xMi44LC01LjQgLTE4LjMsLTcuNCAtMzcsLTE0LjMgLTU2LjMsLTIwLjQgLTE5LjMsLTYuMSAtMzksLTExLjcgLTU5LjEsLTE2LjQgLTIwLjIsLTQuNyAtNDAuNywtOC43IC02MS42LC0xMS45IC0zLjcsLTAuNSAtNy4zLC0xIC0xMSwtMS42IC00Ni42LC0xNDkuNCAtMTgwLjksLTIxMS45IC0xODAuOSwtMjExLjkgLTE0OS44LDk0LjUgLTE3OC4zLDIyNy40IC0xNzguMywyMjcuNCIvPiYjeGE7CQkJPC9kZWZzPiYjeGE7CQkJPGNsaXBQYXRoIGlkPSJTVkdJRF82XyI+JiN4YTsJCQkJPHVzZSB4bGluazpocmVmPSIjU1ZHSURfNV8iIHN0eWxlPSJvdmVyZmxvdzp2aXNpYmxlIiBpZD0idXNlMzUiIHg9IjAiIHk9IjAiIHdpZHRoPSIxMDAlIiBoZWlnaHQ9IjEwMCUiLz4mI3hhOwkJCTwvY2xpcFBhdGg+JiN4YTsJCQkmI3hhOwkJCQk8bGluZWFyR3JhZGllbnQgaWQ9IlNWR0lEXzdfIiBncmFkaWVudFVuaXRzPSJ1c2VyU3BhY2VPblVzZSIgeDE9Ii04MTkuNzY1MDEiIHkxPSI4MjAxLjcxIiB4Mj0iLTgxMi42NDg2OCIgeTI9IjgyMDEuNzEiIGdyYWRpZW50VHJhbnNmb3JtPSJtYXRyaXgoMCwtMjU1Ljc3NDIsLTI1NS43NzQyLDAsMjA5OTExNS41LC0yMDcxMzMuNTUpIj4mI3hhOwkJCQk8c3RvcCBvZmZzZXQ9IjAiIHN0eWxlPSJzdG9wLWNvbG9yOiNGRkYyMDAiIGlkPSJzdG9wMzgiLz4mI3hhOwkJCQk8c3RvcCBvZmZzZXQ9IjEiIHN0eWxlPSJzdG9wLWNvbG9yOiNGMTVBMjkiIGlkPSJzdG9wNDAiLz4mI3hhOwkJCTwvbGluZWFyR3JhZGllbnQ+JiN4YTsJCQkmI3hhOwkJJiN4YTsJCQk8ZGVmcyBpZD0iZGVmczExIj4mI3hhOwkJCQk8cmVjdCBpZD0iU1ZHSURfM18iIHg9Ii04NDkuNzAwMDEiIHk9Ii0xNDEyLjIiIHdpZHRoPSI0MzU1LjIwMDIiIGhlaWdodD0iNTYzNi4yMDAyIi8+JiN4YTsJCQk8L2RlZnM+JiN4YTsJCQk8Y2xpcFBhdGggaWQ9IlNWR0lEXzRfIj4mI3hhOwkJCQk8dXNlIHhsaW5rOmhyZWY9IiNTVkdJRF8zXyIgc3R5bGU9Im92ZXJmbG93OnZpc2libGUiIGlkPSJ1c2UxMyIgeD0iMCIgeT0iMCIgd2lkdGg9IjEwMCUiIGhlaWdodD0iMTAwJSIvPiYjeGE7CQkJPC9jbGlwUGF0aD4mI3hhOwkJCSYjeGE7CQkJJiN4YTsJCQkmI3hhOwkJCSYjeGE7CQkJJiN4YTsJCQkmI3hhOwkJCSYjeGE7CQk8L2RlZnM+JiN4YTs8c3R5bGUgaWQ9InN0eWxlMiIgdHlwZT0idGV4dC9jc3MiPiYjeGE7CS5zdDB7ZmlsbDojQzU5QTZFO30mI3hhOwkuc3Qxe2ZpbGw6IzNDQjQ0Qjt9JiN4YTsJLnN0MntmaWxsOiM2NzMwOEY7fSYjeGE7CS5zdDN7ZmlsbDojRDFEMUQxO30mI3hhOwkuc3Q0e2ZpbGw6I0VGNUIyODt9JiN4YTsJLnN0NXtzdHJva2U6IzAwMDAwMDtzdHJva2Utd2lkdGg6MTY7c3Ryb2tlLW1pdGVybGltaXQ6MTA7fSYjeGE7CS5zdDZ7ZmlsbDp1cmwoI1RyaWFuZ2xlLTNfMV8pO30mI3hhOwkuc3Q3e2ZpbGw6IzMzMzMzMzt9JiN4YTsJLnN0OHtmaWxsOiNDRjIxMjk7fSYjeGE7CS5zdDl7ZmlsbDojQ0MzODMyO30mI3hhOwkuc3QxMHtmaWxsOiNCQTQ0M0Q7fSYjeGE7CS5zdDExe2ZpbGw6I0JBQzU1Njt9JiN4YTsJLnN0MTJ7ZmlsbDojRjhERjRCO30mI3hhOwkuc3QxM3tmaWxsOiNGNUNGNDc7fSYjeGE7CS5zdDE0e2ZpbGw6I0E5Qjc1RDt9JiN4YTsJLnN0MTV7ZmlsbDojRERCRTVCO30mI3hhOwkuc3QxNntmaWxsOiM2RkJFQ0I7fSYjeGE7CS5zdDE3e2ZpbGw6Izc5QzBCRjt9JiN4YTsJLnN0MTh7ZmlsbDojNzdDM0QyO30mI3hhOwkuc3QxOXtmaWxsOiM1Q0I4QkI7fSYjeGE7CS5zdDIwe2ZpbGw6IzUyOUZCNTt9JiN4YTsJLnN0MjF7ZmlsbDojQkEzRDM2O30mI3hhOwkuc3QyMntmaWxsOiM5RDM2MzQ7fSYjeGE7CS5zdDIze2ZpbGw6I0QzM0UzNTt9JiN4YTsJLnN0MjR7ZmlsbDojODY5QjYzO30mI3hhOwkuc3QyNXtmaWxsOiNCRUM1NEY7fSYjeGE7CS5zdDI2e2ZpbGw6IzlFQUQ1OTt9JiN4YTsJLnN0Mjd7ZmlsbDpub25lO30mI3hhOwkuc3QyOHtmaWxsOiM0M0FFMkE7fSYjeGE7CS5zdDI5e2ZpbGw6IzAwOURERDt9JiN4YTsJLnN0MzB7ZmlsbDojMDBBMjk3O30mI3hhOwkuc3QzMXtmaWxsOiMwMDcyQ0M7fSYjeGE7CS5zdDMye2ZpbGw6IzgyQkIwMDt9JiN4YTsJLnN0MzN7ZmlsbDojMTAwNjlEO30mI3hhOwkuc3QzNHtmaWxsOiMzMzNGNDg7fSYjeGE7CS5zdDM1e2NsaXAtcGF0aDp1cmwoI1NWR0lEXzJfKTt9JiN4YTsJLnN0MzZ7Y2xpcC1wYXRoOnVybCgjU1ZHSURfNF8pO2ZpbGw6IzQxNDA0Mjt9JiN4YTsJLnN0Mzd7Y2xpcC1wYXRoOnVybCgjU1ZHSURfNl8pO2ZpbGw6dXJsKCNTVkdJRF83Xyk7fSYjeGE7PC9zdHlsZT4mI3hhOzxnIHRyYW5zZm9ybT0ibWF0cml4KDAuODE1OTEyNDQsMCwwLDAuODE1OTEyNDQsLTU3LjgzMjM1NywxMjkuNzE4NTMpIiBpZD0iZzkzNyI+PHJlY3Qgc3R5bGU9ImZpbGw6dXJsKCNTVkdJRF83XykiIGlkPSJyZWN0NDMiIGNsaXAtcGF0aD0idXJsKCNTVkdJRF82XykiIGhlaWdodD0iMTk5Mi4zIiB3aWR0aD0iMTgzNC40IiBjbGFzcz0ic3QzNyIgeT0iMTAwLjgiIHg9IjQxMi43MDAwMSIgdHJhbnNmb3JtPSJtYXRyaXgoMC4wMzkzNzkzOCwwLDAsMC4wMzkzNzkzOCw1Ny43MzMyOTksLTE2Mi45NzEwNCkiLz48L2c+JiN4YTs8L3N2Zz4=;" parent="WjcrpCToNUQVP_QAvP0H-0" vertex="1">
          <mxGeometry x="25" width="70" height="70" as="geometry" />
        </mxCell>
        <mxCell id="WjcrpCToNUQVP_QAvP0H-2" value="&lt;div&gt;Metrics&lt;/div&gt;&lt;div&gt;Visualization&lt;/div&gt;" style="text;whiteSpace=wrap;html=1;verticalAlign=middle;align=center;" parent="WjcrpCToNUQVP_QAvP0H-0" vertex="1">
          <mxGeometry y="75" width="120" height="20" as="geometry" />
        </mxCell>
        <mxCell id="WjcrpCToNUQVP_QAvP0H-3" value="" style="edgeStyle=orthogonalEdgeStyle;rounded=0;orthogonalLoop=1;jettySize=auto;html=1;entryX=0;entryY=0.5;entryDx=0;entryDy=0;" parent="Uf2jo-MEsTMQwNn6tAHI-1" source="kyppD4FBlEZI0NZwqeRG-1" target="WjcrpCToNUQVP_QAvP0H-1" edge="1">
          <mxGeometry relative="1" as="geometry" />
        </mxCell>
        <mxCell id="QiDiUrZGB9I0AOXDtaoh-5" value="" style="group" vertex="1" connectable="0" parent="Uf2jo-MEsTMQwNn6tAHI-1">
          <mxGeometry x="200" y="40" width="120" height="90" as="geometry" />
        </mxCell>
        <mxCell id="QiDiUrZGB9I0AOXDtaoh-3" value="" style="shape=image;verticalLabelPosition=bottom;labelBackgroundColor=default;verticalAlign=top;aspect=fixed;imageAspect=0;image=data:image/svg+xml,PHN2ZyBoZWlnaHQ9IjY0IiB3aWR0aD0iNjQiIGlkPSJzdmc5MCIgdmVyc2lvbj0iMS4xIiB2aWV3Qm94PSItMjEuNTIgLTE2LjUyIDY0IDYzLjk5OTk5OSIgcm9sZT0iaW1nIiB4bWxucz0iaHR0cDovL3d3dy53My5vcmcvMjAwMC9zdmciPiYjeGE7ICA8bWV0YWRhdGEgaWQ9Im1ldGFkYXRhOTYiPiYjeGE7ICAgICYjeGE7ICAgICAgJiN4YTsgICAgICAgIGltYWdlL3N2Zyt4bWwmI3hhOyAgICAgICAgJiN4YTsgICAgICAgIEZsdWVudGQgbG9nbyYjeGE7ICAgICAgJiN4YTsgICAgJiN4YTsgIDwvbWV0YWRhdGE+JiN4YTsgIDxkZWZzIGlkPSJkZWZzOTQiLz4mI3hhOyAgJiN4YTsgIDx0aXRsZSBpZD0idGl0bGUyIj5GbHVlbnRkIGxvZ288L3RpdGxlPiYjeGE7ICA8c3R5bGUgaWQ9InN0eWxlNCI+c3ZnIHtlbmFibGUtYmFja2dyb3VuZDpuZXcgMCAwIDE4MDggMTYxMX08L3N0eWxlPiYjeGE7ICA8ZyB0cmFuc2Zvcm09Im1hdHJpeCgwLjA1MTcwODc0LDAsMCwwLjA1MTcwODc0LC0zNy4xODc3NDgsLTExLjY1NTk4NCkiIGlkPSJnNzgiPiYjeGE7ICAgIDxsaW5lYXJHcmFkaWVudCBncmFkaWVudFVuaXRzPSJ1c2VyU3BhY2VPblVzZSIgZ3JhZGllbnRUcmFuc2Zvcm09Im1hdHJpeCgxLDAsMCwtMSwwLDE2MzApIiB5Mj0iMTEwNS4yMDkiIHkxPSIxMTA1LjIwOSIgeDI9IjE1NDAuNjk5IiB4MT0iMzAzIiBpZD0iYSI+JiN4YTsgICAgICA8c3RvcCBpZD0ic3RvcDYiIHN0b3AtY29sb3I9IiMyYTU5YTIiIG9mZnNldD0iMCIvPiYjeGE7ICAgICAgPHN0b3AgaWQ9InN0b3A4IiBzdG9wLWNvbG9yPSIjMmE1OWEyIiBvZmZzZXQ9IjEiLz4mI3hhOyAgICA8L2xpbmVhckdyYWRpZW50PiYjeGE7ICAgIDxwYXRoIHN0eWxlPSJmaWxsOnVybCgjYSkiIGlkPSJwYXRoMTEiIGQ9Ik0gMTUzNC4xLDQ1MC4zIEggMTUxMiBjIC00MC4yLC0wLjUgLTExNy4zLDMuOCAtMTg3LjIsNjQuMiAtMTY2LjksMTQ0LjUgLTIwNSwzNTcuMiAtNDkwLjYsNDcyIC0yMzcuOSw5NS42IC01MzEuMiw1LjEgLTUzMS4yLDUuMSAwLDAgMjYxLjcsLTE4LjIgMjk2LjQsLTIxNy45IEMgNjI2LjUsNjE3LjUgNDg0LjQsNTA2LjYgMzk1LjIsMzY1LjcgMzA0LjUsMjIyLjIgMjgxLjIsMTAzIDMyNC45LDUxLjUgNDQ4LjgsLTk0LjggNzkwLDMwMC43IDk1OS40LDM1NCBjIDE2NS44LDUyLjEgMjc3LjcsLTY4LjkgNDE1LC01MS4xIDQzLjgsNS42IDY1LjIsMjQuNSA3OS40LDQ4LjYgNC44LDguMSAxNi42LDM1LjcgMjcuMSw0NS45IDEwLjMsMTAgMjQsMTcuNCAzNi44LDI0LjkgMTYuMyw5LjYgMzIuNCwyOCAxNi40LDI4IHoiLz4mI3hhOyAgICA8bGluZWFyR3JhZGllbnQgZ3JhZGllbnRVbml0cz0idXNlclNwYWNlT25Vc2UiIGdyYWRpZW50VHJhbnNmb3JtPSJtYXRyaXgoMSwwLDAsLTEsMCwxNjMwKSIgeTI9IjEzMTYuNTI4IiB5MT0iMTMxNi41MjgiIHgyPSIxNTYyLjE0MiIgeDE9IjI1My4wMjQiIGlkPSJiIj4mI3hhOyAgICAgIDxzdG9wIGlkPSJzdG9wMTMiIHN0b3AtY29sb3I9IiM5MWQzZjIiIG9mZnNldD0iMCIvPiYjeGE7ICAgICAgPHN0b3AgaWQ9InN0b3AxNSIgc3RvcC1jb2xvcj0iIzZmYjJkZSIgb2Zmc2V0PSIuMjY2Ii8+JiN4YTsgICAgICA8c3RvcCBpZD0ic3RvcDE3IiBzdG9wLWNvbG9yPSIjNTU5OGNlIiBvZmZzZXQ9Ii41MjEiLz4mI3hhOyAgICAgIDxzdG9wIGlkPSJzdG9wMTkiIHN0b3AtY29sb3I9IiM0YjhmYzgiIG9mZnNldD0iLjY3MyIvPiYjeGE7ICAgIDwvbGluZWFyR3JhZGllbnQ+JiN4YTsgICAgPHBhdGggc3R5bGU9ImZpbGw6dXJsKCNiKSIgaWQ9InBhdGgyMiIgZD0iTSA3NTAsMjIxLjUgQyA3MDksMTkwLjMgNjY2LjcsMTU3LjYgNjI1LjEsMTI3LjggNjE1LjcsMTIxLjEgNjA2LjMsMTE0LjUgNTk3LDEwOC4xIDQ4NS41LDMxLjggMzgyLjEsLTE2IDMyNC45LDUxLjUgYyAtNDMuNyw1MS41IC0yMC40LDE3MC43IDcwLjQsMzE0LjIgMC45LDEuNSAxLjksMi45IDIuOCw0LjQgNDcuMyw3My4yIDE4NC41LDI0NC43IDUwOS43LDIzNy40IDIxLjQsLTIyLjcgNTMuOSwtNjUuNiA5NS45LC0xMTIuMyBDIDkzNS42LDM4NS4xIDgzMywyODkuMSA3NTAsMjIxLjUgWiIvPiYjeGE7ICAgIDxsaW5lYXJHcmFkaWVudCBncmFkaWVudFVuaXRzPSJ1c2VyU3BhY2VPblVzZSIgZ3JhZGllbnRUcmFuc2Zvcm09Im1hdHJpeCgxLDAsMCwtMSwwLDE2MzApIiB5Mj0iODE3LjA3Mzk3IiB5MT0iODE3LjA3Mzk3IiB4Mj0iMTU0OS44MzQiIHgxPSIzMDMuMTAwMDEiIGlkPSJjIj4mI3hhOyAgICAgIDxzdG9wIGlkPSJzdG9wMjQiIHN0b3AtY29sb3I9IiMyYzllYzciIG9mZnNldD0iMCIvPiYjeGE7ICAgICAgPHN0b3AgaWQ9InN0b3AyNiIgc3RvcC1jb2xvcj0iIzJjNjNhNSIgb2Zmc2V0PSIuNDA0Ii8+JiN4YTsgICAgICA8c3RvcCBpZD0ic3RvcDI4IiBzdG9wLWNvbG9yPSIjMzk1ZGExIiBvZmZzZXQ9IjEiLz4mI3hhOyAgICA8L2xpbmVhckdyYWRpZW50PiYjeGE7ICAgIDxwYXRoIHN0eWxlPSJmaWxsOnVybCgjYykiIGlkPSJwYXRoMzEiIGQ9Im0gMTA3Ny44LDczOC45IGMgMS4zLC00OC44IC03LjYsLTk2LjkgLTI0LjUsLTE0My40IC00Mi43LDYuNCAtOTAuOCwxMC44IC0xNDUuNSwxMiAtMzkuOCw0Mi4zIC0xMzAuNywxNTUuMyAtMjgxLjMsMjU3LjEgLTIwMC41LDEzNS42IC0zMjMuNCwxMjcgLTMyMy40LDEyNyAwLDAgMjkzLjQsOTAuNSA1MzEuMiwtNS4xIDg1LjMsLTM0LjMgMTQ4LjYsLTc3LjMgMTk5LjgsLTEyNC43IDguNCwtOCA0MS45LC00OS44IDQzLjcsLTEyMi45IHoiLz4mI3hhOyAgICA8bGluZWFyR3JhZGllbnQgZ3JhZGllbnRVbml0cz0idXNlclNwYWNlT25Vc2UiIGdyYWRpZW50VHJhbnNmb3JtPSJtYXRyaXgoMSwwLDAsLTEsMCwxNjMwKSIgeTI9IjEwNzguNjUiIHkxPSIxMDc4LjY1IiB4Mj0iMTU0OS44MTMiIHgxPSIzMDMuMDc5MDEiIGlkPSJkIj4mI3hhOyAgICAgIDxzdG9wIGlkPSJzdG9wMzMiIHN0b3AtY29sb3I9IiM0ZmFhYzQiIG9mZnNldD0iMCIvPiYjeGE7ICAgICAgPHN0b3AgaWQ9InN0b3AzNSIgc3RvcC1jb2xvcj0iIzJmNzViMSIgb2Zmc2V0PSIuMDAyIi8+JiN4YTsgICAgICA8c3RvcCBpZD0ic3RvcDM3IiBzdG9wLWNvbG9yPSIjMzU2ZWFjIiBvZmZzZXQ9IjEiLz4mI3hhOyAgICA8L2xpbmVhckdyYWRpZW50PiYjeGE7ICAgIDxwYXRoIHN0eWxlPSJmaWxsOnVybCgjZCkiIGlkPSJwYXRoNDAiIGQ9Im0gMTAwMy44LDQ5NS4yIGMgLTQyLDQ2LjYgLTc0LjYsODkuNiAtOTUuOSwxMTIuMyA1NC44LC0xLjIgMTAyLjksLTUuNiAxNDUuNSwtMTIgLTUsLTEzLjkgLTEwLjgsLTI3LjYgLTE3LjIsLTQxLjEgLTkuNiwtMjAuMSAtMjAuNSwtMzkuOSAtMzIuNCwtNTkuMiB6Ii8+JiN4YTsgICAgPGxpbmVhckdyYWRpZW50IGdyYWRpZW50VW5pdHM9InVzZXJTcGFjZU9uVXNlIiBncmFkaWVudFRyYW5zZm9ybT0ibWF0cml4KDEsMCwwLC0xLDAsMTYzMCkiIHkyPSIxMjcxLjY1IiB5MT0iMTI3MS42NSIgeDI9IjE1NTYuOTg0IiB4MT0iNzUwIiBpZD0iZSI+JiN4YTsgICAgICA8c3RvcCBpZD0ic3RvcDQyIiBzdG9wLWNvbG9yPSIjNGZhYWM0IiBvZmZzZXQ9IjAiLz4mI3hhOyAgICAgIDxzdG9wIGlkPSJzdG9wNDQiIHN0b3AtY29sb3I9IiMyZjgxYjYiIG9mZnNldD0iLjAwMiIvPiYjeGE7ICAgICAgPHN0b3AgaWQ9InN0b3A0NiIgc3RvcC1jb2xvcj0iIzNiNWVhOSIgb2Zmc2V0PSIxIi8+JiN4YTsgICAgPC9saW5lYXJHcmFkaWVudD4mI3hhOyAgICA8cGF0aCBzdHlsZT0iZmlsbDp1cmwoI2UpIiBpZD0icGF0aDQ5IiBkPSJNIDEyNDcuNiwzMTguMyBDIDExNTkuOCwzNDQuOSAxMDcyLjEsMzg5LjQgOTU5LjQsMzU0IDkwMy42LDMzNi41IDgyOS4xLDI4MS44IDc1MCwyMjEuNSA4MzMsMjg5LjEgOTM1LjYsMzg1IDEwMDMuOCw0OTUuMiAxMDY2LDQyNi4zIDExNDksMzQ5LjMgMTI0Ny42LDMxOC4zIFoiLz4mI3hhOyAgICA8bGluZWFyR3JhZGllbnQgZ3JhZGllbnRVbml0cz0idXNlclNwYWNlT25Vc2UiIGdyYWRpZW50VHJhbnNmb3JtPSJtYXRyaXgoMSwwLDAsLTEsMCwxNjMwKSIgeTI9Ijk2Mi43MDAwMSIgeTE9Ijk2Mi43MDAwMSIgeDI9IjE1NTYuOTUyIiB4MT0iNzQ5Ljk2ODAyIiBpZD0iZiI+JiN4YTsgICAgICA8c3RvcCBpZD0ic3RvcDUxIiBzdG9wLWNvbG9yPSIjNGZhYWM0IiBvZmZzZXQ9IjAiLz4mI3hhOyAgICAgIDxzdG9wIGlkPSJzdG9wNTMiIHN0b3AtY29sb3I9IiMxZTM3NzMiIG9mZnNldD0iLjAwMiIvPiYjeGE7ICAgICAgPHN0b3AgaWQ9InN0b3A1NSIgc3RvcC1jb2xvcj0iIzIwMzM3MCIgb2Zmc2V0PSIxIi8+JiN4YTsgICAgPC9saW5lYXJHcmFkaWVudD4mI3hhOyAgICA8cGF0aCBzdHlsZT0iZmlsbDp1cmwoI2YpIiBpZD0icGF0aDU4IiBkPSJtIDEwNTMuNCw1OTUuNSBjIDE2LjksNDYuNSAyNS44LDk0LjYgMjQuNSwxNDMuNCAtMS45LDczIC0zNS40LDExNC44IC00My44LDEyMi45IDEyMC4xLC0xMTEuMSAxNzMuOCwtMjQ2IDI5MC44LC0zNDcuMyAyMS44LC0xOC44IDQ0LjIsLTMyLjIgNjYuMSwtNDEuNyBoIC0wLjEgQyAxMzE0LjIsNTA1IDEyMzEsNTY4LjcgMTA1My40LDU5NS41IFoiLz4mI3hhOyAgICA8bGluZWFyR3JhZGllbnQgZ3JhZGllbnRVbml0cz0idXNlclNwYWNlT25Vc2UiIGdyYWRpZW50VHJhbnNmb3JtPSJtYXRyaXgoMSwwLDAsLTEsMCwxNjMwKSIgeTI9IjEzMzcuODE0IiB5MT0iODk1LjI5Nzk3IiB4Mj0iMTI3Mi4yNTEiIHgxPSIxMjcyLjI1MSIgaWQ9ImciPiYjeGE7ICAgICAgPHN0b3AgaWQ9InN0b3A2MCIgc3RvcC1jb2xvcj0iIzRmYWFjNCIgb2Zmc2V0PSIwIi8+JiN4YTsgICAgICA8c3RvcCBpZD0ic3RvcDYyIiBzdG9wLWNvbG9yPSIjMmM1YTlhIiBvZmZzZXQ9Ii4wMDIiLz4mI3hhOyAgICAgIDxzdG9wIGlkPSJzdG9wNjQiIHN0b3AtY29sb3I9IiMzNzQ1ODAiIG9mZnNldD0iMSIvPiYjeGE7ICAgIDwvbGluZWFyR3JhZGllbnQ+JiN4YTsgICAgPHBhdGggc3R5bGU9ImZpbGw6dXJsKCNnKSIgaWQ9InBhdGg2NyIgZD0ibSAxNTM0LjEsNDUwLjMgYyAxNiwwIC0wLjEsLTE4LjQgLTE2LjMsLTI3LjkgLTEyLjgsLTcuNiAtMjYuNSwtMTUgLTM2LjgsLTI0LjkgLTEwLjYsLTEwLjIgLTIyLjQsLTM3LjkgLTI3LjEsLTQ1LjkgLTE0LjMsLTI0LjIgLTM1LjYsLTQzIC03OS40LC00OC42IC00NCwtNS43IC04NS40LDIuOSAtMTI2LjgsMTUuNCAtOTguNiwzMSAtMTgxLjcsMTA4IC0yNDMuOSwxNzYuOSAxMS45LDE5LjMgMjIuOSwzOSAzMi40LDU5LjEgNi40LDEzLjYgMTIuMiwyNy4zIDE3LjIsNDEuMSAxNzcuNywtMjYuOCAyNjAuOCwtOTAuNSAzMzcuNSwtMTIyLjcgaCAwLjEgYyA0OC4zLC0yMSA5My41LC0yMi45IDEyMS4xLC0yMi41IHoiLz4mI3hhOyAgICA8bGluZWFyR3JhZGllbnQgZ3JhZGllbnRVbml0cz0idXNlclNwYWNlT25Vc2UiIGdyYWRpZW50VHJhbnNmb3JtPSJtYXRyaXgoMSwwLDAsLTEsMCwxNjMwKSIgeTI9Ijk0OS4wOTYwMSIgeTE9Ijk0OS4wOTYwMSIgeDI9IjEwODYuODI4IiB4MT0iMTY4LjQ5NSIgaWQ9ImgiPiYjeGE7ICAgICAgPHN0b3AgaWQ9InN0b3A2OSIgc3RvcC1jb2xvcj0iIzM4YjFkYSIgb2Zmc2V0PSIuMTEyIi8+JiN4YTsgICAgICA8c3RvcCBpZD0ic3RvcDcxIiBzdG9wLWNvbG9yPSIjMzI2ZmI1IiBvZmZzZXQ9IjEiLz4mI3hhOyAgICA8L2xpbmVhckdyYWRpZW50PiYjeGE7ICAgIDxwYXRoIHN0eWxlPSJmaWxsOnVybCgjaCkiIGlkPSJwYXRoNzQiIGQ9Ik0gNjI2LjUsODY0LjYgQyA3NzcuMSw3NjIuOCA4NjgsNjQ5LjggOTA3LjgsNjA3LjUgNTgyLjYsNjE0LjggNDQ1LjQsNDQzLjMgMzk4LjEsMzcwLjEgNDg3LjQsNTA5IDYyNi4zLDYxOS4yIDU5OS41LDc3My43IDU2NC44LDk3My40IDMwMy4xLDk5MS42IDMwMy4xLDk5MS42IGMgMCwwIDEyMi45LDguNiAzMjMuNCwtMTI3IHoiLz4mI3hhOyAgICA8ZWxsaXBzZSBzdHlsZT0iZmlsbDojZmZmZmZmIiBpZD0iZWxsaXBzZTc2IiByeT0iMjUuNzk5OTk5IiByeD0iMjYiIGN5PSIzNzcuMzk5OTkiIGN4PSIxMzY1LjQiLz4mI3hhOyAgPC9nPiYjeGE7PC9zdmc+;" vertex="1" parent="QiDiUrZGB9I0AOXDtaoh-5">
          <mxGeometry x="25" width="70" height="70" as="geometry" />
        </mxCell>
        <mxCell id="QiDiUrZGB9I0AOXDtaoh-4" value="&lt;div&gt;Log Aggregator&lt;/div&gt;" style="text;whiteSpace=wrap;html=1;align=center;verticalAlign=middle;" vertex="1" parent="QiDiUrZGB9I0AOXDtaoh-5">
          <mxGeometry y="75" width="120" height="20" as="geometry" />
        </mxCell>
        <mxCell id="QiDiUrZGB9I0AOXDtaoh-6" value="" style="edgeStyle=orthogonalEdgeStyle;rounded=0;orthogonalLoop=1;jettySize=auto;html=1;" edge="1" parent="Uf2jo-MEsTMQwNn6tAHI-1" source="Uf2jo-MEsTMQwNn6tAHI-48" target="QiDiUrZGB9I0AOXDtaoh-3">
          <mxGeometry relative="1" as="geometry" />
        </mxCell>
        <mxCell id="QiDiUrZGB9I0AOXDtaoh-7" value="" style="group" vertex="1" connectable="0" parent="Uf2jo-MEsTMQwNn6tAHI-1">
          <mxGeometry x="200" y="500" width="120" height="95" as="geometry" />
        </mxCell>
        <mxCell id="QiDiUrZGB9I0AOXDtaoh-8" value="Metrics Exporter" style="text;whiteSpace=wrap;html=1;align=center;verticalAlign=middle;" vertex="1" parent="QiDiUrZGB9I0AOXDtaoh-7">
          <mxGeometry y="75" width="120" height="20" as="geometry" />
        </mxCell>
        <mxCell id="QiDiUrZGB9I0AOXDtaoh-9" value="" style="shape=image;verticalLabelPosition=bottom;labelBackgroundColor=default;verticalAlign=top;aspect=fixed;imageAspect=0;image=data:image/svg+xml,PHN2ZyB2aWV3Qm94PSIwIDAgMTI4IDEyOCIgeG1sbnM9Imh0dHA6Ly93d3cudzMub3JnLzIwMDAvc3ZnIj48cGF0aCBkPSJNMTIzLjI1OCA3Ni43ODRjLS40NS0yLjkxOC0yLjkwMS00LjgyOS01Ljc1Mi00Ljk1OC0xLjAzMi0uMDQ3LTIuMDguMDYxLTMuMTA5LjE5Mi0xLjI0My4xNTgtMi40NzEuNDM4LTMuNzExLjYyMy0uODU3LjEyOC0xLjcyNi4xODctMi41ODIuMjc1bC0uMDIxLS4xMTFjMS41OTgtMy4wMTggMy4yNjMtNi4wMDMgNC43NzUtOS4wNjQgMS4xNTktMi4zNDggMi4xNTEtNC43ODEgMy4xNzYtNy4xOTQgMS42OTYtMy45OTggMy4wNTEtOC4xMiA0LjE3My0xMi4zMDkgMS4wNzUtNC4wMTEgMS45OTUtOC4wNjYgMi4yODQtMTIuMjI3LjExNi0xLjY2Mi4xOTYtMy4zMzEuMTg3LTQuOTk1LS4wMDgtMS4zMjctLjE1MS0yLjY1Ni0uMjg0LTMuOTc5LS4xNS0xLjUxNi0uNjA4LTIuOTUzLTEuMjQyLTQuMzM2LS44MzYtMS44MjItMi4xMzItMy4zMTctMy40OTYtNC43MzctMS4wOTItMS4xMzctMi4yOTMtMi4xNzMtMy40ODQtMy4yMDgtMS42OTgtMS40NzctMy42MDctMi42NTYtNS41OS0zLjcwMy0yLjI1My0xLjE5LTQuNjIxLTIuMTIxLTcuMDktMi43NS0xLjQ5My0uMzgxLTMuMDItLjY2NC00LjUzMi0uOTY2LS41NDQtLjExLTEuMDg5LS4zMzctMS42MzMtLjMzN2gtMTAuMjQxYy0uMzcgMC0uNzM3LjE5MS0xLjExLjIzMy0yLjQ1Mi4yNzMtNC44NzUuNzM1LTcuMjI4IDEuNDY0LS44OC4yNzMtMS42ODQuMTAxLTIuNTIuMDI0LS42NDEtLjA1OS0xLjI3MS0uMjMxLTEuOTEyLS4yNjMtMi40NDItLjEyMi00Ljg4Ny0uMzAxLTcuMzI4LS4yNzUtMi4zMzkuMDI0LTQuNjU0LjQwOS02LjkxOCAxLjA1Mi0xLjg5NS41MzgtMy43NDkgMS4xOTUtNS40NDcgMi4xOTEtLjcyNy40MjYtMS4zMDMuMzQ2LTIuMDU1LjEyOS0yLjUyNy0uNzI5LTUuMDcyLTEuNDE0LTcuNjM5LTEuOTg5LTEuNi0uMzU4LTMuMjQ1LS41MzYtNC44NzktLjcwNy0xLjU2Ni0uMTYzLTMuMTQ0LS4yNjEtNC43MTgtLjI5NC0xLjUzOC0uMDMzLTMuMDg3LS4wMzItNC42MTguMTA0LTIuNDM5LjIxNy00LjgzMi43MTMtNy4xNTggMS41MTMtMi41ODMuODg4LTQuOTUxIDIuMTc1LTcuMDg2IDMuODY1LTIuMTY3IDEuNzE1LTMuOTA1IDMuODA5LTUuMzAzIDYuMi0xLjQ3MyAyLjUyMy0yLjQ4MyA1LjIyNC0zLjExMSA4LjA2MS0uMzQgMS41MzctLjU1NSAzLjExNy0uNzg4IDQuNjc4LS4wNzMuNDg2LjczMi45NzItLjI2OCAxLjQ1NnY2Ljc5NGMxIC40NTIuMjA4LjkwMy4yNjYgMS4zNTYuMTM5IDEuMDg5LjI2MiAyLjE4Ny40NDYgMy4yNjguMjkxIDEuNzExLjYzNiAzLjQxNy45ODggNS4xMTcuNDkxIDIuMzc1IDEuMDAyIDQuNzQ4IDEuNTQ2IDcuMTExLjM5NiAxLjcyLjg0NyAzLjQzIDEuMzE5IDUuMTMxLjcyMSAyLjU5OCAxLjQzMSA1LjIwMSAyLjI0NiA3Ljc3Ljc1NyAyLjM4NyAxLjYyNCA0Ljc0IDIuNDg0IDcuMDkzIDEuMTkxIDMuMjU1IDIuNjE3IDYuNDA1IDQuMzI3IDkuNDI0IDEuNDc5IDIuNjE0IDMuMTY5IDUuMDYyIDUuNDM2IDcuMDc2IDEuNDk0IDEuMzI3IDMuMTU3IDIuMzQ3IDUuMDkzIDIuODU3IDEuNTIxLjQgMy4wNjcuNDQ4IDQuNjI0LjEyOSAxLjgwNS0uMzcgMy40MDMtMS4xNDcgNC44MjQtMi4zMTEuMTYzLS4xMzQuMzQyLS4yMzYuNTM1LjAxLjczNS45MzEgMS43MTkgMS41NTIgMi43NDggMi4wODkgMi43NzcgMS40NDggNS44MDMgMS44ODIgOC44NzcgMi4wNTkuNzQ0LjA0MyAxLjQ5Ni0uMDY0IDIuMjQ2LS4wODUgMS40NjEtLjA0IDIuODgxLS4zMjUgNC4yNzgtLjcyOS43MzItLjIxMiAxLjQ0Ny0uNDgxIDIuMTkyLS43MzIuMDM5Ljc5My4wODkgMS41NTcuMTEyIDIuMzIxbC4xMDQgNC4xNjZjLjAxOS42MzQuMDQ0IDEuMjcuMTAzIDEuOTAxLjE1MSAxLjYyNy4yOTkgMy4yNTUuNDkzIDQuODc3LjEzNSAxLjExOC4yNzUgMi4yNDUuNTM4IDMuMzM2LjUyOSAyLjIwMyAxLjI0NiA0LjM0OCAyLjE1OCA2LjQyOC44OTUgMi4wNDEgMi4xODIgMy43NjQgMy45IDUuMTg1IDIuMjIgMS44MzYgNC44MjIgMi42MTkgNy42MzIgMi43NjQgMS4xNjIuMDYxIDIuMzU3LjAwNCAzLjUwMS0uMjA0IDEuODEzLS4zMjkgMy42MjItLjc0MyA1LjM4Ny0xLjI3NSAzLjU5MS0xLjA4NCA2LjY5NS0yLjk1NiA5LjAxNC01Ljk4MSAxLjMyLTEuNzI0IDIuNDA0LTMuNTg5IDMuMS01LjY0OC41NzQtMS43MDEgMS4xMTUtMy40MTkgMS41NDUtNS4xNi4zNC0xLjM3Mi41MDgtMi43ODcuNzE1LTQuMTg4LjEzNy0uOTI3LjIxOS0xLjg2My4zMDUtMi43OTcuMTQtMS41MTcuMjgzLTMuMDMzLjM4NC00LjU1My4wNy0xLjA1OC4wNjctMi4xMjEuMTA5LTMuMTgxLjAxMy0uMzIzLjA2NS0uNjQ0LjA5NS0uOTY2LjAyOC0uMjk4LjE3OC0uNDAxLjQ4Mi0uMzk2IDEuMDcxLjAxNiAyLjE0NC4wNDQgMy4yMTItLjAwNCAxLjE5Ny0uMDU0IDIuNDA1LS4xMDUgMy41ODMtLjMwMyAxLjY3Ny0uMjgxIDMuMzQ2LS42MzYgNC45OS0xLjA2NyAxLjk0My0uNTA4IDMuNzI1LTEuNDE4IDUuNDQtMi40NTUgMS45OTgtMS4yMDcgMy44MTktMi42MjMgNS4yOTctNC40NDcgMS4yODUtMS41OTEgMS44OTQtMy40MyAxLjU4NC01LjQzOHptLTMuNDEyLjk4MmMtLjA2Ni45MTUtLjQ4NSAxLjY5OS0xLjA5MyAyLjM2OS0yLjg2OSAzLjE2My02LjQ2OCA1LjA4Mi0xMC41ODUgNi4wMjctMS41NjQuMzU4LTMuMTc4LjU0NC00Ljc3OS42OTItMS4zNjMuMTI2LTIuNzQ2LjE0Ny00LjExNC4wOTctMS4wMDYtLjAzOC0yLjAwNC0uMjY4LTMuMDMyLS40MTYtLjEwMy45NC0uMjAxIDEuOTE5LS4zMiAyLjg5NmwtLjQ3OSAzLjc0NWMtLjE0NSAxLjE4Ny0uMjU4IDIuMzc4LS40MDcgMy41NjQtLjE0NiAxLjE1MS0uMzI4IDIuMjk4LS40ODEgMy40NDktLjE0MyAxLjA3Mi0uMjQ4IDIuMTQ5LS40MDcgMy4yMTktLjI0NSAxLjY0LS40NzkgMy4yODQtLjc5OSA0LjkxMS0uMzg0IDEuOTQ1LS45NzMgMy44MjktMS45MzQgNS41ODMtMS4xNzIgMi4xNDEtMi44MzQgMy43NzItNC45NDkgNC45OC0yLjE4IDEuMjQ2LTQuNTYzIDEuODk0LTYuOTc5IDIuNDM2LTEuNzEuMzg0LTMuNDcyLjQ0Ny01LjIwNC4yOTEtMy4wMDQtLjI3Mi01LjU2OC0xLjU1Ny03LjUwNi0zLjg4Ni0xLjg1LTIuMjIzLTMuMTAyLTQuNzcxLTMuNTUtNy42NTUtLjIxNC0xLjM3MS0uMzY4LTIuNzU0LS40OTEtNC4xMzYtLjEzNi0xLjUzNy0uMjI5LTMuMDc5LS4yOTktNC42Mi0uMDg5LTEuOTU3LS4xNTQtMy45MTQtLjE5Ny01Ljg3MS0uMDUzLTIuNDA2LS4wNy00LjgxMi0uMTA0LTcuMjE4bC0uMDA2LS4wOTJjLTEuMjI0LjczNC0yLjQyNyAxLjUzOC0zLjcwMyAyLjItMS40OTQuNzc2LTMuMTE3IDEuMjI2LTQuNzk4IDEuMzUzLTEuMzE4LjEtMi42NTMuMTkxLTMuOTY1LjA4Ni0yLjE1MS0uMTczLTQuMy0uNTEtNi4yMjYtMS41NjktLjc4MS0uNDMtMS41OTYtLjk1My0yLjEzNC0xLjY0LTEuMjktMS42NDYtLjY3Mi0zLjcyNiAxLjI3My00LjcyNyAxLjM0NC0uNjkzIDIuODExLS45ODIgNC4yNjgtMS4zMTkgMS4yNjYtLjI5MyAyLjUyNi0uNjI2IDMuNzYxLTEuMDI5IDEuMjIyLS40IDEuOTkzLTEuMzkxIDIuNzU0LTIuMzYzbDEuMjA2LTEuNTUxYy0uNTAzLS4wNTMtLjk3Ny0uMTA3LTEuNDUxLS4xNTEtMS40MzktLjEzNi0yLjgxMi0uNTMyLTQuMTI1LTEuMTE0LTEuMTI0LS40OTctMS4xNDEtLjU1MS0xLjk2NS4zNDMtMS4zNzYgMS40OTQtMi43MTQgMy4wMjMtNC4wNjIgNC41NDItLjk5MiAxLjExNy0xLjk3OCAyLjI0MS0yLjk2NSAzLjM2MS0uOTc4IDEuMTA4LTEuODk0IDIuMjc5LTIuOTQ3IDMuMzEtMS41NjQgMS41MzEtMy40NDkgMi40NTItNS42OTggMi4zNDgtMS40NDMtLjA2Ni0yLjc2NC0uNTcyLTMuOTUyLTEuMzk5LTIuNDUyLTEuNzA4LTQuMTA0LTQuMDk3LTUuNjA4LTYuNjA2LTEuOTI3LTMuMjE1LTMuNDA2LTYuNjQtNC42NzItMTAuMTU5LS44NzYtMi40MzItMS43NTYtNC44NjYtMi41MjEtNy4zMzMtLjgzMS0yLjY4MS0xLjU2LTUuMzk2LTIuMjc3LTguMTEtLjU0Mi0yLjA0OC0xLjAyMy00LjExMy0xLjQ4Mi02LjE4Mi0uNTIxLTIuMzUzLTEuMDIyLTQuNzEtMS40NjQtNy4wNzktLjI5OC0xLjU5OS0uNDcxLTMuMjIxLS43MTItNC44MzEtLjMyNS0yLjE3LS4zODUtNC4zNi0uMjY3LTYuNTM5LjEwNS0xLjk2My4zODctMy45MjEuNjY3LTUuODcxLjM4OC0yLjY5OCAxLjI3Ny01LjI0NCAyLjU1Ni03LjY0OC43ODMtMS40NzMgMS43NTUtMi44MTIgMi44NzktNC4wNTYgMS44NDUtMi4wNDIgNC4wNzgtMy41MTggNi41NjItNC42MjYgMS43MzYtLjc3NCAzLjU3LTEuMjQgNS40MzktMS42MDQgMi43NzQtLjU0IDUuNTczLS41MTkgOC4zNzMtLjQ2MSAxLjIyNC4wMjUgMi40NDMuMjQ4IDMuNjY2LjM2OSAyLjYzMy4yNjIgNS4yMTQuODE2IDcuNzYyIDEuNSAxLjg1Ny40OTggMy42NzYgMS4xNDMgNS41MTggMS43MDMuMTg1LjA1Ni40NTYuMDUxLjYwNy0uMDQ4IDIuNDk2LTEuNjI5IDUuMjI0LTIuNzA0IDguMTI1LTMuMzE5IDEuMTAxLS4yMzMgMi4yMzctLjMzNSAzLjM2My0uNDA3IDEuMzY5LS4wODcgMi43NDktLjE2NyA0LjExNS0uMDg4IDEuNjQyLjA5NCAzLjI3Ni4zMzYgNC45MDguNTYuNzkyLjEwOCAxLjU2NS4zODMgMi4zNTkuNDU4LjM4LjAzNi43ODMtLjI0MiAxLjE4NS0uMzM1IDIuMDQ5LS40NzMgNC4wODktMSA2LjE1Ni0xLjM3NCAxLjUzOS0uMjc4IDMuMTExLS40MDkgNC42NzYtLjQ5OSAxLjc0NS0uMSAzLjUwMy0uMTczIDUuMjQ3LS4wODkgMi4yMDUuMTA2IDQuMzk0LjQyIDYuNTU1LjkyMyAyLjY3Ny42MjMgNS4yNDUgMS41MjggNy42ODYgMi43ODQgMS44MjQuOTM4IDMuNTU4IDIuMDI2IDUuMTE5IDMuMzY0IDEuMDIzLjg3OCAyLjA3IDEuNzQ1IDIuOTk0IDIuNzIzIDEuMTQgMS4yMDYgMi4zMDMgMi40MTMgMy4wMTggMy45NTguNTM4IDEuMTY1LjkyMiAyLjM3MSAxLjAyOCAzLjY0Ny4xMzIgMS41ODYuMjkyIDMuMTc4LjI3NyA0Ljc2Ni0uMDE0IDEuNTE5LS4yMjEgMy4wMzctLjM2OCA0LjU1Mi0uMzM0IDMuNDU0LTEuMDg1IDYuODMzLTEuOTk3IDEwLjE2Ny0uNzU0IDIuNzU0LTEuNjM1IDUuNDc4LTIuNTg5IDguMTctLjg3OSAyLjQ4MS0xLjg5MyA0LjkxNy0yLjkxOCA3LjM0My0uNzU3IDEuNzk0LTEuNTcyIDMuNTY5LTIuNDU4IDUuMzAzLTEuNjc3IDMuMjg2LTMuNDIxIDYuNTM4LTUuNDM4IDkuNjMzLS4zNDguNTM1LS42NzggMS4wODMtMS4wMTggMS42MjkuODguNTk0IDEuODc3LjgwMyAyLjg4MS45MTEuOTU1LjEwNCAxLjkyOS4xNjYgMi44ODMuMDk1IDEuNTI3LS4xMTMgMy4wNDktLjMzMSA0LjU2Ny0uNTQ0IDEuNTA0LS4yMSAyLjk3OC0uNjM4IDQuNTIyLS41MjUgMS41NDIuMTEyIDIuNjQ1IDEuMjg0IDIuNTQgMi43Mjl6TTk3LjgzMyA3NC40MTNjLS42NTUtLjg0Ni0xLjMyMy0xLjY4Mi0xLjk2NC0yLjUzOC0xLjAwNi0xLjM0NC0xLjcyOS0yLjg0NS0yLjQ1NS00LjM1My0uNjg4LTEuNDI5LTEuNTMyLTIuNzgyLTIuMjU3LTQuMTk1LTEuMjY1LTIuNDY1LTIuNTUzLTQuOTIyLTMuNzE4LTcuNDM1LTEuNDY1LTMuMTU3LTIuNjItNi40MjYtMi45ODQtOS45MjMtLjE1NC0xLjQ4LS4xOTMtMi45NTguMTA2LTQuNDI0LjQ3OS0yLjM0MSAxLjcwMi00LjE3MiAzLjc1OC01LjQyOCAxLjkwNy0xLjE2NSA0LjAzMi0xLjU0MSA2LjIwOS0xLjY1OSAxLjM1MS0uMDczIDIuNzA4LS4wMTMgNC4xMS0uMDEzbC0uMDQ3LS4yMzdjLS44NzItMS44MjMtMS42ODctMy42NzctMi42NDEtNS40NTctMS4zNDYtMi41MTItMy4wNjgtNC43NzctNC45ODYtNi44NzctMS40MjEtMS41NTUtMi45Ni0yLjk5OC00LjY0Ni00LjI3My0xLjY1OC0xLjI1NS0zLjQwNS0yLjM3Ni01LjI2OS0zLjI5My0yLjIyMy0xLjA5My00LjUzOC0xLjkzOC02Ljk2Ny0yLjQ3Ny0yLjMzNC0uNTE4LTQuNjgzLS44MzUtNy4wNzctLjg2MS0yLjA0Mi0uMDIyLTQuMDcxLjA3LTYuMDYuNTMxLTMuMDAyLjY5NS01Ljc0OCAxLjkzMS04LjEzNyAzLjkzMy0xLjMzNCAxLjExOC0yLjQ5OCAyLjM3My0zLjUxNyAzLjc3LTEuMTk2IDEuNjQzLTIuMTYxIDMuNDE3LTIuOTg2IDUuMjc3LTEuMTMyIDIuNTUyLTEuOTA5IDUuMjA4LTIuNDQgNy45MzgtLjI2NiAxLjM2MS0uNDc0IDIuNzM0LS42ODYgNC4xMDYtLjA3NC40OC0uMDguOTcxLS4xMjMgMS41MjEuMzY5LS4xOTIuNjM1LS4zNC45MDctLjQ3MmwuODg1LS4zOTdjMi45OTMtMS4zNjkgNi4wOTQtMi4yNSA5LjQyNy0yLjE0OSAxLjQxNi4wNDMgMi43NzEuMzIzIDQuMDMuOTQzIDIuNDE1IDEuMTkxIDMuODI4IDMuMjE2IDQuNDQyIDUuNzc5LjQyNCAxLjc2OS43MTQgMy41NzMuOTk2IDUuMzcyLjIyMSAxLjQwNS40NDcgMi44MjUuNDczIDQuMjQyLjAzNyAyLjA3MS0uMDY4IDQuMTQ2LS4xODEgNi4yMTYtLjA5NiAxLjc2NC0uNDY0IDMuNS0xLjA4IDUuMTQ2LTEuMTIgMi45OTMtMi4zNjggNS45MzctMy41MzQgOC45MTMtLjM4NS45ODMtLjY4MSAyLjAwMS0xLjA0NSAzLjA4Mi41NjIgMCAxLjAxOC0uMDA0IDEuNDc0LjAwMi4xNzguMDAzLjM2LjAwOC41MzIuMDQ5IDEuMzQuMzE2IDIuNTAyLjkyMyAzLjQ1NSAxLjk1NCAxLjI3MSAxLjM3MiAxLjkzOCAyLjk3MyAxLjk3MiA0LjgyNi4wMTkgMS4wMjctLjA4OSAyLjA1Ny0uMDg0IDMuMDg0LjAyMSA0Ljc4Ni4wNTcgOS41NzIuMDk3IDE0LjM1Ny4wMDcuNzgyLjA0NiAxLjU2NS4xMDIgMi4zNDYuMTE3IDEuNjM1LjIzNSAzLjI3MS4zOTUgNC45MDIuMTEyIDEuMTU3LjI2OCAyLjMxMi40NTEgMy40NjEuMjU5IDEuNjI4IDEgMy4wNzcgMS44NDEgNC40NjIuNzI0IDEuMTkxIDEuNjY1IDIuMjAzIDIuOTA1IDIuOTAxIDIuMTA3IDEuMTg2IDQuMzc2IDEuMjg1IDYuNjYzLjg0OCAxLjU0NS0uMjk1IDMuMDYyLS43NjkgNC41NjItMS4yNTggMS40NzktLjQ4MSAyLjgxNS0xLjI2OSAzLjkzNy0yLjM1NCAxLjA1MS0xLjAxOSAxLjc5Ny0yLjI2MSAyLjMtMy42MzIuOTc2LTIuNjU5IDEuMjgtNS40NTkgMS42ODQtOC4yMzcuMTUxLTEuMDQuMjgyLTIuMDgzLjQyLTMuMTI1LjE1Ny0xLjE4Ni4zMTYtMi4zNzEuNDY4LTMuNTU2LjExMi0uODgzLjIxNC0xLjc2OC4zMjItMi42NTEuMTU0LTEuMjY4LjMxNy0yLjUzNS40NjQtMy44MDQuMTEzLS45ODEuMjA5LTEuOTY2LjMwOS0yLjk0OS4xMjktMS4yNTYuMjY4LTIuNTEyLjM3OS0zLjc3LjA4Ni0uOTU1LjA1MS0xLjkyNy4yMi0yLjg2NC4zMTEtMS43MTggMS4xMjMtMy4xOCAyLjY0Ni00LjEyNS42MzctLjM5NSAxLjM1Ni0uNjU1IDIuMDYzLS45ODlsLS4xMi0uMTg2ek00MC4yMzYgNjcuMzYxYy0uNzYxLTEuODAyLTEuMjE4LTMuNjgtMS4zNTQtNS42MjItLjEyOC0xLjgyNS4wODktMy42NDMuMjc2LTUuNDYuMTgyLTEuNzYuMzMzLTMuNTI4LjM4Ni01LjI5Ni4wODgtMi45MDYtLjEwOC01LjgwOC0uMjQ3LTguNzEyLS4wODQtMS43MjkuMTE3LTMuNDc5LjI3MS01LjIxMi4xMzktMS41NjEuMzEyLTMuMTI2LjYwNy00LjY2NC40OTUtMi41ODEgMS4xNTItNS4xMjUgMi4wODYtNy41OTEuODg3LTIuMzM4IDEuOTA2LTQuNjE1IDMuMzQ1LTYuNjY1Ljk4Ni0xLjQwNiAyLjEwNS0yLjcyIDMuMTgtNC4wOTRsLS4zMTktLjExM2MtMy40OTgtMS4xMTEtNy4wNTMtMS45NzktMTAuNzA5LTIuMzU4LTEuNzI5LS4xNzktMy40NjQtLjI4NC01LjE5OC0uMzg3LS41MzItLjAzMi0xLjA3Mi4wNC0xLjYwNi4wOTEtMS4zMjIuMTI2LTIuNjYuMTc2LTMuOTYxLjQyNC0yLjIxNC40MjEtNC4zMzggMS4xMjktNi4zMDUgMi4yODItMS43NjYgMS4wMzUtMy4yNDkgMi4zNzMtNC40OTEgMy45NzgtMS4zNzIgMS43NzItMi4yOTUgMy43NzYtMi45NTggNS45MTMtLjc4MyAyLjUyMS0xLjE1NiA1LjExNS0xLjI1NyA3LjczMy0uMDg4IDIuMjk1LS4xMzIgNC42MDMuMjY0IDYuODg5LjI5NSAxLjcwMi40OTIgMy40MjIuODE3IDUuMTE3LjQ0MyAyLjMxMS45MTggNC42MTcgMS40NjcgNi45MDQuNzg1IDMuMjc0IDEuNTY5IDYuNTUzIDIuNDk5IDkuNzg3Ljg5IDMuMDk5IDEuODk0IDYuMTcgMi45ODIgOS4yMDQuODkgMi40NzYgMS45MTkgNC45MDYgMy4wMDMgNy4zMDQuNzA2IDEuNTYyIDEuNTYxIDMuMDY1IDIuNDU3IDQuNTI4Ljk1MyAxLjU1MyAyLjAzNyAzLjAyNyAzLjUwOCA0LjE1NCAxLjg1NiAxLjQyMyAzLjI5MyAxLjY0NCA1LjE3OS4wODMuODA4LS42NjkgMS40OTEtMS40OTUgMi4xOTQtMi4yODIgMS4xMTctMS4yNSAyLjE5NS0yLjUzNCAzLjMwNy0zLjc4OCAxLjQxNi0xLjU5OCAyLjg1LTMuMTc5IDQuMjczLTQuNzY5LjMwMS0uMzM2LjU5LS42ODIuODgzLTEuMDIybC0uNDg0LS40MjVjLTEuNzY5LTEuNjk5LTMuMTM5LTMuNjY5LTQuMDk1LTUuOTMxek05My45MjQgMTkuNzkyYzEuMTU2IDEuMzU2IDIuMjc1IDIuNzUyIDMuMzA5IDQuMjA0IDIgMi44MDkgMy41OTggNS44NDIgNC43NzUgOS4wODcuNTIxIDEuNDMuOTM3IDIuODc0Ljc1MSA0LjQzOS0uMTI5IDEuMDk2LS4xMTggMi4yMDgtLjIxNSAzLjMxLS4wODEuOTE3LS4yMjYgMS44MjktLjM0NSAyLjc0My0uMTc4IDEuMzc4LS40MzYgMi43NTItLjUxMyA0LjEzNi0uMDczIDEuMzE3LjAwMyAyLjY0OC4wODYgMy45NjguMDg0IDEuMzQxLjI2NSAyLjY3Ni4zODggNC4wMTUuMTM5IDEuNTE4LjMyNiAzLjAzNi4zNjkgNC41NTcuMDM1IDEuMjQ5LS4wNzYgMi41MDYtLjE4NSAzLjc1My0uMTMgMS41MDItLjUxMSAyLjk1Ni0xLjA3OSA0LjM1MS0uMzk5Ljk4Mi0uODc2IDEuOTM0LTEuMzI3IDIuOTE3bC4xODEuMTkyLjI3NS4yMTMuMjc3LS40OTZjMi4zMzktMy42ODggNC40Mi03LjUxOCA2LjIyMi0xMS40OTMgMS4xNTktMi41NiAyLjI0NS01LjE1NiAzLjI4Ny03Ljc2NiAxLjYyNC00LjA2NCAyLjkwOS04LjI0MiAzLjkwMy0xMi41MDMuNDQ2LTEuOTEzLjc4Ny0zLjg1NSAxLjA5LTUuNzk3LjIzNi0xLjUxOC40MzMtMy4wNTQuNDc3LTQuNTg2LjA0Ny0xLjYyNS0uMDQzLTMuMjYzLS4xOTMtNC44ODQtLjExMi0xLjIyNC0uNDE0LTIuNDU2LTEuMTgxLTMuNDUxLTEuMjMzLTEuNjAyLTIuNTY0LTMuMTM0LTQuMjAxLTQuMzQ2LTEuMzc4LTEuMDIxLTIuNzUxLTIuMDY4LTQuMjMtMi45MjctMi4zNDUtMS4zNi00Ljg4My0yLjI2Ni03LjUzNS0yLjg4My0yLjU4OC0uNjAzLTUuMjEtLjg2My03Ljg0OS0uOTE4LTEuNTU2LS4wMzMtMy4xMTkuMTM0LTQuNjcyLjI4LTEuNDA3LjEzMi0yLjgwNS4zNTctNC4yMjIuNTQzIDEuNTIuODU1IDMuMDE5IDEuNjE1IDQuNDMzIDIuNTExIDIuOTczIDEuODgzIDUuNjM3IDQuMTQ5IDcuOTI0IDYuODMxek01NS4yOTkgNzIuNTE0Yy45NjEtMy4wNzMgMi4yNy02LjAwNyAzLjUzOC04Ljk1OSAxLjAyOC0yLjM5NCAxLjU5LTQuOTE2IDEuNzc3LTcuNTA2LjA5My0xLjI3Ny4wNjctMi41Ny4wMDQtMy44NTEtLjA3MS0xLjQyMy0uMTg1LTIuODUtLjM5Mi00LjI1OS0uMjY2LTEuODAxLS41NjktMy42MDMtLjk5NS01LjM3MS0uNDYyLTEuOTEzLTEuNjI3LTMuMjQ1LTMuNjIzLTMuNzM2LTEuMjE2LS4yOTktMi40MjQtLjI4Ny0zLjY1My0uMDkzLTMuMDAyLjQ3My01Ljc1IDEuNTc5LTguMzEgMy4xOTktLjUxNS4zMjYtLjc5OC41ODktLjcwOSAxLjMyOC4xODggMS41NjUuMjI5IDMuMTU1LjIyMiA0LjczNS0uMDEgMi4yMzYtLjEwNSA0LjQ3Mi0uMTkgNi43MDctLjAyOC43MjgtLjEzMyAxLjQ1Mi0uMjExIDIuMTc3LS4xMiAxLjExLS4zNTEgMi4yMTktLjM0NCAzLjMyNy4wMDcgMS4xNDIuMTI0IDIuMzExLjQwMSAzLjQxNy44OCAzLjUwNyAyLjc0NCA2LjM3NyA1Ljc5OSA4LjQwMiAxLjg3OSAxLjI0NSAzLjk1OCAxLjg3MyA2LjI0IDEuOTkyLjE1NS0uNTI0LjI5My0xLjAxOS40NDYtMS41MDl6bS0zLjU4Ni0zMC4wODdjLS40MDItLjg0NC0uMTcyLTEuNTQzLjc2LTEuODY3LjIyNy0uMDguNDYxLS4xNjUuNjk3LS4xODguMzI0LS4wMzIuNjU0LS4wMDguOTgyLS4wMDggMS4xODIuMDA2IDIuMzE5LjE3MSAzLjI5NS45MjMuNjI2LjQ4Mi43OTQgMS4xMjIuMzg5IDEuNzc5LS41NzUuOTMyLTEuNDUyIDEuNC0yLjUyOSAxLjQ5LTEuNjk3LjE0MS0yLjg4OC0uNjUtMy41OTQtMi4xMjl6TTk4Ljc1MyA0Mi4xMTljLjEzNi0xLjEyNC4yNDUtMi4yNTEuMzg0LTMuMzc1LjA1Ni0uNDUyLS4xODItLjU3NC0uNTYxLS41ODUtMS4xOTItLjAzMy0yLjM4NC0uMDc1LTMuNTc2LS4wOTctMS4zNDQtLjAyNC0yLjY1Mi4xOTItMy44OTYuNzAzLTEuMzguNTY4LTIuNDMxIDEuNDc4LTIuODYgMi45OC0uMzIgMS4xMi0uNDA2IDIuMjM5LS4yOTMgMy40MS4xNzIgMS43ODUuNTY4IDMuNTE3IDEuMTkzIDUuMTc2LjgzNCAyLjIyMSAxLjcwNyA0LjQ0MSAyLjc1IDYuNTY5IDEuNDEzIDIuODgxIDMuMDEyIDUuNjcgNC41MTMgOC41MDcuNDAxLjc1Ny43MzggMS41NDcgMS4xNTYgMi40MzEuODc1LTEuODUzIDEuMzAyLTMuNzA4IDEuMzUxLTUuNjIyLjA0MS0xLjYxLS4wODgtMy4yMjctLjE4Mi00LjgzOC0uMDU5LS45ODYtLjE5OC0xLjk2Ni0uMjk0LTIuOTUtLjEzNC0xLjM3MS0uMzM3LTIuNzQxLS4zNjgtNC4xMTUtLjAzMS0xLjM5Ny4wNjgtMi44MDIuMTg4LTQuMTk3LjExMy0xLjMzOC4zMzQtMi42NjUuNDk1LTMuOTk3em0tMi42ODktMS4wODJjLS40NDMgMS4yMjMtMS4zOSAxLjkxMy0yLjYxOCAyLjExNi0xLjE0NS4xODgtMi4xNDgtLjIzNS0yLjg5NC0xLjE0OC0uNTMxLS42NS0uMzI4LTEuNDIuNDY4LTEuODU5LjkxNC0uNTA2IDEuOTE5LS42MzQgMy4xMDQtLjcxMS4zMjIuMDU5LjgwNy4xMDggMS4yNjguMjQuNjY5LjE4OS45MTYuNjkyLjY3MiAxLjM2MnpNNjAuNjQyIDc4LjY5N2MtLjY1NS0uNTM1LTEuNTIxLS41NjYtMi4xNDQuMDIxLS43NzMuNzMtMS40NTMgMS41NjUtMi4xMzMgMi4zODgtLjc4NS45NTEtMS41MjEgMS45NC0yLjUzNCAyLjY3Ny0xLjQ3NCAxLjA3MS0zLjE5MiAxLjUxNS00LjkxOSAxLjkzNS0xLjM3My4zMzQtMi43NTIuNjQ0LTQuMTI5Ljk2NWwtLjAxNy4xNzhjLjQwOS4xODkuODA1LjQyNSAxLjIzMS41NiAyLjEuNjY1IDQuMjM2Ljk5NiA2LjQ1NS44MDggMS42MDItLjEzNiAzLjEyOC0uNDg1IDQuNTc0LTEuMTcxIDEuOTktLjk0MyAzLjUyMS0yLjQzNyA0LjgyMy00LjE3NS4yMTgtLjI5LjMxNy0uNzE5LjM0My0xLjA5My4wODktMS4zMjEtLjU4Mi0yLjMwMy0xLjU1LTMuMDkzek0xMTIuMzkzIDc5LjIyM2MtMS42OS4xODEtMy4zODIuMzczLTUuMDc3LjQ3LS44MTguMDQ3LTEuNjQ4LS4xMDktMi40NzQtLjE3Ni0xLjM4NS0uMTEyLTIuNzM3LS40Mi0zLjkwOC0xLjE2LS42NzgtLjQyNy0xLjI0MS0uNDc1LTEuOTYxLS4yMzMtMS4wMjguMzQ2LTEuODY3Ljg3Mi0yLjExNSAxLjk4Ni0uMTY5Ljc1My0uMjMgMS41MzMtLjI5OCAyLjMwNC0uMDEzLjEzNi4xNTcuMzg2LjI4Ny40Mi43OTMuMjA5IDEuNTkuNDU2IDIuNDAxLjUyOS45OTYuMDkgMi4wMS4wNjEgMy4wMTMuMDExIDEuMDgzLS4wNTQgMi4xNzMtLjEyNCAzLjI0LS4zMDQgMi41MTUtLjQyMiA0Ljk0OC0xLjExIDcuMTA5LTIuNTM2Ljc3OS0uNTE1IDEuNTUxLTEuMDQxIDIuMzI1LTEuNTYybC0uMDY0LS4xMWMtLjgyNi4xMjMtMS42NDguMjczLTIuNDc4LjM2MXoiIGZpbGw9IiMzMzY3OTEiIGNsaXAtcnVsZT0iZXZlbm9kZCIgZmlsbC1ydWxlPSJldmVub2RkIi8+PC9zdmc+;" vertex="1" parent="QiDiUrZGB9I0AOXDtaoh-7">
          <mxGeometry x="25" width="70" height="70" as="geometry" />
        </mxCell>
        <mxCell id="QiDiUrZGB9I0AOXDtaoh-10" value="" style="edgeStyle=orthogonalEdgeStyle;rounded=0;orthogonalLoop=1;jettySize=auto;html=1;" edge="1" parent="Uf2jo-MEsTMQwNn6tAHI-1" source="Uf2jo-MEsTMQwNn6tAHI-40" target="QiDiUrZGB9I0AOXDtaoh-9">
          <mxGeometry relative="1" as="geometry" />
        </mxCell>
        <mxCell id="QiDiUrZGB9I0AOXDtaoh-11" value="" style="group" vertex="1" connectable="0" parent="Uf2jo-MEsTMQwNn6tAHI-1">
          <mxGeometry x="200" y="380" width="120" height="95" as="geometry" />
        </mxCell>
        <mxCell id="QiDiUrZGB9I0AOXDtaoh-12" value="" style="shape=image;verticalLabelPosition=bottom;labelBackgroundColor=default;verticalAlign=top;aspect=fixed;imageAspect=0;image=data:image/svg+xml,PHN2ZyB2aWV3Qm94PSIwIDAgMTI4IDEyOCIgeG1sbnM9Imh0dHA6Ly93d3cudzMub3JnLzIwMDAvc3ZnIj48ZyBmaWxsPSIjRDgyQzIwIj48cGF0aCBkPSJNNi4yIDUyLjdjNi43IDMuMiA0My43IDE4LjEgNDkuNSAyMC45IDUuOCAyLjggMTAgMi44IDE3LjQtMSA3LjQtMy45IDQyLjItMTguMSA0OC45LTIxLjYgMy40LTEuOCA0LjktMy4yIDQuOS00LjR2LTEyLjVjMC0xLjMtMS43LTIuNC01LTMuNi02LjUtMi40LTQxLjEtMTYuMS00Ny43LTE4LjYtNi42LTIuNC05LjMtMi4zLTE3LjEuNS03LjggMi44LTQ0LjUgMTcuMi01MS4xIDE5LjgtMy4yIDEuMy01IDIuNC01IDMuN2gtLjJ2MTIuN2MuMiAxLjIgMi4xIDIuNSA1LjQgNC4xem02MC40IDEuOGwtMjAuMy04LjQgMjkuMS00LjUtOC44IDEyLjl6bTQ0LjEtMjBsLTE3LjIgNi44LTEuOS43LTE3LjItNi44IDE5LjEtNy41IDE3LjIgNi44em0tNTAuNi0xMi41bC0yLjgtNS4yIDguOCAzLjQgOC4zLTIuNy0yLjIgNS40IDguNCAzLjItMTAuOSAxLjEtMi40IDUuOS0zLjktNi41LTEyLjYtMS4xIDkuMy0zLjV6bS0yMS43IDcuM2M4LjYgMCAxNS42IDIuNyAxNS42IDZzLTcgNi0xNS42IDYtMTUuNi0yLjctMTUuNi02IDctNiAxNS42LTZ6TTEyMiA1OS44Yy02LjcgMy41LTQxLjQgMTcuOC00OC44IDIxLjYtNy40IDMuOS0xMS41IDMuOC0xNy4zIDEtNS44LTIuOC00My0xNy43LTQ5LjYtMjAuOS0zLjQtMS42LTUuMy0yLjktNS4zLTQuMnYxMi43YzAgMS4zIDEuOSAyLjYgNS4yIDQuMiA2LjcgMy4yIDQzLjcgMTguMSA0OS41IDIwLjkgNS44IDIuOCAxMCAyLjggMTcuNC0xIDcuNC0zLjkgNDIuMi0xOC4xIDQ4LjktMjEuNiAzLjQtMS44IDQuOS0zLjIgNC45LTQuNHYtMTIuNWMwIDEuMS0xLjYgMi41LTQuOSA0LjJ6TTEyMiA4MC41Yy02LjcgMy41LTQxLjQgMTcuOC00OC44IDIxLjYtNy40IDMuOS0xMS41IDMuOC0xNy4zIDEtNS44LTIuOC00My0xNy43LTQ5LjYtMjAuOS0zLjQtMS41LTUuMy0yLjktNS4zLTQuMnYxMi43YzAgMS4zIDEuOSAyLjYgNS4yIDQuMiA2LjcgMy4yIDQzLjcgMTguMSA0OS41IDIwLjkgNS44IDIuOCAxMCAyLjggMTcuNC0xIDcuNC0zLjkgNDIuMi0xOC4xIDQ4LjktMjEuNiAzLjQtMS44IDQuOS0zLjIgNC45LTQuNHYtMTIuNWMwIDEuMi0xLjYgMi41LTQuOSA0LjJ6Ii8+PC9nPjwvc3ZnPg==;" vertex="1" parent="QiDiUrZGB9I0AOXDtaoh-11">
          <mxGeometry x="25" width="70" height="70" as="geometry" />
        </mxCell>
        <mxCell id="QiDiUrZGB9I0AOXDtaoh-13" value="Metrics Exporter" style="text;whiteSpace=wrap;html=1;align=center;verticalAlign=middle;" vertex="1" parent="QiDiUrZGB9I0AOXDtaoh-11">
          <mxGeometry y="75" width="120" height="20" as="geometry" />
        </mxCell>
        <mxCell id="QiDiUrZGB9I0AOXDtaoh-14" value="" style="edgeStyle=orthogonalEdgeStyle;rounded=0;orthogonalLoop=1;jettySize=auto;html=1;" edge="1" parent="Uf2jo-MEsTMQwNn6tAHI-1" source="y09WANP1Xz8XOMxPSsqu-4" target="QiDiUrZGB9I0AOXDtaoh-12">
          <mxGeometry relative="1" as="geometry" />
        </mxCell>
        <mxCell id="QiDiUrZGB9I0AOXDtaoh-15" value="" style="group" vertex="1" connectable="0" parent="Uf2jo-MEsTMQwNn6tAHI-1">
          <mxGeometry x="200" y="270" width="120" height="95" as="geometry" />
        </mxCell>
        <mxCell id="QiDiUrZGB9I0AOXDtaoh-16" value="" style="shape=image;verticalLabelPosition=bottom;labelBackgroundColor=default;verticalAlign=top;aspect=fixed;imageAspect=0;image=data:image/svg+xml,PHN2ZyB4bWxucz0iaHR0cDovL3d3dy53My5vcmcvMjAwMC9zdmciIHZpZXdCb3g9IjAgMCAyNCAyNCIgcm9sZT0iaW1nIj48dGl0bGU+Q2VsZXJ5PC90aXRsZT48cGF0aCBkPSJNMi4zMDMgMEEyLjI5OCAyLjI5OCAwIDAgMCAwIDIuMzAzdjE5LjM5NEEyLjI5OCAyLjI5OCAwIDAgMCAyLjMwMyAyNGgxOS4zOTRBMi4yOTggMi4yOTggMCAwIDAgMjQgMjEuNjk3VjIuMzAzQTIuMjk4IDIuMjk4IDAgMCAwIDIxLjY5NyAwem04LjE3NyAzLjA3MmM0LjA5OCAwIDcuMDI4IDEuNDM4IDcuNjggMS43NjRsLTEuMTk0IDIuNTVjLTIuNDQyLTEuMDU3LTQuOTkzLTEuNDEtNS42NzItMS40MS0xLjU3NCAwLTIuMTcuOTIyLTIuMTcgMS43NjN2OC40OTRjMCAuODY5LjU5NiAxLjc5MSAyLjE3IDEuNzkxLjY3OSAwIDMuMjMtLjM4IDUuNjcyLTEuNDFsMS4xOTQgMi40OTZjLS40MzUuMjcxLTMuNjM3IDEuODE4LTcuNjggMS44MTgtMS4xMTIgMC00LjY0LS4yNDQtNC42NC00LjY0VjcuNzEzYzAtNC4zOTcgMy41MjgtNC42NCA0LjY0LTQuNjR6IiBmaWxsPSIjMzc4MTRBIi8+PC9zdmc+;" vertex="1" parent="QiDiUrZGB9I0AOXDtaoh-15">
          <mxGeometry x="25" width="70" height="70" as="geometry" />
        </mxCell>
        <mxCell id="QiDiUrZGB9I0AOXDtaoh-17" value="Metrics Exporter" style="text;whiteSpace=wrap;html=1;align=center;verticalAlign=middle;" vertex="1" parent="QiDiUrZGB9I0AOXDtaoh-15">
          <mxGeometry y="75" width="120" height="20" as="geometry" />
        </mxCell>
        <mxCell id="QiDiUrZGB9I0AOXDtaoh-18" value="" style="edgeStyle=orthogonalEdgeStyle;rounded=0;orthogonalLoop=1;jettySize=auto;html=1;" edge="1" parent="Uf2jo-MEsTMQwNn6tAHI-1" source="Uf2jo-MEsTMQwNn6tAHI-72" target="QiDiUrZGB9I0AOXDtaoh-16">
          <mxGeometry relative="1" as="geometry" />
        </mxCell>
      </root>
    </mxGraphModel>
  </diagram>
</mxfile>
